<?xml version="1.0" encoding="UTF-8" standalone="no"?>
<svg
   xmlns:dc="http://purl.org/dc/elements/1.1/"
   xmlns:cc="http://creativecommons.org/ns#"
   xmlns:rdf="http://www.w3.org/1999/02/22-rdf-syntax-ns#"
   xmlns:svg="http://www.w3.org/2000/svg"
   xmlns="http://www.w3.org/2000/svg"
   viewBox="0 0 350.66666 397.33334"
   height="397.33334"
   width="350.66666"
   xml:space="preserve"
   id="svg2"
   version="1.1"><metadata
     id="metadata8"><rdf:RDF><cc:Work
         rdf:about=""><dc:format>image/svg+xml</dc:format><dc:type
           rdf:resource="http://purl.org/dc/dcmitype/StillImage" /></cc:Work></rdf:RDF></metadata><defs
     id="defs6" /><g
     transform="matrix(1.3333333,0,0,-1.3333333,0,397.33333)"
     id="g10"><g
       transform="scale(0.1)"
       id="g12"><path
         id="path14"
         style="fill:#100f0d;fill-opacity:1;fill-rule:evenodd;stroke:none"
         d="M 8.12109,1441.72 H 2625.19 V 5.22656 H 8.12109 V 1441.72" /><path
         id="path16"
         style="fill:none;stroke:#231f20;stroke-width:5.00029993;stroke-linecap:butt;stroke-linejoin:miter;stroke-miterlimit:2.61313009;stroke-dasharray:none;stroke-opacity:1"
         d="M 8.12109,1441.72 H 2625.19 V 5.22656 H 8.12109 Z" /><path
         id="path18"
         style="fill:#100f0d;fill-opacity:1;fill-rule:nonzero;stroke:none"
         d="m 1088.99,2737.34 c 89.8,0 164.72,-34.79 224.67,-104.14 59.99,-69.52 89.92,-156.11 89.92,-260.03 0,-103.39 -29.93,-189.6 -89.92,-258.81 -59.95,-69.2 -134.87,-103.68 -224.67,-103.68 -89.916,0 -164.998,34.48 -225.435,103.68 -60.422,69.21 -90.629,155.42 -90.629,258.81 0,103.92 30.207,190.51 90.629,260.03 60.437,69.35 135.519,104.14 225.435,104.14 z m 0,-653.8 c 69.65,0 127.74,27.47 174.5,82.48 46.69,55.01 70.05,124.06 70.05,207.15 0,82.56 -23.51,151.76 -70.37,207.45 -46.97,55.86 -105.03,83.7 -174.18,83.7 -70.1,0 -128.584,-27.62 -175.599,-82.86 -46.911,-55.24 -70.446,-124.59 -70.446,-208.29 0,-83.09 23.535,-152.14 70.446,-207.15 47.015,-55.01 105.499,-82.48 175.599,-82.48" /><path
         id="path20"
         style="fill:#100f0d;fill-opacity:1;fill-rule:nonzero;stroke:none"
         d="m 2240.39,2975.85 v -236.98 h 230.11 v -62.26 h -230.11 v -425.14 c 0,-68.44 6.36,-113.45 19.14,-134.89 12.81,-21.52 47.11,-32.28 103.02,-32.28 42.86,0 92.71,11.67 149.87,34.95 v -73.02 c -57.69,-24.34 -114.1,-36.47 -169.44,-36.47 -54.14,0 -99.26,13.5 -135.58,40.44 -36.34,26.85 -54.49,64.24 -54.49,111.85 v 514.56 h -221.08 l 70.89,62.26 h 150.19 v 170.14 l 59.83,66.84 h 27.65" /><path
         id="path22"
         style="fill:#ed1c24;fill-opacity:1;fill-rule:nonzero;stroke:none"
         d="m 2112.38,2014.41 h -232.32 l 66.33,128.64 h -450.57 l 68.56,-128.64 H 1330.7 l 284.14,720.41 h 214.27 z m -276.59,224.17 -112.9,310.15 -139.05,-393.78 z" /><path
         id="path24"
         style="fill:#100f0d;fill-opacity:1;fill-rule:nonzero;stroke:none"
         d="m 159.609,2060.11 v 915.97 h 23.973 l 44.484,-66.92 0.125,-269.41 c 68.414,78.67 148.094,98.13 214.739,100.04 58.453,1.44 160.5,-29.54 213.574,-88.97 56.117,-62.87 92.461,-142 92.461,-245.84 0,-120.47 -31.457,-220.04 -96.957,-292.68 -65.508,-72.63 -156.137,-101.17 -264.754,-101.17 -71.262,0 -147,12.82 -227.645,48.98 z m 68.684,501.36 -1.34,-451.84 c 53.141,-22.5 104,-26.47 156.184,-26.47 82.98,0 168.386,25.25 222.672,85.3 47.711,44.71 78.566,138.63 80.453,230.65 5.035,96.37 -45.223,171.06 -66.551,195.78 -39.371,45.55 -89.039,80.11 -170.879,81.18 -78.289,1.07 -147.812,-21.28 -220.539,-114.6" /><path
         id="path26"
         style="fill:#100f0d;fill-opacity:1;fill-rule:nonzero;stroke:none"
         d="m 778.43,1870.13 h 14.738 l -2.254,-17.01 c 13.102,13.2 27.953,19.91 44.832,19.91 15.387,0 28.047,-4.96 37.828,-14.88 9.879,-9.92 14.84,-22.66 14.84,-38.3 0,-18.01 -6.402,-33.49 -19.215,-46.39 -12.808,-12.97 -27.847,-19.38 -45.273,-19.38 -9.356,0 -17.672,1.98 -24.746,5.95 -7.125,4.04 -13.184,10.23 -18.121,18.62 l -8.489,-63.02 h -15.019 z m 55.699,-10.45 c -9.313,0 -17.824,-2.14 -25.492,-6.56 -7.723,-4.42 -13.848,-10.76 -18.344,-18.92 -4.492,-8.32 -6.699,-17.32 -6.699,-27.02 0,-11.67 3.668,-21.21 11.094,-28.53 7.449,-7.4 17.019,-11.06 28.796,-11.06 13.922,0 25.813,5.04 35.692,15.1 9.879,10 14.84,22.36 14.84,36.93 0,12.06 -3.672,21.75 -11.02,29.08 -7.367,7.32 -17.004,10.98 -28.867,10.98" /><path
         id="path28"
         style="fill:#100f0d;fill-opacity:1;fill-rule:nonzero;stroke:none"
         d="m 924.754,1913.7 h 14.18 l -21.11,-156.8 h -14.265 l 21.195,156.8" /><path
         id="path30"
         style="fill:#100f0d;fill-opacity:1;fill-rule:nonzero;stroke:none"
         d="m 971.082,1870.13 h 14.465 l -6.797,-47.38 c -2.012,-13.89 -3.051,-22.74 -3.051,-26.48 0,-8.39 2.633,-15.33 7.996,-20.6 5.289,-5.41 12.285,-8.08 20.975,-8.08 7.27,0 13.55,2.06 18.86,6.25 5.31,4.12 9.13,9.54 11.44,16.33 1.12,3.36 2.54,11.14 4.12,23.42 l 7.6,56.54 h 14.29 l -5.5,-42.88 c -2.61,-20.45 -5.41,-35.02 -8.32,-43.64 -2.93,-8.62 -8.14,-15.64 -15.66,-21.22 -7.5,-5.56 -16.68,-8.31 -27.53,-8.31 -12.286,0 -22.368,3.97 -30.236,11.98 -7.765,8.01 -11.738,18.01 -11.738,30.06 0,4.73 0.418,10.3 1.289,16.71 l 1.067,9.99 0.574,4.28 6.156,43.03" /><path
         id="path32"
         style="fill:#100f0d;fill-opacity:1;fill-rule:nonzero;stroke:none"
         d="m 1189.82,1870.13 h 14.2 l -12.96,-95.75 c -2.14,-15.42 -4.65,-26.25 -7.62,-32.51 -4.1,-8.46 -10.88,-15.49 -20.36,-20.9 -9.51,-5.5 -20.7,-8.24 -33.68,-8.24 -12.71,0 -23.58,2.59 -32.57,7.78 -8.95,5.19 -15.79,12.74 -20.4,22.51 l 13.01,4.73 c 7.84,-14.34 21.22,-21.52 39.96,-21.52 9.89,0 18.52,1.98 25.69,6.03 7.27,4.12 12.48,9.23 15.59,15.49 1.84,3.82 3.75,12.13 5.71,24.88 l 0.61,4.34 c -12.23,-13.35 -27.15,-20.07 -44.78,-20.07 -15.53,0 -28.14,4.89 -37.57,14.42 -9.53,9.47 -14.26,21.9 -14.26,37.16 0,11.14 2.86,21.75 8.67,31.59 5.74,9.92 13.73,17.85 23.91,23.88 10.05,6.03 20.38,9.08 30.8,9.08 8.71,0 16.71,-1.98 23.86,-5.87 7.19,-3.97 13.59,-10.15 19.16,-18.62 z m -43.12,-10.99 c -9.49,0 -18.27,-2.21 -26.41,-6.71 -8.17,-4.58 -14.4,-10.76 -18.87,-18.47 -4.49,-7.85 -6.7,-16.48 -6.7,-26.16 0,-10.99 3.57,-20 10.6,-26.86 7.03,-6.72 16.48,-10.15 28.35,-10.15 14.45,0 26.38,4.73 35.87,14.19 9.5,9.39 14.29,21.29 14.29,35.63 0,12.59 -3.87,22.21 -11.62,28.77 -7.76,6.49 -16.25,9.76 -25.51,9.76" /><path
         id="path34"
         style="fill:#100f0d;fill-opacity:1;fill-rule:nonzero;stroke:none"
         d="m 1293.02,1870.13 h 13.75 L 1292,1756.9 h -14.27 z m 11.42,46.55 c 3.22,0 5.96,-1.15 8.24,-3.44 2.29,-2.29 3.43,-5.04 3.43,-8.24 0,-3.28 -1.14,-6.03 -3.43,-8.24 -2.28,-2.29 -5.02,-3.44 -8.24,-3.44 -3.25,0 -6.01,1.15 -8.26,3.44 -2.21,2.21 -3.35,4.96 -3.35,8.24 0,3.2 1.14,5.95 3.35,8.24 2.25,2.29 5.01,3.44 8.26,3.44" /><path
         id="path36"
         style="fill:#100f0d;fill-opacity:1;fill-rule:nonzero;stroke:none"
         d="m 1338.48,1870.13 h 13.99 l -2.33,-17.62 c 11.45,13.65 24.85,20.52 40.09,20.52 11.71,0 21.17,-3.58 28.34,-10.76 7.21,-7.17 10.75,-16.78 10.75,-28.99 0,-4.81 -0.77,-12.97 -2.36,-24.34 l -6.97,-52.04 h -14.25 l 7.03,52.04 c 1.48,10.99 2.23,19.23 2.23,24.42 0,8.01 -2.43,14.34 -7.2,19.22 -4.86,4.96 -11.12,7.33 -18.86,7.33 -7.67,0 -14.79,-1.99 -21.37,-5.95 -6.61,-3.97 -11.7,-9.31 -15.27,-16.03 -3.65,-6.79 -6.4,-17.47 -8.36,-32.04 l -6.48,-48.99 h -14.3 l 15.32,113.23" /><path
         id="path38"
         style="fill:#100f0d;fill-opacity:1;fill-rule:nonzero;stroke:none"
         d="m 1486.19,1912.4 h 14.22 l -5.61,-42.27 h 22.79 l -1.66,-12.74 h -22.79 l -13.41,-100.49 h -14.57 l 13.61,100.49 h -19.41 l 1.78,12.74 h 19.34 l 5.71,42.27" /><path
         id="path40"
         style="fill:#100f0d;fill-opacity:1;fill-rule:nonzero;stroke:none"
         d="m 1591.61,1873.03 c 9.59,0 18.42,-2.29 26.46,-6.94 8.07,-4.58 14.38,-10.99 18.84,-19.23 4.52,-8.24 6.79,-17.55 6.79,-27.85 0,-11.9 -2.91,-22.89 -8.62,-33.11 -5.78,-10.08 -13.53,-17.93 -23.21,-23.51 -9.71,-5.56 -20.68,-8.31 -32.94,-8.31 -15.19,0 -27.66,4.96 -37.51,14.96 -9.8,9.92 -14.67,22.5 -14.67,38 0,12.05 2.86,23.11 8.59,33.26 5.79,10.22 13.65,18.23 23.68,24.03 9.98,5.8 20.85,8.7 32.59,8.7 z m -0.38,-13.89 c -9.05,0 -17.52,-2.21 -25.41,-6.71 -7.99,-4.5 -14.1,-10.68 -18.37,-18.62 -4.24,-7.86 -6.38,-16.48 -6.38,-26.01 0,-11.91 3.7,-21.52 11.03,-29 7.37,-7.48 16.83,-11.21 28.52,-11.21 9.05,0 17.35,2.21 24.72,6.48 7.4,4.43 13.23,10.61 17.62,18.77 4.37,8.16 6.58,16.94 6.58,26.32 0,7.86 -1.64,14.8 -4.94,20.91 -3.22,5.95 -7.82,10.76 -13.85,14.04 -5.96,3.43 -12.46,5.03 -19.52,5.03" /><path
         id="path42"
         style="fill:#100f0d;fill-opacity:1;fill-rule:nonzero;stroke:none"
         d="m 1738.79,1870.13 h 13.97 l -2.37,-17.62 c 11.53,13.65 24.88,20.52 40.15,20.52 11.74,0 21.17,-3.58 28.3,-10.76 7.17,-7.17 10.75,-16.78 10.75,-28.99 0,-4.81 -0.71,-12.97 -2.27,-24.34 l -7.02,-52.04 H 1806 l 7.07,52.04 c 1.47,10.99 2.27,19.23 2.27,24.42 0,8.01 -2.44,14.34 -7.25,19.22 -4.79,4.96 -11.12,7.33 -18.89,7.33 -7.68,0 -14.78,-1.99 -21.36,-5.95 -6.55,-3.97 -11.65,-9.31 -15.25,-16.03 -3.71,-6.79 -6.44,-17.47 -8.35,-32.04 l -6.48,-48.99 h -14.26 l 15.29,113.23" /><path
         id="path44"
         style="fill:#100f0d;fill-opacity:1;fill-rule:nonzero;stroke:none"
         d="m 1865.77,1870.13 h 13.75 l -14.79,-113.23 h -14.25 z m 11.47,46.55 c 3.21,0 5.91,-1.15 8.22,-3.44 2.2,-2.29 3.43,-5.04 3.43,-8.24 0,-3.28 -1.23,-6.03 -3.43,-8.24 -2.31,-2.29 -5.01,-3.44 -8.22,-3.44 -3.28,0 -6.03,1.15 -8.28,3.44 -2.24,2.21 -3.39,4.96 -3.39,8.24 0,3.2 1.15,5.95 3.39,8.24 2.25,2.29 5,3.44 8.28,3.44" /><path
         id="path46"
         style="fill:#100f0d;fill-opacity:1;fill-rule:nonzero;stroke:none"
         d="m 1905.44,1870.13 h 14.54 l -1.96,-14.26 c 3.88,5.33 8.57,9.61 14.11,12.66 5.46,2.97 11.07,4.5 16.83,4.5 4.09,0 8.31,-0.99 12.81,-2.9 l -6.89,-13.35 c -3.61,1.45 -6.59,2.13 -9.08,2.13 -5.01,0 -10,-1.67 -14.94,-5.26 -4.89,-3.51 -8.96,-8.62 -12.03,-15.41 -3.03,-6.72 -5.67,-17.93 -7.8,-33.35 l -6.66,-47.99 h -14.24 l 15.31,113.23" /><path
         id="path48"
         style="fill:#100f0d;fill-opacity:1;fill-rule:nonzero;stroke:none"
         d="m 1961.49,1870.13 h 15.02 l 28.57,-82.56 47.51,82.56 h 15.81 l -65.18,-113.23 h -2.69 l -39.04,113.23" /><path
         id="path50"
         style="fill:#100f0d;fill-opacity:1;fill-rule:nonzero;stroke:none"
         d="m 2189.8,1756.9 h -14.67 l 2.21,17.1 c -13.03,-13.28 -28.05,-19.92 -44.83,-19.92 -15.32,0 -27.92,4.96 -37.78,14.8 -9.85,9.92 -14.82,22.66 -14.82,38.3 0,18.09 6.43,33.5 19.31,46.39 12.84,12.98 28.05,19.46 45.45,19.46 9.44,0 17.68,-1.98 24.83,-5.95 7.05,-3.89 13.07,-10.15 17.92,-18.47 l 2.58,21.52 h 15.04 z m -55.65,10.53 c 9.31,0 17.78,2.14 25.47,6.57 7.64,4.5 13.7,10.75 18.22,18.99 4.49,8.24 6.73,17.25 6.73,26.94 0,11.67 -3.71,21.28 -11.1,28.53 -7.38,7.33 -16.98,10.99 -28.8,10.99 -13.83,0 -25.74,-5.04 -35.59,-15.03 -9.88,-10.07 -14.8,-22.44 -14.8,-37.01 0,-11.97 3.7,-21.66 11.08,-28.91 7.39,-7.41 16.97,-11.07 28.79,-11.07" /><path
         id="path52"
         style="fill:#100f0d;fill-opacity:1;fill-rule:nonzero;stroke:none"
         d="m 2238.66,1870.13 h 13.97 l -2.31,-17.62 c 11.47,13.65 24.85,20.52 40.11,20.52 11.67,0 21.18,-3.58 28.3,-10.76 7.17,-7.17 10.79,-16.78 10.79,-28.99 0,-4.81 -0.79,-12.97 -2.35,-24.34 l -7.02,-52.04 h -14.26 l 7.03,52.04 c 1.51,10.99 2.28,19.23 2.28,24.42 0,8.01 -2.48,14.34 -7.19,19.22 -4.84,4.96 -11.13,7.33 -18.87,7.33 -7.72,0 -14.84,-1.99 -21.34,-5.95 -6.65,-3.97 -11.75,-9.31 -15.37,-16.03 -3.6,-6.79 -6.38,-17.47 -8.31,-32.04 l -6.48,-48.99 h -14.28 l 15.3,113.23" /><path
         id="path54"
         style="fill:#100f0d;fill-opacity:1;fill-rule:nonzero;stroke:none"
         d="m 2465.03,1756.9 h -14.64 l 2.25,17.1 c -13.05,-13.28 -28.05,-19.92 -44.88,-19.92 -15.31,0 -27.92,4.96 -37.85,14.8 -9.78,9.92 -14.79,22.66 -14.79,38.3 0,18.09 6.51,33.5 19.36,46.39 12.86,12.98 28.05,19.46 45.42,19.46 9.44,0 17.7,-1.98 24.83,-5.95 7.07,-3.89 13.07,-10.15 17.92,-18.47 l 2.6,21.52 h 15.07 z m -55.63,10.53 c 9.31,0 17.73,2.14 25.47,6.57 7.67,4.5 13.73,10.75 18.22,18.99 4.5,8.24 6.73,17.25 6.73,26.94 0,11.67 -3.7,21.28 -11.05,28.53 -7.42,7.33 -16.97,10.99 -28.82,10.99 -13.84,0 -25.76,-5.04 -35.64,-15.03 -9.83,-10.07 -14.8,-22.44 -14.8,-37.01 0,-11.97 3.7,-21.66 11.12,-28.91 7.35,-7.41 16.99,-11.07 28.77,-11.07" /><path
         id="path56"
         style="fill:#ffffff;fill-opacity:1;fill-rule:nonzero;stroke:none"
         d="m 1078.78,1081.5 c 88.29,0 161.96,-34.21 220.9,-102.406 58.99,-68.344 88.42,-153.496 88.42,-255.672 C 1388.1,621.77 1358.67,537 1299.68,468.957 1240.74,400.91 1167.07,367 1078.78,367 990.375,367 916.547,400.91 857.125,468.957 797.715,537 768.016,621.77 768.016,723.422 c 0,102.176 29.699,187.328 89.109,255.672 59.422,68.196 133.25,102.406 221.655,102.406 z m 0,-642.852 c 68.49,0 125.6,27.004 171.58,81.094 45.9,54.09 68.87,121.981 68.87,203.68 0,81.172 -23.11,149.215 -69.19,203.98 -46.18,54.918 -103.26,82.298 -171.26,82.298 -68.92,0 -126.425,-27.157 -172.651,-81.473 -46.129,-54.313 -69.27,-122.508 -69.27,-204.805 0,-81.699 23.141,-149.59 69.27,-203.68 46.226,-54.09 103.731,-81.094 172.651,-81.094" /><path
         id="path58"
         style="fill:#100f0d;fill-opacity:1;fill-rule:nonzero;stroke:none"
         d="m 2210.89,1316.01 v -233.02 h 226.25 v -61.21 H 2210.89 V 603.766 c 0,-67.293 6.25,-111.555 18.82,-132.637 12.59,-21.156 46.33,-31.734 101.29,-31.734 42.15,0 91.16,11.48 147.36,34.363 v -71.797 c -56.72,-23.934 -112.19,-35.859 -166.59,-35.859 -53.23,0 -97.61,13.277 -133.32,39.761 -35.73,26.407 -53.57,63.164 -53.57,109.977 v 505.94 H 1907.5 l 69.71,61.21 h 147.67 v 167.3 l 58.83,65.72 h 27.18" /><path
         id="path60"
         style="fill:#ed1c24;fill-opacity:1;fill-rule:nonzero;stroke:none"
         d="m 2085.02,370.68 h -228.41 l 65.21,126.48 h -443.03 l 67.42,-126.48 h -229.77 l 279.38,708.34 h 210.68 z m -271.95,220.406 -111.01,304.957 -136.71,-387.18 z" /><path
         id="path62"
         style="fill:#ffffff;fill-opacity:1;fill-rule:nonzero;stroke:none"
         d="m 164.973,415.613 v 900.617 h 23.57 l 43.738,-65.79 0.129,-264.897 c 67.262,77.347 145.606,96.477 211.133,98.347 57.473,1.43 157.812,-29.03 209.996,-87.468 55.18,-61.817 90.91,-139.613 90.91,-241.715 0,-118.461 -30.922,-216.359 -95.324,-287.777 -64.414,-71.418 -153.523,-99.477 -260.32,-99.477 -70.075,0 -144.535,12.602 -223.832,48.16 z m 67.531,492.961 -1.32,-444.269 c 52.254,-22.133 102.261,-26.035 153.566,-26.035 81.594,0 165.574,24.832 218.949,83.875 46.91,43.96 77.246,136.308 79.102,226.785 4.949,94.75 -44.465,168.195 -65.438,192.5 -38.707,44.789 -87.547,78.77 -168.015,79.82 -76.973,1.05 -145.332,-20.93 -216.844,-112.676" /><path
         id="path64"
         style="fill:#ffffff;fill-opacity:1;fill-rule:nonzero;stroke:none"
         d="m 773.422,228.816 h 14.496 l -2.223,-16.73 c 12.887,12.977 27.489,19.578 44.082,19.578 15.133,0 27.578,-4.875 37.2,-14.629 9.711,-9.75 14.589,-22.281 14.589,-37.66 0,-17.703 -6.293,-32.93 -18.89,-45.609 -12.594,-12.758 -27.383,-19.059 -44.52,-19.059 -9.195,0 -17.375,1.949 -24.328,5.856 -7.004,3.972 -12.961,10.05 -17.816,18.304 l -8.348,-61.9686 h -14.766 z m 54.766,-10.277 c -9.153,0 -17.524,-2.101 -25.063,-6.453 -7.59,-4.352 -13.617,-10.578 -18.035,-18.606 -4.418,-8.179 -6.586,-17.027 -6.586,-26.558 0,-11.477 3.609,-20.856 10.906,-28.055 7.324,-7.281 16.735,-10.879 28.313,-10.879 13.691,0 25.379,4.95 35.097,14.852 9.711,9.828 14.59,21.984 14.59,36.308 0,11.856 -3.609,21.383 -10.836,28.586 -7.246,7.2 -16.719,10.805 -28.386,10.805" /><path
         id="path66"
         style="fill:#ffffff;fill-opacity:1;fill-rule:nonzero;stroke:none"
         d="m 917.297,271.648 h 13.941 L 910.488,117.48 h -14.031 l 20.84,154.168" /><path
         id="path68"
         style="fill:#ffffff;fill-opacity:1;fill-rule:nonzero;stroke:none"
         d="m 962.852,228.816 h 14.222 l -6.687,-46.589 c -1.977,-13.653 -2.996,-22.36 -2.996,-26.032 0,-8.254 2.586,-15.082 7.859,-20.257 5.203,-5.325 12.078,-7.95 20.625,-7.95 7.145,0 13.325,2.024 18.545,6.149 5.22,4.051 8.98,9.379 11.25,16.054 1.1,3.301 2.49,10.954 4.05,23.036 l 7.47,55.589 h 14.06 l -5.42,-42.168 c -2.56,-20.101 -5.32,-34.429 -8.18,-42.906 -2.88,-8.476 -8,-15.379 -15.4,-20.855 -7.37,-5.477 -16.4,-8.18 -27.066,-8.18 -12.075,0 -21.989,3.902 -29.723,11.781 -7.637,7.875 -11.543,17.703 -11.543,29.555 0,4.648 0.41,10.129 1.266,16.43 l 1.046,9.828 0.567,4.203 6.055,42.312" /><path
         id="path70"
         style="fill:#ffffff;fill-opacity:1;fill-rule:nonzero;stroke:none"
         d="m 1177.92,228.816 h 13.96 l -12.74,-94.152 c -2.1,-15.156 -4.57,-25.809 -7.49,-31.961 -4.03,-8.3241 -10.69,-15.2264 -20.02,-20.5507 -9.34,-5.4023 -20.35,-8.1054 -33.11,-8.1054 -12.5,0 -23.19,2.5508 -32.03,7.6523 -8.81,5.1016 -15.52,12.5274 -20.06,22.1328 l 12.79,4.648 c 7.71,-14.1011 20.87,-21.1519 39.3,-21.1519 9.71,0 18.21,1.9492 25.25,5.9219 7.16,4.0547 12.28,9.078 15.33,15.23 1.81,3.75 3.69,11.93 5.61,24.458 l 0.61,4.277 c -12.02,-13.129 -26.7,-19.735 -44.03,-19.735 -15.27,0 -27.67,4.805 -36.95,14.184 -9.36,9.301 -14.01,21.527 -14.01,36.531 0,10.953 2.81,21.383 8.52,31.063 5.65,9.75 13.5,17.555 23.51,23.48 9.88,5.926 20.03,8.926 30.28,8.926 8.57,0 16.43,-1.949 23.46,-5.777 7.08,-3.899 13.37,-9.977 18.84,-18.301 z m -42.39,-10.804 c -9.33,0 -17.97,-2.176 -25.97,-6.606 -8.04,-4.5 -14.15,-10.574 -18.55,-18.152 -4.42,-7.727 -6.59,-16.203 -6.59,-25.731 0,-10.804 3.51,-19.656 10.42,-26.41 6.91,-6.601 16.2,-9.976 27.87,-9.976 14.21,0 25.94,4.652 35.27,13.953 9.34,9.23 14.06,20.933 14.06,35.035 0,12.379 -3.82,21.832 -11.43,28.285 -7.64,6.375 -15.98,9.602 -25.08,9.602" /><path
         id="path72"
         style="fill:#ffffff;fill-opacity:1;fill-rule:nonzero;stroke:none"
         d="m 1279.4,228.816 h 13.52 L 1278.39,117.48 h -14.03 z m 11.22,45.758 c 3.17,0 5.86,-1.125 8.1,-3.371 2.25,-2.254 3.37,-4.957 3.37,-8.105 0,-3.227 -1.12,-5.926 -3.37,-8.102 -2.24,-2.25 -4.93,-3.375 -8.1,-3.375 -3.19,0 -5.91,1.125 -8.12,3.375 -2.17,2.176 -3.3,4.875 -3.3,8.102 0,3.148 1.13,5.851 3.3,8.105 2.21,2.246 4.93,3.371 8.12,3.371" /><path
         id="path74"
         style="fill:#ffffff;fill-opacity:1;fill-rule:nonzero;stroke:none"
         d="m 1324.09,228.816 h 13.76 l -2.29,-17.332 c 11.25,13.43 24.43,20.18 39.41,20.18 11.52,0 20.82,-3.527 27.87,-10.578 7.09,-7.051 10.57,-16.504 10.57,-28.508 0,-4.726 -0.75,-12.754 -2.31,-23.93 l -6.86,-51.168 h -14.01 l 6.91,51.168 c 1.46,10.801 2.19,18.903 2.19,24.004 0,7.879 -2.39,14.106 -7.08,18.911 -4.78,4.875 -10.93,7.199 -18.54,7.199 -7.54,0 -14.55,-1.949 -21.01,-5.852 -6.5,-3.902 -11.5,-9.152 -15.02,-15.754 -3.58,-6.676 -6.29,-17.179 -8.22,-31.508 l -6.38,-48.168 h -14.06 l 15.07,111.336" /><path
         id="path76"
         style="fill:#ffffff;fill-opacity:1;fill-rule:nonzero;stroke:none"
         d="m 1469.32,270.375 h 13.99 l -5.51,-41.559 h 22.4 l -1.64,-12.531 h -22.4 l -13.18,-98.805 h -14.33 l 13.38,98.805 h -19.08 l 1.75,12.531 h 19.01 l 5.61,41.559" /><path
         id="path78"
         style="fill:#ffffff;fill-opacity:1;fill-rule:nonzero;stroke:none"
         d="m 1572.98,231.664 c 9.43,0 18.11,-2.25 26.02,-6.824 7.93,-4.504 14.13,-10.805 18.52,-18.906 4.44,-8.102 6.67,-17.258 6.67,-27.383 0,-11.703 -2.86,-22.508 -8.47,-32.559 -5.68,-9.902 -13.3,-17.629 -22.82,-23.105 -9.54,-5.477 -20.33,-8.18 -32.39,-8.18 -14.93,0 -27.19,4.875 -36.87,14.707 -9.64,9.75 -14.43,22.129 -14.43,37.356 0,11.855 2.8,22.73 8.45,32.71 5.68,10.055 13.41,17.93 23.27,23.633 9.82,5.703 20.51,8.551 32.05,8.551 z m -0.37,-13.652 c -8.9,0 -17.23,-2.176 -24.98,-6.606 -7.86,-4.422 -13.87,-10.5 -18.07,-18.301 -4.17,-7.726 -6.27,-16.207 -6.27,-25.582 0,-11.707 3.64,-21.156 10.84,-28.507 7.25,-7.352 16.55,-11.028 28.04,-11.028 8.9,0 17.06,2.172 24.31,6.375 7.27,4.352 13.01,10.43 17.33,18.457 4.29,8.028 6.47,16.653 6.47,25.879 0,7.731 -1.62,14.555 -4.86,20.559 -3.17,5.847 -7.69,10.574 -13.62,13.801 -5.85,3.379 -12.25,4.953 -19.19,4.953" /><path
         id="path80"
         style="fill:#ffffff;fill-opacity:1;fill-rule:nonzero;stroke:none"
         d="m 1717.69,228.816 h 13.74 l -2.32,-17.332 c 11.33,13.43 24.45,20.18 39.47,20.18 11.54,0 20.81,-3.527 27.82,-10.578 7.05,-7.051 10.57,-16.504 10.57,-28.508 0,-4.726 -0.69,-12.754 -2.23,-23.93 l -6.9,-51.168 h -14.06 l 6.96,51.168 c 1.44,10.801 2.22,18.903 2.22,24.004 0,7.879 -2.4,14.106 -7.13,18.911 -4.71,4.875 -10.93,7.199 -18.58,7.199 -7.54,0 -14.52,-1.949 -20.98,-5.852 -6.45,-3.902 -11.47,-9.152 -15.01,-15.754 -3.64,-6.676 -6.33,-17.179 -8.21,-31.508 l -6.36,-48.168 h -14.04 l 15.04,111.336" /><path
         id="path82"
         style="fill:#ffffff;fill-opacity:1;fill-rule:nonzero;stroke:none"
         d="m 1842.55,228.816 h 13.52 L 1841.53,117.48 h -14.01 z m 11.28,45.758 c 3.15,0 5.81,-1.125 8.08,-3.371 2.16,-2.254 3.37,-4.957 3.37,-8.105 0,-3.227 -1.21,-5.926 -3.37,-8.102 -2.27,-2.25 -4.93,-3.375 -8.08,-3.375 -3.23,0 -5.94,1.125 -8.15,3.375 -2.2,2.176 -3.32,4.875 -3.32,8.102 0,3.148 1.12,5.851 3.32,8.105 2.21,2.246 4.92,3.371 8.15,3.371" /><path
         id="path84"
         style="fill:#ffffff;fill-opacity:1;fill-rule:nonzero;stroke:none"
         d="m 1881.56,228.816 h 14.3 l -1.93,-14.031 c 3.81,5.25 8.42,9.453 13.86,12.453 5.37,2.926 10.89,4.426 16.55,4.426 4.03,0 8.18,-0.976 12.6,-2.848 l -6.77,-13.128 c -3.56,1.425 -6.49,2.097 -8.93,2.097 -4.93,0 -9.83,-1.648 -14.7,-5.176 -4.8,-3.449 -8.8,-8.476 -11.83,-15.156 -2.98,-6.598 -5.56,-17.629 -7.66,-32.781 l -6.55,-47.192 h -14 l 15.06,111.336" /><path
         id="path86"
         style="fill:#ffffff;fill-opacity:1;fill-rule:nonzero;stroke:none"
         d="m 1936.66,228.816 h 14.77 l 28.09,-81.171 46.72,81.171 h 15.55 L 1977.7,117.48 h -2.65 l -38.39,111.336" /><path
         id="path88"
         style="fill:#ffffff;fill-opacity:1;fill-rule:nonzero;stroke:none"
         d="m 2161.15,117.48 h -14.43 l 2.18,16.809 c -12.81,-13.055 -27.58,-19.582 -44.08,-19.582 -15.06,0 -27.45,4.875 -37.15,14.555 -9.68,9.754 -14.56,22.281 -14.56,37.66 0,17.777 6.31,32.933 18.98,45.613 12.62,12.754 27.58,19.129 44.69,19.129 9.28,0 17.38,-1.949 24.4,-5.851 6.94,-3.825 12.87,-9.977 17.63,-18.157 l 2.53,21.16 h 14.8 z m -54.72,10.356 c 9.15,0 17.48,2.098 25.04,6.453 7.52,4.426 13.48,10.578 17.92,18.68 4.41,8.101 6.61,16.953 6.61,26.48 0,11.481 -3.64,20.934 -10.91,28.059 -7.25,7.203 -16.7,10.801 -28.31,10.801 -13.6,0 -25.31,-4.95 -35,-14.774 -9.71,-9.906 -14.55,-22.062 -14.55,-36.387 0,-11.777 3.64,-21.308 10.9,-28.433 7.26,-7.277 16.68,-10.879 28.3,-10.879" /><path
         id="path90"
         style="fill:#ffffff;fill-opacity:1;fill-rule:nonzero;stroke:none"
         d="m 2209.18,228.816 h 13.75 l -2.27,-17.332 c 11.27,13.43 24.43,20.18 39.43,20.18 11.48,0 20.83,-3.527 27.83,-10.578 7.05,-7.051 10.62,-16.504 10.62,-28.508 0,-4.726 -0.79,-12.754 -2.32,-23.93 l -6.91,-51.168 h -14.01 l 6.91,51.168 c 1.49,10.801 2.24,18.903 2.24,24.004 0,7.879 -2.43,14.106 -7.07,18.911 -4.76,4.875 -10.94,7.199 -18.56,7.199 -7.59,0 -14.59,-1.949 -20.98,-5.852 -6.54,-3.902 -11.54,-9.152 -15.11,-15.754 -3.54,-6.676 -6.28,-17.179 -8.17,-31.508 l -6.37,-48.168 h -14.04 l 15.03,111.336" /><path
         id="path92"
         style="fill:#ffffff;fill-opacity:1;fill-rule:nonzero;stroke:none"
         d="m 2431.77,117.48 h -14.39 l 2.21,16.809 c -12.84,-13.055 -27.58,-19.582 -44.13,-19.582 -15.06,0 -27.46,4.875 -37.22,14.555 -9.61,9.754 -14.54,22.281 -14.54,37.66 0,17.777 6.39,32.933 19.03,45.613 12.65,12.754 27.59,19.129 44.66,19.129 9.29,0 17.41,-1.949 24.42,-5.851 6.95,-3.825 12.85,-9.977 17.62,-18.157 l 2.55,21.16 h 14.82 z m -54.7,10.356 c 9.16,0 17.43,2.098 25.04,6.453 7.55,4.426 13.5,10.578 17.92,18.68 4.42,8.101 6.61,16.953 6.61,26.48 0,11.481 -3.63,20.934 -10.86,28.059 -7.3,7.203 -16.69,10.801 -28.33,10.801 -13.62,0 -25.34,-4.95 -35.05,-14.774 -9.67,-9.906 -14.55,-22.062 -14.55,-36.387 0,-11.777 3.64,-21.308 10.93,-28.433 7.24,-7.277 16.7,-10.879 28.29,-10.879" /><path
         id="path94"
         style="fill:#ffffff;fill-opacity:1;fill-rule:nonzero;stroke:none"
         d="m 2336.17,467.273 7.92,-87.976 c -16.28,-5.852 -30.92,-8.875 -43.69,-8.875 -21.01,0 -37.3,5.664 -48.96,17.18 -11.56,11.515 -19.7,26.437 -24.43,45.125 -4.73,18.695 -7.05,57.961 -7.05,117.808 V 889.25 h -42.91 v 77.031 h 42.91 v 145.379 l 58.11,59.84 V 966.281 h 58.1 V 889.25 h -58.1 V 544.875 c 0,-28.512 0.99,-46.82 3.08,-54.941 1.98,-8.118 5.28,-14.539 9.9,-19.446 4.63,-4.722 11.22,-7.172 19.81,-7.172 6.39,0 14.86,1.321 25.31,3.957" /></g></g></svg>