<?xml version="1.0" encoding="utf-8"?>
<!-- Generator: Adobe Illustrator 27.5.0, SVG Export Plug-In . SVG Version: 6.00 Build 0)  -->
<svg version="1.1" xmlns="http://www.w3.org/2000/svg" xmlns:xlink="http://www.w3.org/1999/xlink" x="0px" y="0px"
	 viewBox="0 0 500 500" style="enable-background:new 0 0 500 500;" xml:space="preserve">
<g id="Background_Complete">
	<g>
		<rect y="382.398" style="fill:#EBEBEB;" width="500" height="0.25"/>
		<rect x="52.459" y="391.922" style="fill:#EBEBEB;" width="16.061" height="0.25"/>
		<rect x="171.14" y="389.208" style="fill:#EBEBEB;" width="53.527" height="0.25"/>
		<rect x="69.521" y="401.208" style="fill:#EBEBEB;" width="36.254" height="0.25"/>
		<rect x="379.14" y="389.083" style="fill:#EBEBEB;" width="43.193" height="0.25"/>
		<rect x="431.237" y="389.083" style="fill:#EBEBEB;" width="6.333" height="0.25"/>
		<rect x="317" y="395.306" style="fill:#EBEBEB;" width="53.889" height="0.25"/>
		<path style="fill:#EBEBEB;" d="M237.014,337.8H43.915c-3.147,0-5.708-2.561-5.708-5.708V60.66c0-3.147,2.561-5.708,5.708-5.708
			h193.099c3.146,0,5.707,2.561,5.707,5.708v271.432C242.721,335.239,240.16,337.8,237.014,337.8z M43.915,55.203
			c-3.01,0-5.458,2.448-5.458,5.458v271.432c0,3.01,2.448,5.458,5.458,5.458h193.099c3.009,0,5.457-2.448,5.457-5.458V60.66
			c0-3.009-2.448-5.458-5.457-5.458H43.915z"/>
		<path style="fill:#EBEBEB;" d="M453.31,337.8H260.212c-3.147,0-5.707-2.561-5.707-5.708V60.66c0-3.147,2.561-5.708,5.707-5.708
			H453.31c3.148,0,5.708,2.561,5.708,5.708v271.432C459.019,335.239,456.458,337.8,453.31,337.8z M260.212,55.203
			c-3.009,0-5.457,2.448-5.457,5.458v271.432c0,3.01,2.448,5.458,5.457,5.458H453.31c3.01,0,5.458-2.448,5.458-5.458V60.66
			c0-3.009-2.448-5.458-5.458-5.458H260.212z"/>
	</g>
	<g>
		<g>
			<g>
				<g>
					<rect x="143.491" y="278.383" style="fill:#E6E6E6;" width="35.097" height="6.92"/>
					
						<rect x="77.29" y="101.68" transform="matrix(-1 -1.224647e-16 1.224647e-16 -1 161.0586 484.078)" style="fill:#E6E6E6;" width="6.479" height="280.719"/>
					
						<rect x="54.848" y="278.383" transform="matrix(-1 -1.224647e-16 1.224647e-16 -1 198.3391 563.6856)" style="fill:#F5F5F5;" width="88.643" height="6.92"/>
					<rect x="143.491" y="364.843" style="fill:#E6E6E6;" width="35.097" height="6.92"/>
					
						<rect x="54.848" y="364.843" transform="matrix(-1 -1.224647e-16 1.224647e-16 -1 198.3391 736.605)" style="fill:#F5F5F5;" width="88.643" height="6.92"/>
					<rect x="143.491" y="105.464" style="fill:#E6E6E6;" width="35.097" height="6.92"/>
					
						<rect x="54.848" y="105.464" transform="matrix(-1 -1.224647e-16 1.224647e-16 -1 198.3391 217.8468)" style="fill:#F5F5F5;" width="88.643" height="6.92"/>
					<rect x="143.491" y="191.923" style="fill:#E6E6E6;" width="35.097" height="6.92"/>
					
						<rect x="54.848" y="191.923" transform="matrix(-1 -1.224647e-16 1.224647e-16 -1 198.3391 390.7662)" style="fill:#F5F5F5;" width="88.643" height="6.92"/>
				</g>
			</g>
			
				<rect x="165.932" y="101.68" transform="matrix(-1 -1.224647e-16 1.224647e-16 -1 338.3436 484.078)" style="fill:#E6E6E6;" width="6.479" height="280.719"/>
			
				<rect x="137.011" y="101.68" transform="matrix(-1 -1.224647e-16 1.224647e-16 -1 280.5021 484.078)" style="fill:#F5F5F5;" width="6.479" height="280.719"/>
			
				<rect x="54.848" y="101.68" transform="matrix(-1 -1.224647e-16 1.224647e-16 -1 116.176 484.078)" style="fill:#F5F5F5;" width="6.479" height="280.719"/>
		</g>
		<g>
			<rect x="393.001" y="292.54" style="fill:#EBEBEB;" width="72.974" height="8.999"/>
			<polygon style="fill:#E0E0E0;" points="475,382.398 456.53,301.539 449.091,301.539 472.178,382.398 			"/>
			<polygon style="fill:#E0E0E0;" points="383.974,382.398 402.443,301.539 409.883,301.539 386.796,382.398 			"/>
			<polygon style="fill:#E0E0E0;" points="420.774,382.398 427.235,301.539 434.674,301.539 423.596,382.398 			"/>
		</g>
		<g>
			<rect x="279.235" y="292.54" style="fill:#EBEBEB;" width="72.974" height="8.999"/>
			<polygon style="fill:#E0E0E0;" points="361.234,382.398 342.764,301.539 335.325,301.539 358.412,382.398 			"/>
			<polygon style="fill:#E0E0E0;" points="270.208,382.398 288.677,301.539 296.116,301.539 273.03,382.398 			"/>
			<polygon style="fill:#E0E0E0;" points="307.008,382.398 313.469,301.539 320.908,301.539 309.83,382.398 			"/>
		</g>
		<rect x="212.152" y="141.234" style="fill:#F0F0F0;" width="213.202" height="8.046"/>
		
			<rect x="425.354" y="141.234" transform="matrix(-1 -1.224647e-16 1.224647e-16 -1 872.6875 290.514)" style="fill:#E0E0E0;" width="21.979" height="8.046"/>
		<g>
			<rect x="382.603" y="103.007" style="fill:#F5F5F5;" width="43.667" height="38.227"/>
			<rect x="382.603" y="100.178" style="fill:#E6E6E6;" width="43.667" height="2.829"/>
			<rect x="382.186" y="107.247" style="fill:#EBEBEB;" width="38.583" height="21.542"/>
		</g>
		<g>
			<rect x="236.057" y="122.652" style="fill:#F5F5F5;" width="65.732" height="18.582"/>
			<rect x="236.057" y="121.277" style="fill:#E6E6E6;" width="65.732" height="1.375"/>
			<rect x="235.429" y="124.713" style="fill:#EBEBEB;" width="58.08" height="10.471"/>
		</g>
		<g>
			<g>
				<rect x="344.137" y="117.312" style="fill:#F5F5F5;" width="31.505" height="23.922"/>
				<rect x="344.137" y="114.483" style="fill:#E6E6E6;" width="31.505" height="2.829"/>
				<rect x="343.837" y="121.553" style="fill:#FAFAFA;" width="27.837" height="14.447"/>
			</g>
			<path style="fill:#E0E0E0;" d="M357.119,114.483c-0.265,2.517-2.542,12.178,1.912,10.461c4.454-1.717,7.265-2.74,8.167,1.556
				s7.278-0.389,5.444-12.017C366.804,114.483,357.119,114.483,357.119,114.483z"/>
			<path style="fill:#E0E0E0;" d="M362.92,125.953c-4.664,0-3.667,3.491-1.278,2.495
				C364.031,127.453,364.642,125.953,362.92,125.953z"/>
		</g>
		<g>
			<rect x="71.317" y="137.736" style="fill:#F5F5F5;" width="37.84" height="54.188"/>
			<rect x="71.317" y="133.726" style="fill:#E6E6E6;" width="37.84" height="4.01"/>
			<rect x="70.956" y="143.747" style="fill:#EBEBEB;" width="33.435" height="30.535"/>
		</g>
		<g>
			<g>
				<rect x="93.162" y="244.474" style="fill:#F5F5F5;" width="27.301" height="33.909"/>
				<rect x="93.162" y="240.464" style="fill:#E6E6E6;" width="27.301" height="4.01"/>
				<rect x="92.901" y="250.485" style="fill:#FAFAFA;" width="24.122" height="20.479"/>
			</g>
		</g>
		<g>
			<polygon style="fill:#E0E0E0;" points="425.846,186.373 425.846,262.272 414.489,262.272 399.444,189.286 			"/>
			<path style="fill:#EBEBEB;" d="M420.089,192.785h-15.791c-3.212,0-6.097-1.911-7.351-4.868l-2.881-6.798
				c-1.048-2.472-0.789-5.285,0.694-7.523c1.482-2.239,3.971-3.576,6.656-3.576h18.673c4.402,0,7.983,3.582,7.983,7.984v6.798
				C428.073,189.204,424.491,192.785,420.089,192.785z M401.417,177.02c-0.46,0-0.711,0.276-0.82,0.44
				c-0.109,0.165-0.265,0.504-0.086,0.927l2.881,6.798c0.154,0.364,0.51,0.6,0.906,0.6h15.791c0.542,0,0.983-0.441,0.983-0.984
				v-6.798c0-0.542-0.441-0.984-0.983-0.984H401.417z"/>
		</g>
	</g>
</g>
<g id="Background_Simple" style="display:none;">
	<g style="display:inline;">
		<path style="fill:#407BFF;" d="M311.564,108.187c107.848,7.704,129.487,63.852,94.009,118.818
			c-17.227,26.69-43.693,46.025-74.033,55.439c-69.371,21.526-151.701,20.25-208.833-12.541
			c-25.495-15.104-42.751-36.478-52.664-60.67c-10.358-25.277-11.828-52.929-5.699-79.195
			c19.458-83.39,95.706-93.585,141.729-68.743C257.636,89.126,260.263,106.57,311.564,108.187z"/>
		<path style="opacity:0.9;fill:#FFFFFF;" d="M311.564,108.187c107.848,7.704,129.487,63.852,94.009,118.818
			c-17.227,26.69-43.693,46.025-74.033,55.439c-69.371,21.526-151.701,20.25-208.833-12.541
			c-25.495-15.104-42.751-36.478-52.664-60.67c-10.358-25.277-11.828-52.929-5.699-79.195
			c19.458-83.39,95.706-93.585,141.729-68.743C257.636,89.126,260.263,106.57,311.564,108.187z"/>
	</g>
</g>
<g id="Shadow_1_">
	<ellipse id="_x3C_Path_x3E__123_" style="fill:#F5F5F5;" cx="250" cy="416.238" rx="193.889" ry="11.323"/>
</g>
<g id="Obj_1">
</g>
<g id="Character_1_">
	<g>
		<path style="fill:#263238;" d="M285.457,91.871c-6.667,6.875,2.47,12.828,5.863,12.349
			C291.319,104.221,284.022,99.416,285.457,91.871z"/>
		<path style="fill:#263238;" d="M284.269,91.063c-4.664,8.364,5.701,11.753,8.855,10.414
			C293.125,101.477,284.834,98.723,284.269,91.063z"/>
		<path style="fill:#407BFF;" d="M302.223,289.33c7.224-42.621,10.014-96.125,10.014-96.125l-39.478,4.819
			c0,0,4.5,65.918,6.09,94.927c1.65,30.163,3.374,98.925,3.374,98.925h18.269C300.493,391.876,306.23,326.621,302.223,289.33z"/>
		<g>
			<path style="fill:#263238;" d="M298.958,403.896l1.561,8.504c0.162,0.882-0.538,1.674-1.436,1.674
				c-2.698,0-3.97-0.428-8.689-0.502c-5.518-0.087-10.128,0.603-16.599,0.502c-3.913-0.061-3.962-4.82-1.006-5.626
				c6.301-1.718,9.043-4.943,11.964-6.83c0.619-3.066-0.887-11.484-0.887-11.484l15.083,0.998
				C298.949,391.132,298.472,399.442,298.958,403.896z"/>
		</g>
		<path style="fill:#263238;" d="M368.833,404.375l-3.649-6.585c-1.758-4.162-4.368-12.14-4.368-12.14l-13.563,3.532
			c0,0,3.74,6.79,4.598,9.989c-2.086,2.426-4.889,7.864-10.729,9.185c-2.74,0.619-2.534,5.404,1.094,5.714
			c6.001,0.514,13.06-4.113,18.079-5.198c4.293-0.928,4.91-0.633,7.352-1.205C369.094,407.328,369.704,405.791,368.833,404.375z"/>
		<g>
			<path style="fill:#263238;" d="M282.985,394.289l16.803,0.264c0.691,0.011,1.28-0.498,1.37-1.183l0.727-5.55
				c0.104-0.798-0.502-1.511-1.306-1.536l-18.296-0.568c-0.838-0.026-1.499,0.704-1.391,1.535l0.765,5.854
				C281.745,393.774,282.31,394.278,282.985,394.289z"/>
			<path style="opacity:0.1;fill:#FFFFFF;" d="M282.985,394.289l16.803,0.264c0.691,0.011,1.28-0.498,1.37-1.183l0.727-5.55
				c0.104-0.798-0.502-1.511-1.306-1.536l-18.296-0.568c-0.838-0.026-1.499,0.704-1.391,1.535l0.765,5.854
				C281.745,393.774,282.31,394.278,282.985,394.289z"/>
		</g>
		<path style="fill:#407BFF;" d="M337.419,288.129c-6.313-42.859-4.762-76.242-14.042-96.283l-35.931,4.426
			c0,0,17.795,66.686,25.919,94.999c8.155,28.423,32.242,97.907,32.242,97.907l17.343-3.833
			C362.95,385.344,348.21,321.284,337.419,288.129z"/>
		<g>
			<path style="fill:#263238;" d="M346.449,392.252l16.417-3.57c0.708-0.154,1.16-0.833,1.027-1.544l-1.018-5.458
				c-0.141-0.756-0.885-1.257-1.64-1.105l-17.948,3.616c-0.855,0.172-1.313,1.089-0.94,1.88l2.549,5.412
				C345.171,392.068,345.82,392.389,346.449,392.252z"/>
			<path style="opacity:0.1;fill:#FFFFFF;" d="M346.449,392.252l16.417-3.57c0.708-0.154,1.16-0.833,1.027-1.544l-1.018-5.458
				c-0.141-0.756-0.885-1.257-1.64-1.105l-17.948,3.616c-0.855,0.172-1.313,1.089-0.94,1.88l2.549,5.412
				C345.171,392.068,345.82,392.389,346.449,392.252z"/>
		</g>
		<path style="fill:#FF8B7B;" d="M271.88,146.245c-0.644,6.462-1.532,12.749-2.669,19.118c-0.587,3.173-1.201,6.357-1.963,9.551
			c-0.766,3.205-1.566,6.403-2.761,9.763c-0.297,0.842-0.619,1.697-1.009,2.6c-0.371,0.892-0.841,1.817-1.308,2.66
			c-0.94,1.713-2.018,3.252-3.147,4.675c-2.247,2.86-4.738,5.288-7.318,7.496c-2.589,2.202-5.282,4.172-8.064,5.968
			c-2.802,1.803-5.588,3.41-8.686,4.865c-1.726,0.81-3.782,0.068-4.592-1.658c-0.669-1.426-0.279-3.077,0.85-4.065l0.123-0.106
			c4.523-3.952,9.089-8.195,12.924-12.61c1.933-2.202,3.68-4.488,5.107-6.765c0.714-1.14,1.303-2.292,1.792-3.393
			c0.471-1.087,0.825-2.164,1.19-3.521c0.701-2.664,1.303-5.631,1.826-8.603c0.506-2.991,1.008-6.022,1.437-9.079
			c0.888-6.093,1.709-12.32,2.499-18.402l0.009-0.071c0.492-3.793,3.967-6.469,7.76-5.977
			C269.601,139.173,272.246,142.537,271.88,146.245z"/>
		<g>
			<path style="fill:#407BFF;" d="M263.777,130.653c-9.479,7.361-11.514,28.997-11.514,28.997l23.576,7.304
				c0,0,3.184-6.962,5.304-18.696C283.454,135.477,272.595,123.806,263.777,130.653z"/>
		</g>
		<path style="fill:#407BFF;" d="M302.738,119.513c-9.721,0.681-20.606,2.509-29.747,5.166
			c-10.446,3.036-17.083,13.329-15.293,24.06c2.689,16.12,8.268,22.321,15.029,49.285c0.001,0.004,50.638-6.177,50.638-6.177
			c-0.569-13.882-6.537-29.126-8.063-61.143C314.988,124.113,309.319,119.052,302.738,119.513z"/>
		<path style="fill:#FF8B7B;" d="M286.664,100.588c1.349,7.307,5.001,16.921,7.977,20.574c-2.906,4.368-6.83,9.522-14.931,11.336
			s-7.931-3.998-6.438-7.329c7.257-3.245,6.104-6.327,3.215-11.155L286.664,100.588z"/>
		<path style="opacity:0.2;" d="M283.304,108.864c-0.271-0.95-0.616-1.847-0.96-2.578l-5.854,7.732
			c1.075,1.795,1.909,3.349,2.16,4.758C281.551,116.93,284.264,112.15,283.304,108.864z"/>
		<path style="fill:#263238;" d="M257.473,88.22c-5.87,4.377-4.277,5.562-4.277,5.562s-0.475,7.832,9.488,8.595
			C266.788,92.558,257.473,88.22,257.473,88.22z"/>
		<path style="fill:#FF8B7B;" d="M280.746,87.406c4.392,8.37,7.391,13.049,5.796,19.63c-2.399,9.899-14.671,12.157-21.493,5.249
			c-6.14-6.218-12.291-18.861-6.281-26.797C264.688,77.67,276.354,79.036,280.746,87.406z"/>
		<path style="opacity:0.2;" d="M271.085,98.3c0,0,1.352-2.197,3.484-2.474C272.948,97.546,271.085,98.3,271.085,98.3z"/>
		<path style="opacity:0.2;" d="M271.73,99.09c0,0,1.623-1.704,3.618-1.382C273.563,98.888,271.73,99.09,271.73,99.09z"/>
		<path style="fill:#263238;" d="M266.707,107.4c-1.376,0.85-4.619,4.764-3.452,7.474c2.994,0.25,12.889-4.963,14.99-6.964
			C277.695,105.409,270.41,105.113,266.707,107.4z"/>
		<path style="fill:#FF5652;" d="M264.331,100.762c0,0,1.189,4.602,0.882,7.451c1.855,0.233,3.396-1.582,3.396-1.582
			L264.331,100.762z"/>
		<path style="fill:#263238;" d="M288.68,83.186c-0.913-4.667-6.29-7.304-8.967-6.769c3.141-0.84,3.982-3.883,3.982-3.883
			s-3.638,2.797-7.044,2.043c0.464-1.507,0.101-3.493-1.942-4.783c0.804,1.768,0.522,4.348,0.522,4.348s-8.017-4.313-14.13-0.449
			c-6.261,3.957-7.087,12.218-11.116,14.681c-4.029,2.464-7.131-0.522-7.131-0.522s5.391,8.611,14.203,6.188
			c11.007-3.026,10.826-8.391,10.826-8.391s0.101,3.434-2.391,6.348c6.609-1.739,7.391-6.739,7.391-6.739
			c-1.71,5.985,5.792,9.918,10.618,10.681c1.657,2.356,3.012-1.928,3.012-1.928S289.842,89.123,288.68,83.186z"/>
		<path style="fill:#263238;" d="M245.332,85.331c7.666,5.739,12.41-4.08,11.504-7.384
			C256.836,77.946,252.998,85.794,245.332,85.331z"/>
		<path style="fill:#FF8B7B;" d="M288.531,94.724c-0.055,2.522-1.132,4.714-2.476,6.034c-2.022,1.985-4.279,0.127-4.76-2.812
			c-0.433-2.646,0.097-6.867,2.629-7.711C286.418,89.403,288.594,91.84,288.531,94.724z"/>
		<path style="fill:#263238;" d="M270.16,99.166c0.321,0.698,0.21,1.432-0.249,1.638c-0.459,0.206-1.091-0.193-1.413-0.891
			c-0.321-0.698-0.21-1.432,0.249-1.638C269.206,98.069,269.838,98.468,270.16,99.166z"/>
		<path style="fill:#263238;" d="M261.785,102.947c0.321,0.698,0.21,1.431-0.249,1.638c-0.459,0.206-1.091-0.193-1.413-0.891
			c-0.321-0.698-0.21-1.431,0.249-1.638C260.831,101.849,261.463,102.248,261.785,102.947z"/>
		<path style="fill:#263238;" d="M270.779,93.537c0.06-0.045,0.11-0.106,0.142-0.179c0.099-0.228-0.007-0.493-0.237-0.592
			c-2.304-0.993-4.062,0.13-4.136,0.178c-0.209,0.137-0.266,0.416-0.127,0.623c0.138,0.207,0.418,0.264,0.627,0.129l0,0
			c0.058-0.037,1.438-0.898,3.276-0.105C270.481,93.658,270.653,93.632,270.779,93.537z"/>
		<path style="fill:#263238;" d="M256.897,100.149c0.137-0.051,0.247-0.167,0.282-0.319c0.444-1.935,1.961-2.521,2.025-2.545
			c0.233-0.087,0.352-0.345,0.264-0.578c-0.088-0.232-0.346-0.352-0.58-0.268c-0.084,0.033-2.037,0.761-2.593,3.186
			c-0.055,0.242,0.097,0.484,0.341,0.541C256.726,100.187,256.816,100.179,256.897,100.149z"/>
		<path style="fill:#263238;" d="M268.271,191.026c-1.034-4.223-2.41-9.141-3.692-13.531c-1.984-6.794-2.713-13.908-2.016-20.952
			c1.128-11.389,0.041-24.804,5.098-29.858c0.379-0.363,1.486-1.014,2.481-1.33c0.362-0.115,0.666,0.294,0.456,0.611
			c-1.592,2.398-4.107,9.033-2.553,20.072c13.411-1.423,31.024-6.626,31.024-6.626s-2.438-12.162-0.741-19.674
			c0.054-0.239,0.265-0.407,0.51-0.418l2.306-0.105c0.338-0.015,0.6,0.276,0.548,0.611c-1.928,12.577,3.93,34.426,16.093,32.548
			c0.544,5.013,6.775,27.278,6.775,27.278s11.287,46.622,13.935,88.393c-23.287,13.006-69.174,7.671-69.174,7.671
			S270.872,201.644,268.271,191.026z"/>
		<path style="fill:#407BFF;" d="M370.161,226.975l-0.524-0.852c7.428-4.571,10.433-9.881,8.246-14.567
			c-2.67-5.721-13.277-9.552-24.231-5.903c-2.275,0.758-4.398,1.591-6.453,2.397c-8.431,3.309-15.713,6.168-27.58,1.637l0.356-0.934
			c11.504,4.391,18.619,1.6,26.858-1.633c2.066-0.811,4.202-1.649,6.501-2.415c11.625-3.872,22.545,0.197,25.454,6.428
			C381.215,216.333,378.07,222.107,370.161,226.975z"/>
		<path style="opacity:0.2;fill:#FFFFFF;" d="M272.366,161.805c4.721-0.689,18.024-2.773,27.701-5.679
			c1.05-0.315,2.03,0.696,1.649,1.724c-3.565,9.61-10.229,14.486-15.745,15.191c-8.322,1.063-12.916-5.989-14.6-9.318
			C270.959,162.91,271.464,161.937,272.366,161.805z"/>
		<g>
			<g>
				<path style="fill:#407BFF;" d="M312.713,195.302c-2.715-0.657-9.357-1.889-15.444-1.824c0,0,0.004-0.002,0.004-0.002
					c-7.65-0.002-16.419,1.797-13.411,4.777c0.754,0.747,1.21,1.686,1.135,2.679c-0.354,4.66,0.708,8.323,1.627,10.512
					c0.574,1.388,2.07,2.296,3.758,2.296h26.459c1.891,0,3.578-1.158,3.925-2.776C322.132,204.652,317.381,196.429,312.713,195.302z
					 M314.413,203.4c-6.378-0.564-18.884-1.137-21.409-1.137c-2.525,0-4.117-5.729,0.539-5.739
					c10.639-0.031,16.299,1.117,19.142,2.316C315.516,200.048,320.791,203.963,314.413,203.4z"/>
				<path style="opacity:0.4;fill:#FFFFFF;" d="M312.713,195.302c-2.715-0.657-9.357-1.889-15.444-1.824
					c0,0,0.004-0.002,0.004-0.002c-7.65-0.002-16.419,1.797-13.411,4.777c0.754,0.747,1.21,1.686,1.135,2.679
					c-0.354,4.66,0.708,8.323,1.627,10.512c0.574,1.388,2.07,2.296,3.758,2.296h26.459c1.891,0,3.578-1.158,3.925-2.776
					C322.132,204.652,317.381,196.429,312.713,195.302z M314.413,203.4c-6.378-0.564-18.884-1.137-21.409-1.137
					c-2.525,0-4.117-5.729,0.539-5.739c10.639-0.031,16.299,1.117,19.142,2.316C315.516,200.048,320.791,203.963,314.413,203.4z"/>
			</g>
			<path style="fill:#407BFF;" d="M318.581,216.172h-31.395c-0.669,0-1.216-0.547-1.216-1.216l0,0c0-0.669,0.547-1.216,1.216-1.216
				h31.395c0.669,0,1.216,0.547,1.216,1.216l0,0C319.797,215.625,319.249,216.172,318.581,216.172z"/>
			<g>
				<path style="fill:#407BFF;" d="M306.271,205.578H291.67c-0.217,0-0.395-0.178-0.395-0.395v-0.007
					c0-0.217,0.178-0.395,0.395-0.395h14.601c0.217,0,0.395,0.178,0.395,0.395v0.007C306.666,205.4,306.488,205.578,306.271,205.578
					z"/>
				<path style="fill:#407BFF;" d="M306.271,207.399H291.67c-0.217,0-0.395-0.178-0.395-0.395v-0.007
					c0-0.217,0.178-0.395,0.395-0.395h14.601c0.217,0,0.395,0.178,0.395,0.395v0.007
					C306.666,207.221,306.488,207.399,306.271,207.399z"/>
				<path style="fill:#407BFF;" d="M306.271,209.22H291.67c-0.217,0-0.395-0.178-0.395-0.395v-0.007
					c0-0.217,0.178-0.395,0.395-0.395h14.601c0.217,0,0.395,0.178,0.395,0.395v0.007C306.666,209.043,306.488,209.22,306.271,209.22
					z"/>
				<path style="fill:#407BFF;" d="M306.271,211.042H291.67c-0.217,0-0.395-0.178-0.395-0.395v-0.007
					c0-0.217,0.178-0.395,0.395-0.395h14.601c0.217,0,0.395,0.178,0.395,0.395v0.007
					C306.666,210.864,306.488,211.042,306.271,211.042z"/>
			</g>
			<polygon style="fill:#FFFFFF;" points="317.71,216.172 288.057,216.172 287.014,217.896 318.753,217.896 			"/>
		</g>
		<path style="fill:#407BFF;" d="M231.767,205.738l-5.943,2.894c-2.167,1.056-4.123,2.5-5.768,4.262l-1.432,1.533
			c-0.718,0.768-0.394,2.258,0.673,3.094l3.925,3.077c0.654,0.512,1.434,0.647,2.006,0.346l3.724-1.96c0,0,7.948-2.802,6.739-9.238
			L231.767,205.738z"/>
		<path style="fill:#407BFF;" d="M227.787,207.676c0,0,5.36-2.417,8.574-6.069c3.957,3.957,5.87,7.913,5.957,9.391
			c-3.652,1.391-6.565,2.391-8.391,2.956C232.1,214.52,227.7,212.154,227.787,207.676z"/>
		<g>
			<path style="fill:#FF8B7B;" d="M317.301,129.197c0.715,0.674,1.244,1.2,1.842,1.798c0.58,0.58,1.136,1.174,1.692,1.766
				c1.112,1.183,2.179,2.397,3.226,3.631c2.096,2.465,4.069,5.04,5.941,7.713c3.711,5.36,7.02,11.157,9.317,17.671
				c0.274,0.823,0.555,1.638,0.791,2.484l0.184,0.629l0.094,0.329l0.124,0.497c0.163,0.659,0.276,1.349,0.334,2.044
				c0.273,2.809-0.474,5.586-1.57,7.659c-2.247,4.2-5.27,6.508-8.139,8.513c-2.923,1.942-5.901,3.416-8.923,4.648
				c-3.045,1.234-6.023,2.218-9.284,2.977c-1.857,0.432-3.713-0.723-4.145-2.58c-0.354-1.52,0.356-3.04,1.644-3.778l0.163-0.092
				c4.983-2.851,10.156-6.046,14.029-9.613c1.911-1.737,3.483-3.749,3.896-5.102c0.214-0.681,0.122-1.011,0.037-1.247
				c-0.023-0.065-0.051-0.129-0.094-0.205l-0.026-0.057l-0.083-0.216l-0.176-0.459c-0.221-0.612-0.493-1.223-0.749-1.833
				c-2.163-4.882-5.187-9.661-8.608-14.213c-1.703-2.286-3.522-4.511-5.389-6.699c-0.936-1.092-1.896-2.165-2.857-3.228l-1.452-1.57
				l-1.389-1.455l-0.186-0.195c-2.64-2.766-2.539-7.148,0.227-9.788C310.443,126.675,314.64,126.697,317.301,129.197z"/>
			<g>
				<path style="fill:#407BFF;" d="M303.987,119.493c16.116-0.56,25.847,17.441,25.847,17.441l-13.852,17.603
					c0,0-6.951-2.322-11.635-13.287C302.111,136.013,300.905,120.23,303.987,119.493z"/>
			</g>
			<path style="fill:#407BFF;" d="M312.658,194.21c0,0,7.268-2.051,11.902-3.532c-2.04-5.21-7.546-9.064-8.708-9.982
				c-3.233,2.196-7.404,5.198-8.653,6.645C305.949,188.787,308.52,192.496,312.658,194.21z"/>
			<path style="fill:#407BFF;" d="M315.495,187.363l-5.183-2.639l-3.427,2.356c-2.853,1.962-5.218,4.482-6.932,7.388l-0.335,0.568
				c-0.905,1.534-0.285,3.476,1.374,4.304l3.642,1.816c1.45,0.723,3.237,0.358,4.222-0.863l2.908-3.602
				C311.765,196.69,318.159,191.056,315.495,187.363z"/>
		</g>
		<path style="opacity:0.4;fill:#407BFF;" d="M275.539,96.367c1.462,2.972,0.295,6.508-2.585,7.876
			c-1.328,0.631-3.187,1.202-5.392,0.573c-1.253-0.357-2.301-0.371-2.364,0.923c-0.042,0.873-0.349,1.964-1.413,2.386
			c-2.374,0.943-5.404-0.173-6.963-3.214c-0.5-0.974-0.925-2.516-0.408-3.335l17.029-7.565
			C274.314,94.578,275.053,95.386,275.539,96.367z"/>
		<path style="fill:#263238;" d="M278.934,91.897l-22.704,10.784c-0.332,0.158-0.73,0.017-0.888-0.316l0,0
			c-0.158-0.332-0.016-0.73,0.316-0.888l22.704-10.784c0.332-0.158,0.73-0.016,0.888,0.316l0,0
			C279.408,91.342,279.267,91.74,278.934,91.897z"/>
	</g>
</g>
<g id="Desk">
	<g>
		<g>
			<rect x="211.572" y="263.491" style="fill:#407BFF;" width="5.899" height="152.583"/>
			<rect x="211.572" y="263.491" style="opacity:0.1;fill:#FFFFFF;" width="5.899" height="152.583"/>
		</g>
		<rect x="138.419" y="223.129" style="fill:#407BFF;" width="253.915" height="13.815"/>
		<g>
			<rect x="148.566" y="236.943" style="fill:#407BFF;" width="233.62" height="26.548"/>
			<rect x="148.566" y="236.943" style="opacity:0.3;fill:#FFFFFF;" width="233.62" height="26.548"/>
		</g>
		<g>
			<rect x="150.1" y="310.923" style="fill:#407BFF;" width="230.553" height="20.53"/>
			<rect x="150.1" y="310.923" style="opacity:0.3;fill:#FFFFFF;" width="230.553" height="20.53"/>
		</g>
		<g>
			<rect x="148.566" y="263.491" style="fill:#407BFF;" width="5.899" height="152.583"/>
			<rect x="148.566" y="263.491" style="opacity:0.3;fill:#FFFFFF;" width="5.899" height="152.583"/>
		</g>
		<g>
			<rect x="313.281" y="263.491" style="fill:#407BFF;" width="5.899" height="152.583"/>
			<rect x="313.281" y="263.491" style="opacity:0.3;fill:#FFFFFF;" width="5.899" height="152.583"/>
		</g>
		<g>
			<rect x="376.287" y="263.491" style="fill:#407BFF;" width="5.899" height="152.583"/>
			<rect x="376.287" y="263.491" style="opacity:0.1;fill:#FFFFFF;" width="5.899" height="152.583"/>
		</g>
		<rect x="327.146" y="223.129" style="opacity:0.3;" width="65.188" height="13.815"/>
		<g>
			<rect x="160.447" y="217.896" style="fill:#407BFF;" width="173.393" height="5.233"/>
			<rect x="160.447" y="217.896" style="opacity:0.7;fill:#FFFFFF;" width="173.393" height="5.233"/>
		</g>
		<rect x="298.686" y="217.896" style="opacity:0.3;fill:#407BFF;" width="35.154" height="5.233"/>
		<rect x="319.18" y="236.943" style="opacity:0.7;fill:#407BFF;" width="63.006" height="26.548"/>
		<rect x="319.18" y="310.923" style="opacity:0.7;fill:#407BFF;" width="57.107" height="20.53"/>
	</g>
</g>
<g id="Boards">
	<g>
		<rect x="163.719" y="223.129" style="opacity:0.2;" width="21.725" height="40.362"/>
		<g>
			<g>
				<polygon style="fill:#407BFF;" points="191.049,135.935 156.266,135.935 138.419,418.927 173.202,418.927 				"/>
				<polygon style="opacity:0.7;fill:#FFFFFF;" points="191.049,135.935 156.266,135.935 138.419,418.927 173.202,418.927 				"/>
			</g>
			<polygon style="opacity:0.3;fill:#407BFF;" points="191.049,135.935 186.875,135.935 169.028,418.927 173.202,418.927 			"/>
			<polygon style="opacity:0.2;fill:#407BFF;" points="155.912,193.124 152.659,193.124 138.419,418.927 151.94,418.927 			"/>
			<path style="opacity:0.1;fill:#407BFF;" d="M153.461,413.469c-2.438,0-4.677-1.063-6.165-3.015
				c-1.299-1.705-2.27-3.671-2.807-5.686c-1.641-6.158-0.43-12.764,0.742-19.153l0.308-1.689
				c4.384-24.355,4.487-49.329,4.587-73.481c0.095-22.781,0.192-46.337,3.872-69.39c0.017-0.108,0.07-0.208,0.15-0.284
				c1.422-1.349,3.702-0.94,4.939,0.289c1.204,1.197,1.62,2.924,1.916,4.449c2.076,10.699,1.096,21.96,0.147,32.851
				c-0.273,3.143-0.557,6.393-0.76,9.572c-0.73,11.386-0.501,22.959-0.279,34.15c0.302,15.262,0.615,31.044-1.502,46.576
				c-0.233,1.708-0.495,3.419-0.757,5.131c-1.109,7.239-2.256,14.723-1.049,21.919c0.376,2.243,0.373,4.415-0.009,6.456
				c-0.379,2.026-2.13,2.893-3.664,2.701c-1.37-0.171-2.697-1.212-2.574-3.151l3.705-58.283c1.017-15.985,2.067-32.515-1.446-48.157
				c-0.061-0.27,0.109-0.537,0.379-0.597c0.266-0.062,0.536,0.109,0.597,0.378c3.545,15.782,2.489,32.384,1.468,48.44l-3.706,58.283
				c-0.088,1.379,0.861,1.991,1.7,2.096c1.035,0.13,2.278-0.408,2.556-1.893c0.361-1.925,0.362-3.98,0.006-6.107
				c-1.233-7.354-0.074-14.92,1.047-22.237c0.261-1.706,0.522-3.412,0.754-5.114c2.106-15.454,1.795-31.197,1.493-46.421
				c-0.222-11.212-0.452-22.806,0.281-34.234c0.205-3.191,0.488-6.446,0.762-9.595c0.942-10.822,1.916-22.012-0.133-32.574
				c-0.268-1.379-0.637-2.933-1.639-3.93c-0.85-0.845-2.426-1.182-3.424-0.379c-3.64,22.921-3.737,46.374-3.831,69.059
				c-0.1,24.195-0.204,49.213-4.603,73.654l-0.309,1.692c-1.151,6.28-2.342,12.774-0.759,18.715
				c0.504,1.889,1.416,3.735,2.636,5.337c1.739,2.282,4.544,3.151,7.5,2.321c3.305-0.926,5.665-3.661,6.013-6.966
				c0.371-3.533,0.443-7.193,0.507-10.422l0.9-45.241c0.4-20.122,0.814-40.929,0.894-61.376c0.074-19.191-0.144-38.629-0.649-57.775
				c-0.04-1.505-0.085-3.21-0.692-4.627c-0.311-0.724-0.759-1.371-1.233-2.056c-0.458-0.661-0.932-1.345-1.278-2.112
				c-1.146-2.538-0.705-5.401-0.278-8.17c0.21-1.361,0.427-2.769,0.447-4.105c0.047-3.124-0.947-5.997-2.001-9.039
				c-0.883-2.551-1.797-5.19-2.022-7.968c-0.36-4.456,1.063-8.876,2.439-13.151c1.042-3.238,2.12-6.586,2.408-9.912
				c0.248-2.875-0.092-5.787-0.42-8.603c-0.315-2.702-0.642-5.497-0.463-8.301c0.39-6.099,4.323-12.66,10.231-13.082
				c2.595-0.186,5.079,1.145,6.642,3.56c1.613,2.492,1.812,5.536,0.518,7.944c-0.131,0.243-0.434,0.334-0.677,0.204
				c-0.243-0.131-0.335-0.434-0.204-0.677c1.122-2.086,0.939-4.74-0.477-6.927c-1.362-2.104-3.498-3.269-5.731-3.106
				c-5.292,0.378-8.95,6.601-9.304,12.149c-0.173,2.714,0.147,5.463,0.458,8.121c0.334,2.866,0.68,5.829,0.423,8.805
				c-0.297,3.439-1.393,6.842-2.452,10.133c-1.408,4.374-2.738,8.506-2.394,12.764c0.214,2.652,1.107,5.229,1.97,7.721
				c1.035,2.99,2.105,6.081,2.056,9.381c-0.021,1.405-0.244,2.847-0.458,4.242c-0.423,2.746-0.823,5.339,0.201,7.607
				c0.309,0.684,0.736,1.301,1.188,1.954c0.482,0.696,0.98,1.415,1.331,2.232c0.683,1.593,0.73,3.4,0.773,4.995
				c0.505,19.156,0.723,38.605,0.649,57.805c-0.08,20.456-0.494,41.266-0.894,61.392l-0.9,45.241
				c-0.064,3.249-0.137,6.931-0.513,10.507c-0.39,3.716-3.035,6.787-6.737,7.825C155.053,413.359,154.247,413.469,153.461,413.469z"
				/>
			<path style="opacity:0.1;fill:#407BFF;" d="M172.741,266.793c-1.187,0-2.454-0.698-2.732-2.306
				c-1.53-8.818-1.194-17.925-0.638-28.061l0.008-0.145c0.239-4.365,0.487-8.879-0.176-13.173c-0.317-2.051-0.85-4.096-1.365-6.072
				c-0.292-1.119-0.583-2.238-0.84-3.366c-0.98-4.302-1.463-8.774-1.93-13.099l-1.454-13.474c-0.449-4.157-1.063-9.851,1.632-14.424
				c0.642-1.088,1.348-1.68,2.161-1.81c1.347-0.218,2.348,0.966,2.678,1.354c3.42,4.022,5.075,9.915,4.919,17.515
				c-0.058,2.824-0.333,5.691-0.6,8.463c-0.317,3.303-0.645,6.719-0.602,10.054c0.003,0.276-0.217,0.503-0.494,0.507
				c-0.309-0.017-0.503-0.218-0.506-0.493c-0.044-3.39,0.287-6.833,0.606-10.162c0.264-2.754,0.538-5.601,0.595-8.388
				c0.151-7.349-1.423-13.017-4.68-16.847c-0.653-0.768-1.229-1.1-1.758-1.015c-0.493,0.079-0.983,0.526-1.457,1.33
				c-2.333,3.959-2.041,8.791-1.499,13.809l1.454,13.474c0.463,4.296,0.943,8.739,1.91,12.984c0.255,1.118,0.544,2.227,0.833,3.336
				c0.521,2.001,1.061,4.07,1.386,6.172c0.679,4.397,0.429,8.964,0.187,13.381l-0.008,0.145
				c-0.552,10.074-0.886,19.121,0.625,27.835c0.199,1.151,1.089,1.519,1.858,1.474c0.917-0.051,1.939-0.699,2.02-2.005
				c0.268-4.364-0.154-8.899-0.563-13.284c-0.172-1.846-0.35-3.756-0.473-5.619c-0.884-13.427,1.131-27.152,3.08-40.424
				c1.119-7.62,2.275-15.499,2.872-23.237c0.22-2.851,0.322-5.236,0.107-7.614c-0.33-3.652-1.438-7.189-2.509-10.61
				c-0.092-0.292-0.208-0.599-0.373-0.652c-0.095-0.031-0.131-0.012-0.151-0.002c-0.271,0.14-0.52,0.931-0.685,1.455
				c-0.075,0.239-0.148,0.471-0.226,0.678c-0.6,1.6-2.52,2.303-3.952,2.036c-1.28-0.238-2.46-1.101-3.411-2.493
				c-1.817-2.66-2.332-6.417-1.378-10.049c0.811-3.092,2.667-6.223,5.368-9.055c0.148-0.154,0.374-0.198,0.567-0.111
				c1.541,0.693,2.307,2.595,1.707,4.241c-0.095,0.26-0.382,0.393-0.641,0.299c-0.259-0.094-0.393-0.382-0.298-0.641
				c0.375-1.029-0.023-2.238-0.874-2.816c-2.441,2.634-4.119,5.51-4.861,8.338c-0.881,3.356-0.418,6.807,1.238,9.232
				c0.556,0.815,1.488,1.836,2.768,2.074c1.044,0.193,2.428-0.324,2.833-1.404c0.072-0.191,0.139-0.406,0.209-0.627
				c0.265-0.842,0.539-1.712,1.18-2.043c0.278-0.144,0.596-0.165,0.917-0.061c0.68,0.219,0.909,0.952,1.02,1.305
				c1.087,3.471,2.211,7.06,2.551,10.819c0.221,2.447,0.117,4.88-0.107,7.78c-0.599,7.773-1.758,15.669-2.879,23.306
				c-1.941,13.221-3.948,26.892-3.071,40.213c0.121,1.85,0.299,3.752,0.47,5.592c0.412,4.423,0.838,8.997,0.565,13.438
				c-0.113,1.83-1.576,2.866-2.962,2.942C172.852,266.791,172.797,266.793,172.741,266.793z"/>
			<path style="opacity:0.1;fill:#407BFF;" d="M168.694,392.767c-0.228,0-0.434-0.157-0.487-0.389
				c-1.106-4.859-2.249-9.884-2.61-15.152c-0.234-3.425-0.146-6.848,0.059-10.934c0.552-10.979,1.664-22.152,2.739-32.957
				c1.864-18.737,3.793-38.112,2.831-56.945c-0.014-0.276,0.198-0.511,0.474-0.525c0.266-0.016,0.511,0.198,0.525,0.474
				c0.965,18.908-0.967,38.321-2.835,57.095c-1.074,10.793-2.184,21.954-2.735,32.908c-0.204,4.05-0.292,7.439-0.06,10.815
				c0.355,5.191,1.49,10.177,2.586,14.999c0.062,0.269-0.107,0.537-0.376,0.598C168.769,392.763,168.731,392.767,168.694,392.767z"
				/>
		</g>
		<g>
			<g>
				<polygon style="fill:#407BFF;" points="160.516,180.695 117.617,180.695 89.398,420 132.297,420 				"/>
				<polygon style="opacity:0.7;fill:#FFFFFF;" points="160.516,180.695 117.617,180.695 89.398,420 132.297,420 				"/>
			</g>
			<polygon style="opacity:0.3;fill:#407BFF;" points="160.516,180.695 155.368,180.695 127.149,420 132.297,420 			"/>
			<path style="opacity:0.1;fill:#407BFF;" d="M108.318,415.463c-0.194,0-0.388-0.005-0.585-0.014
				c-4.168-0.207-6.636-2.131-7.972-3.709c-1.778-2.101-2.619-4.84-2.307-7.516c0.279-2.395,1.182-4.768,2.054-7.064
				c0.901-2.37,1.833-4.82,2.034-7.224c0.233-2.775-0.498-5.588-1.204-8.309c-0.946-3.645-1.925-7.414-0.671-11.238
				c0.777-2.368,2.376-4.605,3.922-6.768c1.752-2.449,3.563-4.982,4.052-7.59c0.208-1.11,0.191-2.289,0.174-3.43
				c-0.035-2.374-0.072-4.83,1.818-7.006c0.561-0.646,1.263-1.221,1.942-1.778c0.71-0.582,1.381-1.132,1.895-1.747
				c0.989-1.185,1.328-2.549,1.656-3.868c4.021-16.191,7.74-32.626,11.053-48.848c3.529-17.282,6.71-34.87,9.788-51.88l6.923-38.274
				c0.494-2.726,1.053-5.816,1.222-8.788c0.144-2.546-1.9-4.029-3.132-4.685c-3.322-1.771-8.996-2.033-12.967,0.972
				c-1.797,1.36-3.252,2.923-4.208,4.519c-2.984,4.983-2.669,10.444-2.365,15.725l0.08,1.432c1.088,20.695-3.227,41.863-7.4,62.335
				c-3.901,19.135-7.934,38.918-7.531,58.242c1.144,0.654,3.269,0.359,4.531-0.395c1.438-0.857,2.17-2.171,2.743-3.334
				c4.39-8.905,5.173-18.351,5.93-27.486c0.221-2.663,0.449-5.417,0.764-8.117c1.126-9.676,3.468-19.485,5.733-28.972
				c3.072-12.863,6.248-26.164,6.393-39.21c0.016-1.438-0.003-2.879-0.023-4.32c-0.085-6.209-0.172-12.629,2.67-18.882
				c0.805-1.772,1.163-3.479,1.062-5.073c-0.066-1.055-1.313-1.463-2.359-1.491c-1.445-0.044-3.032,0.577-3.174,1.794l-5.775,49.286
				c-1.592,13.594-3.239,27.65-10.426,41.021c-0.131,0.243-0.435,0.334-0.677,0.204c-0.243-0.131-0.335-0.434-0.204-0.677
				c7.097-13.203,8.732-27.163,10.314-40.664l5.775-49.286c0.214-1.826,2.292-2.716,4.194-2.677
				c1.934,0.052,3.241,1.005,3.331,2.427c0.111,1.759-0.276,3.626-1.15,5.55c-2.75,6.05-2.664,12.356-2.581,18.455
				c0.02,1.45,0.04,2.899,0.023,4.345c-0.146,13.157-3.336,26.514-6.42,39.43c-2.258,9.458-4.594,19.238-5.713,28.855
				c-0.312,2.684-0.54,5.429-0.76,8.084c-0.765,9.228-1.557,18.77-6.03,27.845c-0.636,1.292-1.456,2.754-3.128,3.751
				c-1.648,0.983-4.387,1.301-5.838,0.208c-0.122-0.092-0.196-0.235-0.199-0.388c-0.447-19.519,3.616-39.45,7.545-58.725
				c4.161-20.41,8.463-41.516,7.381-62.083l-0.08-1.427c-0.313-5.432-0.636-11.049,2.505-16.296
				c1.021-1.705,2.563-3.365,4.462-4.802c4.302-3.255,10.445-2.974,14.041-1.057c2.491,1.328,3.79,3.325,3.66,5.624
				c-0.172,3.034-0.737,6.155-1.235,8.91l-6.92,38.257c-3.081,17.032-6.264,34.626-9.796,51.919
				c-3.316,16.236-7.038,32.685-11.062,48.889c-0.338,1.362-0.722,2.906-1.859,4.268c-0.574,0.688-1.313,1.294-2.029,1.88
				c-0.647,0.53-1.316,1.078-1.821,1.66c-1.639,1.887-1.607,4.048-1.573,6.335c0.018,1.19,0.036,2.421-0.191,3.629
				c-0.53,2.825-2.406,5.449-4.221,7.987c-1.502,2.102-3.057,4.275-3.786,6.498c-1.163,3.545-0.263,7.008,0.688,10.675
				c0.728,2.801,1.479,5.698,1.232,8.643c-0.213,2.543-1.17,5.061-2.096,7.495c-0.851,2.238-1.73,4.553-1.996,6.825
				c-0.281,2.402,0.477,4.864,2.077,6.754c1.208,1.427,3.448,3.168,7.259,3.356c4.208,0.211,7.994-2.155,9.42-4.485
				c0.588-0.961,1.114-2.413,0.275-3.873c-0.138-0.24-0.055-0.545,0.185-0.683c0.24-0.138,0.545-0.055,0.683,0.185
				c0.845,1.471,0.742,3.209-0.29,4.893C116.508,413.015,112.713,415.463,108.318,415.463z"/>
			<path style="opacity:0.1;fill:#407BFF;" d="M111.832,410.801c-0.117,0-0.232-0.041-0.323-0.118
				c-2.858-2.421-4.611-5.107-5.071-7.769c-0.542-3.134,0.766-6.357,3.498-8.622c0.962-0.798,2.519-1.8,4.474-2.043
				c1.801-0.224,3.94,0.385,4.414,1.791c0.061,0.18,0.112,0.383,0.163,0.591c0.262,1.05,0.417,1.24,0.905,1.136
				c0.301-0.064,0.492-0.274,0.72-0.616c1.924-2.886,3.914-5.871,4.964-8.944c0.681-1.994,0.976-3.999,1.21-6.396
				c0.637-6.533,0.609-13.191,0.582-19.629c-0.048-11.239-0.097-22.86,3.385-34.242c0.482-1.578,1.041-3.194,1.582-4.756
				c1.279-3.7,2.602-7.526,3.043-11.197c0.109-0.904-0.848-1.277-1.265-1.395c-1.342-0.381-3.145-0.002-3.687,1.17
				c-3.402,7.35-4.593,14.986-5.698,23.488l-0.015,0.119c-0.487,3.749-0.99,7.625-2.618,11.366c-0.776,1.783-1.811,3.536-2.811,5.23
				c-0.553,0.937-1.105,1.874-1.618,2.819c-1.944,3.586-3.321,7.336-4.653,10.962l-4.185,11.394
				c-1.599,4.353-2.749,8.222-0.624,11.493c0.442,0.681,0.946,1.031,1.588,1.103c0.742,0.083,1.592-0.217,2.607-0.917
				c4.701-3.242,7.648-8.021,8.76-14.206c0.422-2.345,0.59-4.747,0.752-7.07c0.197-2.823,0.401-5.743,1.061-8.625
				c0.062-0.269,0.33-0.438,0.599-0.376c0.269,0.062,0.437,0.329,0.375,0.599c-0.642,2.805-0.843,5.686-1.038,8.471
				c-0.164,2.349-0.334,4.779-0.766,7.177c-1.161,6.457-4.249,11.453-9.177,14.852c-1.222,0.843-2.299,1.198-3.286,1.087
				c-0.936-0.105-1.715-0.627-2.315-1.552c-2.57-3.956-0.781-8.826,0.525-12.382l4.185-11.394c1.344-3.66,2.733-7.445,4.712-11.094
				c0.518-0.956,1.077-1.903,1.636-2.85c0.984-1.669,2.002-3.394,2.754-5.121c1.572-3.611,2.065-7.416,2.544-11.095l0.016-0.119
				c1.115-8.585,2.319-16.3,5.782-23.779c0.781-1.689,3.135-2.205,4.867-1.712c1.361,0.387,2.122,1.336,1.985,2.477
				c-0.455,3.777-1.795,7.654-3.091,11.404c-0.537,1.554-1.093,3.161-1.57,4.722c-3.437,11.237-3.388,22.781-3.341,33.946
				c0.027,6.463,0.055,13.147-0.587,19.73c-0.24,2.466-0.546,4.536-1.259,6.622c-1.093,3.197-3.119,6.237-5.079,9.176
				c-0.19,0.285-0.586,0.879-1.345,1.04c-1.527,0.324-1.891-1.105-2.082-1.872c-0.045-0.18-0.088-0.357-0.141-0.513
				c-0.265-0.784-1.826-1.305-3.343-1.118c-1.715,0.213-3.099,1.107-3.959,1.82c-2.453,2.034-3.631,4.906-3.151,7.682
				c0.408,2.364,1.97,4.778,4.522,6.996c0.768-0.278,1.392-0.769,1.699-1.346c0.129-0.242,0.256-0.611,0.132-0.994
				c-0.084-0.263,0.06-0.545,0.323-0.629c0.265-0.085,0.545,0.06,0.629,0.323c0.182,0.567,0.113,1.18-0.202,1.77
				c-0.464,0.873-1.42,1.59-2.556,1.919C111.925,410.795,111.878,410.801,111.832,410.801z"/>
			<path style="opacity:0.1;fill:#407BFF;" d="M133.606,299.934c-0.045,0-0.091-0.006-0.137-0.019
				c-0.266-0.075-0.42-0.352-0.344-0.618c4.523-15.906,5.583-32.279,6.608-48.112c0.592-9.141,1.205-18.594,2.474-27.885
				c0.473-3.463,0.973-6.365,1.874-9.276c1.384-4.466,3.689-8.723,5.919-12.839c0.131-0.243,0.435-0.333,0.678-0.202
				c0.243,0.132,0.333,0.435,0.201,0.678c-2.206,4.074-4.487,8.286-5.842,12.658c-0.881,2.845-1.372,5.702-1.838,9.115
				c-1.265,9.257-1.876,18.691-2.467,27.815c-1.029,15.886-2.093,32.312-6.645,48.321
				C134.024,299.791,133.824,299.934,133.606,299.934z"/>
		</g>
	</g>
</g>
</svg>
