<svg xmlns="http://www.w3.org/2000/svg" viewBox="0 0 500 500"><g id="freepik--Floor--inject-67"><ellipse id="freepik--floor--inject-67" cx="250.55" cy="354.23" rx="242.95" ry="140.01" style="fill:#f5f5f5"></ellipse></g><g id="freepik--Shadows--inject-67"><path id="freepik--Shadow--inject-67" d="M231.89,448.77,108.18,377.49c-1.47-.85-1.47-2.24,0-3.09L311.41,256.52a5.91,5.91,0,0,1,5.34,0L440.46,327.8c1.47.85,1.48,2.23,0,3.09L237.23,448.76A5.88,5.88,0,0,1,231.89,448.77Z" style="fill:#e0e0e0"></path><ellipse id="freepik--shadow--inject-67" cx="215.27" cy="301.53" rx="66.38" ry="38.33" style="fill:#e0e0e0"></ellipse><ellipse id="freepik--shadow--inject-67" cx="94.77" cy="399.77" rx="59.05" ry="34.09" style="fill:#e0e0e0"></ellipse><path id="freepik--shadow--inject-67" d="M428.59,300.94c-9.83,5.68-9.83,14.89,0,20.57s25.79,5.68,35.63,0,9.83-14.89,0-20.57S438.43,295.26,428.59,300.94Z" style="fill:#e0e0e0"></path></g><g id="freepik--Plant--inject-67"><g id="freepik--Pot--inject-67"><g id="freepik--pot--inject-67"><path d="M430.64,313.53c-8.43-8.61-13.38-43.62-5.16-50.45h41.85c8.22,6.83,3.27,41.83-5.16,50.44-.07.08-.15.15-.23.23a4,4,0,0,1-.29.29c-.23.23-.49.45-.76.68l-.2.15a7.62,7.62,0,0,1-.64.48,10,10,0,0,1-1.09.7c-6.93,4-18.18,4-25.11,0h0a10.13,10.13,0,0,1-1.1-.7c-.21-.15-.4-.3-.59-.45l-.25-.19c-.26-.22-.51-.44-.74-.66l-.33-.33Z" style="fill:#407BFF"></path><path d="M430.64,313.53c-8.43-8.61-13.38-43.62-5.16-50.45h41.85c8.22,6.83,3.27,41.83-5.16,50.44-.07.08-.15.15-.23.23a4,4,0,0,1-.29.29c-.23.23-.49.45-.76.68l-.2.15a7.62,7.62,0,0,1-.64.48,10,10,0,0,1-1.09.7c-6.93,4-18.18,4-25.11,0h0a10.13,10.13,0,0,1-1.1-.7c-.21-.15-.4-.3-.59-.45l-.25-.19c-.26-.22-.51-.44-.74-.66l-.33-.33Z" style="fill:#fff;opacity:0.5"></path><path d="M463.69,260.34c9.55,5.51,9.55,14.44,0,20s-25,5.51-34.57,0-9.55-14.45,0-20S454.15,254.82,463.69,260.34Z" style="fill:#407BFF"></path><path d="M463.69,260.34c9.55,5.51,9.55,14.44,0,20s-25,5.51-34.57,0-9.55-14.45,0-20S454.15,254.82,463.69,260.34Z" style="fill:#fff;opacity:0.7000000000000001"></path><ellipse cx="446.41" cy="270.32" rx="17.95" ry="10.37" style="fill:#407BFF"></ellipse><path d="M433.71,269.94c7-4,18.38-4,25.39,0a11.67,11.67,0,0,1,4.2,3.85,11.6,11.6,0,0,1-4.2,3.86c-7,4-18.38,4-25.39,0a11.68,11.68,0,0,1-4.2-3.86A11.75,11.75,0,0,1,433.71,269.94Z" style="fill:#455a64"></path></g><g id="freepik--Plants--inject-67"><path d="M445.86,272.92a28.19,28.19,0,0,0,14.48-1.63c8-3,9.23-8.36,9.23-8.36s-6.8-5.24-12.06-4.8a47,47,0,0,1,15.7-2s4.52-2.48,2.41-10.33c0,0-5-2.6-15.16.24,0,0,4.64-4.44,13.58-6.89.72-.1-1.82-10.36-3.38-14.87s-3.18-3.53-6.84-2.57S449,228.27,448,231.15s1.4,9.44,1.4,9.44-3.83-2.3-5.09-5.58a13,13,0,0,0-6.67,4c-2.86,3.27-1.65,4.88-.17,7.48a31.75,31.75,0,0,0,5.47,7.13s-3.68-.73-8.24-8.54c0,0-2.48,6.87-2.39,11.52S438.19,270.27,445.86,272.92Z" style="fill:#407BFF"></path><path d="M445.86,272.92a28.19,28.19,0,0,0,14.48-1.63c8-3,9.23-8.36,9.23-8.36s-6.8-5.24-12.06-4.8a47,47,0,0,1,15.7-2s4.52-2.48,2.41-10.33c0,0-5-2.6-15.16.24,0,0,4.64-4.44,13.58-6.89.72-.1-1.82-10.36-3.38-14.87s-3.18-3.53-6.84-2.57S449,228.27,448,231.15s1.4,9.44,1.4,9.44-3.83-2.3-5.09-5.58a13,13,0,0,0-6.67,4c-2.86,3.27-1.65,4.88-.17,7.48a31.75,31.75,0,0,0,5.47,7.13s-3.68-.73-8.24-8.54c0,0-2.48,6.87-2.39,11.52S438.19,270.27,445.86,272.92Z" style="opacity:0.2"></path><path d="M446.09,273.34a.46.46,0,0,0,.24-.45c-1.07-15.66,12.8-42.47,19.81-48.48a.48.48,0,1,0-.62-.72C458.4,229.8,444.29,257,445.39,273a.47.47,0,0,0,.5.44A.59.59,0,0,0,446.09,273.34Z" style="fill:#fff"></path><path d="M447.29,276.27a13.84,13.84,0,0,1-21.56-3.39,2.83,2.83,0,0,1-.48-1.85,2.93,2.93,0,0,1,1.14-1.56,19,19,0,0,1,8.93-4.16c-1.75.3-3.92-.26-5.7-.27a34.65,34.65,0,0,0-7.67.75s-4.22-1.56-3.42-8.61c0,0,4-2.89,13.12-1.76,0,0-4.58-3.23-12.62-4.19-.63,0,.23-9.18,1-13.27s2.29-3.47,5.57-3.11,13.63,3.76,14.86,6.12,0,8.33,0,8.33,3-2.48,3.67-5.48a11.4,11.4,0,0,1,6.28,2.6c2.9,2.45,2.06,4,1.12,6.44a27.55,27.55,0,0,1-3.8,6.86,9.5,9.5,0,0,1,1.45-1.06c.8-.62,1.67-1.11,2.44-1.8a15.17,15.17,0,0,0,3.51-4.74,27.08,27.08,0,0,1,3.68,9.14,13.91,13.91,0,0,1-1.55,9.56c-1.94,3.16-5.91,5.63-9.7,5.18Z" style="fill:#407BFF"></path><path d="M447.6,277.14a.39.39,0,0,1-.26-.35c-1.1-13.66-16.57-35-23.4-39.3a.41.41,0,0,1,.44-.7c6.95,4.36,22.66,26,23.78,39.93a.42.42,0,0,1-.38.45A.29.29,0,0,1,447.6,277.14Z" style="fill:#fff"></path></g></g></g><g id="freepik--Chair--inject-67"><g id="freepik--chair--inject-67"><path d="M176.63,305.16a5.9,5.9,0,0,0,.13,1.24,2.85,2.85,0,0,0,1.13,1.74l0,0a3.28,3.28,0,0,0,3.45-.27,10.49,10.49,0,0,0,4.75-8.23,3.36,3.36,0,0,0-1.34-3l0,0-.23-.13h0a2.91,2.91,0,0,0-2-.08,5.48,5.48,0,0,0-1.16.51A10.49,10.49,0,0,0,176.63,305.16Z" style="fill:#455a64"></path><path d="M177.93,294.94a4.32,4.32,0,0,1,2.11-.64,2.52,2.52,0,0,1,1.34.37l.12.07,3.07,1.77a2.91,2.91,0,0,0-2-.08,5.48,5.48,0,0,0-1.16.51,10.49,10.49,0,0,0-4.75,8.22,5.9,5.9,0,0,0,.13,1.24,2.85,2.85,0,0,0,1.13,1.74l-3.15-1.82-.05,0-.27-.16a.24.24,0,0,1-.08-.06,3.47,3.47,0,0,1-1.17-2.92A10.5,10.5,0,0,1,177.93,294.94Z" style="fill:#263238"></path><path d="M228,277.51a6,6,0,0,0,.14,1.25,2.91,2.91,0,0,0,1.12,1.74l0,0a3.29,3.29,0,0,0,3.46-.27,10.49,10.49,0,0,0,4.75-8.23,3.36,3.36,0,0,0-1.34-3v0l-.22-.13h0a3,3,0,0,0-2-.08,5.48,5.48,0,0,0-1.16.51A10.47,10.47,0,0,0,228,277.51Z" style="fill:#455a64"></path><path d="M229.34,267.29a4.43,4.43,0,0,1,2.12-.64,2.55,2.55,0,0,1,1.34.38l.12.06,3.06,1.77a3,3,0,0,0-2-.08,5.48,5.48,0,0,0-1.16.51,10.47,10.47,0,0,0-4.76,8.22,6,6,0,0,0,.14,1.25,2.91,2.91,0,0,0,1.12,1.74l-3.14-1.83-.06,0-.27-.16-.08-.06a3.49,3.49,0,0,1-1.16-2.91A10.52,10.52,0,0,1,229.34,267.29Z" style="fill:#263238"></path><path d="M218.87,316a6,6,0,0,1-.13,1.25,2.85,2.85,0,0,1-1.13,1.74l0,0a3.3,3.3,0,0,1-3.45-.27,10.48,10.48,0,0,1-4.75-8.24,3.36,3.36,0,0,1,1.34-3h0l.23-.14h0a3,3,0,0,1,2-.08,5.33,5.33,0,0,1,1.17.51A10.52,10.52,0,0,1,218.87,316Z" style="fill:#455a64"></path><path d="M217.57,305.74a4.32,4.32,0,0,0-2.11-.64,2.52,2.52,0,0,0-1.34.37l-.12.07-3.07,1.76a3,3,0,0,1,2-.08,5.33,5.33,0,0,1,1.17.51,10.52,10.52,0,0,1,4.75,8.22,6,6,0,0,1-.13,1.25,2.85,2.85,0,0,1-1.13,1.74l3.15-1.82.05,0,.27-.16.08-.05a3.53,3.53,0,0,0,1.17-2.92A10.47,10.47,0,0,0,217.57,305.74Z" style="fill:#263238"></path><path d="M252.25,299.6a5.89,5.89,0,0,1-.14,1.25,2.88,2.88,0,0,1-1.12,1.74l0,0a3.29,3.29,0,0,1-3.46-.27,10.5,10.5,0,0,1-4.75-8.23,3.38,3.38,0,0,1,1.34-3h0l.22-.13h0a2.88,2.88,0,0,1,2-.08,5.21,5.21,0,0,1,1.16.5A10.5,10.5,0,0,1,252.25,299.6Z" style="fill:#455a64"></path><path d="M251,289.39a4.32,4.32,0,0,0-2.12-.64,2.54,2.54,0,0,0-1.34.37l-.12.07L244.31,291a2.88,2.88,0,0,1,2-.08,5.21,5.21,0,0,1,1.16.5,10.5,10.5,0,0,1,4.76,8.22,5.89,5.89,0,0,1-.14,1.25,2.88,2.88,0,0,1-1.12,1.74l3.15-1.82.05,0,.27-.16a.25.25,0,0,0,.08-.05,3.51,3.51,0,0,0,1.16-2.92A10.49,10.49,0,0,0,251,289.39Z" style="fill:#263238"></path><path d="M187.73,279.55a6,6,0,0,1-.13,1.25,2.85,2.85,0,0,1-1.13,1.74l0,0a3.3,3.3,0,0,1-3.45-.27,10.51,10.51,0,0,1-4.75-8.24,3.36,3.36,0,0,1,1.34-3h0l.23-.14h0a3,3,0,0,1,2-.08,5.86,5.86,0,0,1,1.17.51A10.52,10.52,0,0,1,187.73,279.55Z" style="fill:#455a64"></path><path d="M186.43,269.34a4.32,4.32,0,0,0-2.11-.64,2.52,2.52,0,0,0-1.34.37l-.12.07-3.07,1.76a3,3,0,0,1,2-.08,5.86,5.86,0,0,1,1.17.51,10.52,10.52,0,0,1,4.75,8.22,6,6,0,0,1-.13,1.25,2.85,2.85,0,0,1-1.13,1.74l3.15-1.82,0,0,.27-.16.08,0a3.53,3.53,0,0,0,1.17-2.92A10.47,10.47,0,0,0,186.43,269.34Z" style="fill:#263238"></path><polygon points="216.1 269.51 233.07 264.64 233.07 268.27 216.1 278.06 216.1 269.51" style="fill:#ebebeb"></polygon><polygon points="216.1 269.51 214.43 268.48 231.45 263.83 233.07 264.64 216.1 269.51" style="fill:#f5f5f5"></polygon><polygon points="208.76 280.32 184.71 271.31 184.71 267.64 208.76 269.79 208.76 280.32" style="fill:#ebebeb"></polygon><polygon points="184.71 267.64 186.47 267.17 210.19 268.71 208.76 269.79 184.71 267.64" style="fill:#f5f5f5"></polygon><path d="M208.12,279.16c0,2.73,8.37,2.73,8.37,0V255.37h-8.37Z" style="fill:#fafafa"></path><path d="M214.39,273l4.6,29.88h-3.14L211.54,273A5.1,5.1,0,0,0,214.39,273Z" style="fill:#f5f5f5"></path><polygon points="211.54 272.97 211.54 281.18 215.85 307.9 215.85 302.85 211.54 272.97" style="fill:#ebebeb"></polygon><rect x="215.85" y="302.85" width="3.15" height="5.06" style="fill:#e0e0e0"></rect><polygon points="210.11 280.93 179.09 297.2 179.09 292.19 210.11 273 210.11 280.93" style="fill:#ebebeb"></polygon><path d="M210.11,273a3.53,3.53,0,0,1-2-.9l-31,18.78,1.94,1.31Z" style="fill:#f5f5f5"></path><polygon points="179.09 297.2 179.09 292.19 177.15 290.88 177.15 295.73 179.09 297.2" style="fill:#e0e0e0"></polygon><polygon points="249.22 291.45 216.08 280.11 216.08 272.66 249.22 286.45 249.22 291.45" style="fill:#ebebeb"></polygon><path d="M216.08,272.66c.27-.07.39-.55.41-1.29L250.2,286l-1,.41Z" style="fill:#f5f5f5"></path><polygon points="250.2 286.04 250.2 290.89 249.22 291.45 249.22 286.45 250.2 286.04" style="fill:#e0e0e0"></polygon><rect x="215.85" y="302.85" width="3.15" height="5.06" style="opacity:0.1"></rect><polygon points="179.09 297.2 179.09 292.19 177.15 290.88 177.15 295.73 179.09 297.2" style="opacity:0.1"></polygon><polygon points="250.2 286.04 250.2 290.89 249.22 291.45 249.22 286.45 250.2 286.04" style="opacity:0.1"></polygon><path d="M219.39,213.93H205.22V263c0,4.08,14.17,4.08,14.17,0Z" style="fill:#f0f0f0"></path><path d="M162.05,207.13l54.3-28.36s3.82-18.57-9-38.81c0,0,3.83-36.08-2.59-48.08C200,82.73,194.37,84,194.37,84l-61.66,27.84Z" style="fill:#37474f"></path><path d="M194.37,84l-61.66,27.84,2,6.58L202.17,88C198.2,83.13,194.37,84,194.37,84Z" style="fill:#455a64"></path><path d="M194.61,141.69c.12.95.95,1.31,1.84.8a2.91,2.91,0,0,0,1.39-2.67A1.13,1.13,0,0,0,196,139,2.92,2.92,0,0,0,194.61,141.69Z" style="fill:#fff;opacity:0.4"></path><path d="M185.2,147.12a1.13,1.13,0,0,0,1.85.8,3,3,0,0,0,1.39-2.67,1.13,1.13,0,0,0-1.85-.8A2.93,2.93,0,0,0,185.2,147.12Z" style="fill:#fff;opacity:0.4"></path><path d="M175.8,152.55a1.13,1.13,0,0,0,1.85.8,2.92,2.92,0,0,0,1.38-2.67c-.12-1-.95-1.31-1.85-.8A2.92,2.92,0,0,0,175.8,152.55Z" style="fill:#fff;opacity:0.4"></path><path d="M166.4,158a1.13,1.13,0,0,0,1.85.8,2.92,2.92,0,0,0,1.38-2.67c-.13-1-.95-1.31-1.85-.8A2.92,2.92,0,0,0,166.4,158Z" style="fill:#fff;opacity:0.4"></path><path d="M278.41,201.9v3a10.84,10.84,0,0,1-5.29,8.74l-60.53,31.77a12.07,12.07,0,0,1-10.46-.21L167.22,225a11.42,11.42,0,0,1-5.17-8.95v-3a10.81,10.81,0,0,1,5.29-8.73l57.3-29.93a13.09,13.09,0,0,1,10.62-.09l37.81,18.92A10.55,10.55,0,0,1,278.41,201.9Z" style="fill:#37474f"></path><path d="M212.59,230.48l60.53-31.77c2.92-1.53,2.9-4-.05-5.44l-37.81-18.92a13.09,13.09,0,0,0-10.62.09l-57.3,29.93c-2.92,1.53-3,4.1-.12,5.75l34.91,20.15A12,12,0,0,0,212.59,230.48Z" style="fill:#455a64"></path><path d="M208.7,246.45a11.79,11.79,0,0,1-6.57-1.25l-34.91-20.15a11.45,11.45,0,0,1-5.16-9v-3a10.9,10.9,0,0,1,4.53-8.27c-2.16,1.54-2,3.8.63,5.28l34.91,20.17a11.15,11.15,0,0,0,5.34,1.28Z" style="opacity:0.2"></path><path d="M194.37,84s8.93-6,18.34-.61,6.3,23.7,5.29,35.48-1.33,32.3,6.91,39.77,35.25-2.46,47-2.46l-10.39,38.31c-11.45-6.24-29.78-12.64-45.2-15.7,0,0,.5-23.88-10.45-37.53,0,0,4-9.55,1.4-28.69C204.86,94.83,201.55,88.12,194.37,84Z" style="fill:#37474f"></path><g style="opacity:0.2"><path d="M194.37,84s8.93-6,18.34-.61,6.3,23.7,5.29,35.48-1.33,32.3,6.91,39.77,35.25-2.46,47-2.46l-10.39,38.31c-11.45-6.24-29.78-12.64-45.2-15.7,0,0,.5-23.88-10.45-37.53,0,0,4-9.55,1.4-28.69C204.86,94.83,201.55,88.12,194.37,84Z"></path></g><path d="M261.55,194.47c-.53-3.42-2.7-23.14,1-31.72,3.2-7.47,11.6-7.9,14.23-4.71s.28,7.08-3.91,12.56c-3.55,4.62-4.82,8.94-4.82,20.14Z" style="fill:#455a64"></path><path d="M261.55,194.47c-.53-3.42-2.7-23.14,1-31.72,3.2-7.47,11.6-7.9,14.23-4.71s.28,7.08-3.91,12.56c-3.55,4.62-4.82,8.94-4.82,20.14Z" style="opacity:0.15"></path><path d="M159.81,223.91,201.73,245l-.89-15.45,6.46-3.73c-.46-12-3.74-24.26-12.22-27-10.6-3.35-24.35-4.43-32.6-11.9s-7.91-28-6.91-39.76,4.12-30.05-5.29-35.49-18.34.61-18.34.61c-4,2.61-8.7,4.5-8.3,7.67a3.4,3.4,0,0,0,2.86,3.22l23.4,88.55A19.09,19.09,0,0,0,159.81,223.91Z" style="fill:#263238"></path><path d="M144.11,122.58c3.77,4.51,5.71,11.66,5,29.25s-.42,31.76,6.46,40.37c8.16,10.22,36.13,18.36,36.13,18.36l10.93-5c-1.86-3.28-4.33-5.72-7.57-6.76-10.6-3.35-24.35-4.43-32.6-11.9s-7.91-28-6.91-39.76,4.12-30.05-5.29-35.49-18.34.61-18.34.61c-4,2.61-8.7,4.5-8.3,7.67a3.4,3.4,0,0,0,2.86,3.22C131.74,121.44,140.35,118.08,144.11,122.58Z" style="fill:#37474f"></path><g style="opacity:0.2"><path d="M144.11,122.58c3.77,4.51,5.71,11.66,5,29.25s-.42,31.76,6.46,40.37c8.16,10.22,36.13,18.36,36.13,18.36l10.93-5c-1.86-3.28-4.33-5.72-7.57-6.76-10.6-3.35-24.35-4.43-32.6-11.9s-7.91-28-6.91-39.76,4.12-30.05-5.29-35.49-18.34.61-18.34.61c-4,2.61-8.7,4.5-8.3,7.67a3.4,3.4,0,0,0,2.86,3.22C131.74,121.44,140.35,118.08,144.11,122.58Z"></path></g><path d="M200.84,229.52l6.46-3.73c0-7.16-1.84-22.74-10.91-26.5-7.21-3-10.68,1.4-10.6,4.11.09,3,2.29,5.06,5.93,7.16C196.54,213.34,200.84,218.33,200.84,229.52Z" style="fill:#455a64"></path><path d="M200.84,229.52l6.46-3.73c0-7.16-1.84-22.74-10.91-26.5-7.21-3-10.68,1.4-10.6,4.11.09,3,2.29,5.06,5.93,7.16C196.54,213.34,200.84,218.33,200.84,229.52Z" style="opacity:0.15"></path></g></g><g id="freepik--Desk--inject-67"><g id="freepik--desk--inject-67"><polygon points="231.86 322.94 124.85 261.16 318 149.65 425.01 211.43 231.86 322.94" style="fill:#407BFF"></polygon><polygon points="231.86 322.94 124.85 261.16 318 149.65 425.01 211.43 231.86 322.94" style="opacity:0.30000000000000004"></polygon><polygon points="124.85 261.16 124.85 377.52 130.16 380.58 130.16 368.33 226.56 423.98 226.56 436.24 231.86 439.3 231.86 322.94 124.85 261.16" style="fill:#407BFF"></polygon><polygon points="124.85 261.16 124.85 377.52 130.16 380.58 130.16 368.33 226.56 423.98 226.56 436.24 231.86 439.3 231.86 322.94 124.85 261.16" style="opacity:0.5"></polygon><polygon points="130.16 380.58 135.46 377.52 135.46 371.39 130.16 368.33 130.16 380.58" style="fill:#407BFF"></polygon><polygon points="130.16 380.58 135.46 377.52 135.46 371.39 130.16 368.33 130.16 380.58" style="opacity:0.6000000000000001"></polygon><polygon points="231.86 439.3 237.16 436.24 237.16 423.98 419.7 318.6 419.7 330.86 425.01 327.79 425.01 211.43 231.86 322.94 231.86 439.3" style="fill:#407BFF"></polygon><polygon points="231.86 439.3 237.16 436.24 237.16 423.98 419.7 318.6 419.7 330.86 425.01 327.79 425.01 211.43 231.86 322.94 231.86 439.3" style="opacity:0.4"></polygon><polygon points="419.7 330.86 414.4 327.79 414.4 321.66 419.7 318.6 419.7 330.86" style="fill:#407BFF"></polygon><g style="opacity:0.6000000000000001"><polygon points="419.7 330.86 414.4 327.79 414.4 321.66 419.7 318.6 419.7 330.86"></polygon></g></g><g id="freepik--Sheets--inject-67"><path d="M151,269.26l42.13,24.32a2.61,2.61,0,0,0,2.37,0l31-17.9a.73.73,0,0,0,0-1.37L184.41,250a2.67,2.67,0,0,0-2.37,0l-31,17.91A.72.72,0,0,0,151,269.26Z" style="opacity:0.2"></path><path d="M151,267.06l42.13,24.33a2.67,2.67,0,0,0,2.37,0l31-17.91a.73.73,0,0,0,0-1.37l-42.14-24.32a2.61,2.61,0,0,0-2.37,0l-31,17.9A.72.72,0,0,0,151,267.06Z" style="fill:#ebebeb"></path><path d="M182,247.79l-29.44,17,40.57,23.42a2.61,2.61,0,0,0,2.37,0l29.44-17-40.57-23.42A2.61,2.61,0,0,0,182,247.79Z" style="fill:#e0e0e0"></path><path d="M151,262.78l42.13,24.32a2.61,2.61,0,0,0,2.37,0l31-17.9a.73.73,0,0,0,0-1.37l-42.14-24.32a2.61,2.61,0,0,0-2.37,0l-31,17.9A.72.72,0,0,0,151,262.78Z" style="fill:#fafafa"></path></g><g id="freepik--Pen--inject-67"><path d="M234.16,217.45,267.94,237l5.34,1.08a.17.17,0,0,0,.18-.24l-1.68-3.06L238,215.23C236.94,214.63,233.33,217,234.16,217.45Z" style="opacity:0.2"></path><g id="freepik--pen--inject-67"><path d="M237.6,212.22l.15.05-.3-.17,0,0h0l-.06,0h0l-.05,0h-.18a1.24,1.24,0,0,0-.64.2,3.14,3.14,0,0,0-1.43,2.48,1.29,1.29,0,0,0,0,.35.14.14,0,0,0,0,.06s0,0,0,0a.19.19,0,0,0,0,.07.72.72,0,0,0,.12.21l0,0h0l0,0,.06.05.05,0h0l.34.2-.15-.12a1.16,1.16,0,0,0,.82-.18,3.16,3.16,0,0,0,1.43-2.48A1.16,1.16,0,0,0,237.6,212.22Zm-2.12,3.41h0Z" style="fill:#407BFF"></path><path d="M270.14,231l-2,3.51-.34-.2-32-18.47-.15-.12a1.14,1.14,0,0,1-.27-.81,3.19,3.19,0,0,1,1.44-2.48,1.26,1.26,0,0,1,.63-.19.58.58,0,0,1,.19,0l.15.05,0,0h0Z" style="fill:#f0f0f0"></path><path d="M269.13,231.06c.79-.45,1.43-.08,1.43.83a3.18,3.18,0,0,1-1.43,2.48c-.79.45-1.43.08-1.43-.83A3.18,3.18,0,0,1,269.13,231.06Z" style="fill:#407BFF"></path><path d="M272.2,233.19l0,0-1.83-2h0l0,0,0,0,0,0h0a.92.92,0,0,0-1.14,0,3.18,3.18,0,0,0-1.43,2.48c0,.53.21.88.55,1h0l.1,0h0l2.65.58a.64.64,0,0,0,.46-.1,1.82,1.82,0,0,0,.82-1.42A.67.67,0,0,0,272.2,233.19Z" style="fill:#e0e0e0"></path><path d="M246.26,218.69h0l-.05,0a.37.37,0,0,0-.33,0,1.15,1.15,0,0,0-.51.89.35.35,0,0,0,.12.3h0l.06,0,24.3,14,1.43-.82Z" style="fill:#455a64"></path><path d="M267.82,232.79l2,1.16,1.43-.82-2.73-1.58A3.51,3.51,0,0,0,267.82,232.79Z" style="fill:#37474f"></path><path d="M272.92,234.14h0l-1.65-1.82,0,0a.64.64,0,0,0-.81,0,2.23,2.23,0,0,0-1,1.75.67.67,0,0,0,.39.69h.08l2.43.53h0a.33.33,0,0,0,.26-.06,1,1,0,0,0,.46-.79A.37.37,0,0,0,272.92,234.14Z" style="fill:#407BFF"></path><path d="M272.92,234.14h0l-1.65-1.82,0,0a.64.64,0,0,0-.81,0,2.23,2.23,0,0,0-1,1.75.67.67,0,0,0,.39.69h.08l2.43.53h0a.33.33,0,0,0,.26-.06,1,1,0,0,0,.46-.79A.37.37,0,0,0,272.92,234.14Z" style="opacity:0.1"></path><path d="M273,234.41a1,1,0,0,1-.46.79.34.34,0,0,1-.26.06h0l-1.23-.27c-.19,0-.32-.22-.32-.51a1.64,1.64,0,0,1,.74-1.28.47.47,0,0,1,.59,0l0,0,.82.9h0A.37.37,0,0,1,273,234.41Z" style="fill:#407BFF"></path><path d="M272.55,234.14c.26-.15.46,0,.46.27a1,1,0,0,1-.46.79c-.25.15-.46,0-.46-.26A1,1,0,0,1,272.55,234.14Z" style="opacity:0.1"></path><path d="M240.84,215.56a.37.37,0,0,0-.36,0,1.1,1.1,0,0,0-.5.87.33.33,0,0,0,.15.33h0l5.35,3.09a.35.35,0,0,1-.12-.3,1.15,1.15,0,0,1,.51-.89.37.37,0,0,1,.33,0Z" style="fill:#fafafa"></path><path d="M241,215.89a1.13,1.13,0,0,1-.51.88.33.33,0,0,1-.35,0,.35.35,0,0,1-.15-.33,1.1,1.1,0,0,1,.5-.87.31.31,0,0,1,.51.29Z" style="fill:#f5f5f5"></path><path d="M239.86,213.72h0l-2.11-1.22-.05,0h0a.91.91,0,0,0-.87.11,2.83,2.83,0,0,0-1.29,2.23.88.88,0,0,0,.38.83h0l2.14,1.24h0a.92.92,0,0,0,.89-.1,2.85,2.85,0,0,0,1.29-2.23A1,1,0,0,0,239.86,213.72Z" style="fill:#407BFF"></path><path d="M239.86,213.72h0l-2.11-1.22-.05,0h0a.91.91,0,0,0-.87.11,2.83,2.83,0,0,0-1.29,2.23.88.88,0,0,0,.38.83h0l2.14,1.24h0a.92.92,0,0,0,.89-.1,2.85,2.85,0,0,0,1.29-2.23A1,1,0,0,0,239.86,213.72Z" style="opacity:0.05"></path><path d="M238.92,213.8c.71-.41,1.29-.08,1.29.74a2.85,2.85,0,0,1-1.29,2.23c-.71.41-1.29.08-1.29-.74A2.85,2.85,0,0,1,238.92,213.8Z" style="opacity:0.1"></path><path d="M273.6,234.91h0l-.88-.52h0a.15.15,0,0,0-.17,0,.53.53,0,0,0-.23.41c0,.07,0,.13.07.15h0l.87.53h0a.38.38,0,0,0,.16,0,.34.34,0,0,0,.18-.62Z" style="fill:#455a64"></path><path d="M273.65,235h0l0,0h0a.17.17,0,0,0-.16,0,.5.5,0,0,0-.23.41c0,.07,0,.12.07.14h0a.2.2,0,0,0,.11,0,.34.34,0,0,0,.33-.34A.35.35,0,0,0,273.65,235Z" style="fill:#263238"></path></g></g><g id="freepik--Books--inject-67"><path d="M202.42,266l46.93,27.09a2.86,2.86,0,0,0,2.64,0l34.54-19.93a.81.81,0,0,0,0-1.53L239.6,244.56a2.86,2.86,0,0,0-2.64,0L202.42,264.5A.8.8,0,0,0,202.42,266Z" style="opacity:0.2"></path><g id="freepik--books--inject-67"><path d="M253,289.26l-1.12-.64a1.77,1.77,0,0,1,.94-.07C253.09,288.69,253,289.26,253,289.26Z"></path><path d="M253.74,288.56a1.35,1.35,0,0,0-2,0c-1.09,1-1.14,2-1.6,2s-.44-8-.44-8l4.3,4Z"></path><path d="M208.69,259.53l-.07,0,.69-.4L239,242l43.23,28c.71.41.84,1,.28,1.33l-1,.58-27.73,16-.2-.14Z" style="fill:#455a64"></path><path d="M250.05,278.76l2.14-.45v8.6c-1.29.55-2.12,1.07-2.25,2.16Z" style="fill:#407BFF"></path><path d="M253.14,287l27.48-15.86a1.94,1.94,0,0,0,.86-1.5v-8.48l-27.74,16.16a2.55,2.55,0,0,1-1.31,1.58c-1,.37-.24.75-.24.75v7.23C253,286.81,253.14,287,253.14,287Z" style="fill:#ebebeb"></path><path d="M250.61,278.46c.28-.16.51-.17.51,0v.27c0,.3.45.29,1,0s1-.82,1-1.12v-.27c0-.16.39-.5.86-.78l-44.7-25.61-.69.41a.6.6,0,0,0-.17.37v.26c0,.3-.46.81-1,1.13s-1,.34-1,0v-.27c0-.15-.22-.14-.51,0Z" style="fill:#37474f"></path><path d="M208.69,251.34l-.07,0,.69-.4L239,233.77l43.23,25c.71.41.84,1,.28,1.33l-1,.58-27.74,16.71Z" style="fill:#455a64"></path><path d="M206.41,252.57l44.66,25.79-1.56,1.22L205,253.88a1.74,1.74,0,0,1,.6-.84Z" style="fill:#455a64"></path><path d="M205.17,265.42l-.08-.05-.05-.05a.27.27,0,0,1-.09-.12l0-.06a1.89,1.89,0,0,1-.11-.25,1.4,1.4,0,0,1-.09-.29,3.4,3.4,0,0,1-.07-.34,1.36,1.36,0,0,1,0-.2c0-.06,0-.11,0-.17s0-.25,0-.39v-7.38a6.14,6.14,0,0,1,.41-2.25l44.52,25.71.19,11.56-44.52-25.71Z" style="fill:#455a64"></path><path d="M249.51,279.58h0l-38.25-17.91c-2.11-1-1.86,1.49-.39,3.41,1.18,1.54,11.5,10.28,11.5,10.28l-11.46-6.62-5.73-3.31h0l-.08-.05-.05-.05a.27.27,0,0,1-.09-.12l0-.06a1.89,1.89,0,0,1-.11-.25,1.4,1.4,0,0,1-.09-.29,3.4,3.4,0,0,1-.07-.34,1.36,1.36,0,0,1,0-.2c0-.06,0-.11,0-.17s0-.25,0-.39v-7.38a6.14,6.14,0,0,1,.41-2.25Z" style="opacity:0.1"></path><path d="M249.1,281.83h1a4.5,4.5,0,0,1,.49-2.18,1.32,1.32,0,0,0,.82.27,2.63,2.63,0,0,0,1.24-.39,3.78,3.78,0,0,0,1.15-1l.06-.09a1.62,1.62,0,0,0,.3-.85l26.31-15.19.89-.52,1.14-.66a.59.59,0,0,0,.35-.51v-1.17a.61.61,0,0,1-.35.53h0l-3,1.74L254,276.5c-.47.28-.86.62-.86.78v.27a.87.87,0,0,1-.24.47,2.65,2.65,0,0,1-.77.65c-.57.32-1,.34-1,0v-.27c0-.15-.22-.14-.51,0l-.5.3C249.55,279.07,249.1,280.45,249.1,281.83Z" style="fill:#37474f"></path><path d="M250.09,281.83v7.38c0,.1,0,.21,0,.31l0,.25v0a2.85,2.85,0,0,1,1.51-1.87,2.45,2.45,0,0,1,1.22-.38,1.32,1.32,0,0,1,.89.33l.09-.05.17-.11L279.46,273l1.46-.84c.13-.08.28-.16.41-.25l1.24-.71a.57.57,0,0,0,.27-.48v1.17a.6.6,0,0,1-.25.45h0l-.46.26-.28.17-.49.28a2.43,2.43,0,0,1-.3.17l-.22.13-.37.22-20.22,11.66L253.79,289c-.46.27-.83.36-.86.22v-.31c0-.32-.45-.32-1,0a1.37,1.37,0,0,0-.8,1v.32a.47.47,0,0,1-.15.38l-.15.08-.32.19-.39.23a.41.41,0,0,1-.5-.05.1.1,0,0,1-.05,0,.47.47,0,0,1-.09-.12h0l-.05-.06a1.45,1.45,0,0,1-.11-.25,1.52,1.52,0,0,1-.09-.28,3.4,3.4,0,0,1-.07-.34,1.49,1.49,0,0,1,0-.21c0-.05,0-.1,0-.16s0-.26,0-.39v-7.38Z" style="fill:#37474f"></path><path d="M205,253.87,247.3,278.3l32-18.46c.48-.28.48-.73,0-1l-41.87-24.17-28.11,16.22h0l-.69.41a.6.6,0,0,0-.17.37v.27c0,.29-.46.8-1,1.12l-.08.05-.94-.54-.44.25-.06,0h0l-.33.19A1.73,1.73,0,0,0,205,253.87Z" style="opacity:0.1"></path><path d="M276.91,260l-1.28-.68,1.16-.28A.89.89,0,0,1,276.91,260Z" style="fill:#407BFF"></path><path d="M276.91,260l-1.28-.68,1.16-.28A.89.89,0,0,1,276.91,260Z" style="opacity:0.5"></path><path d="M243.18,277a2.88,2.88,0,0,0,2.59,0l29.06-16.78-43.5-24.72-1-.59L201.25,251.3a.79.79,0,0,0,0,1.49Z" style="fill:#407BFF"></path><path d="M254.09,245.71l10.14,5.84,6.56-3.79,7.63,4.41v5.09c0,.67-.74,1.62-1,1.46a7.45,7.45,0,0,0-1.46.52,11.09,11.09,0,0,0-2.1,1.56l-23.29-13Z" style="fill:#407BFF"></path><path d="M254.09,245.71l10.14,5.84,6.56-3.79,7.63,4.41v5.09c0,.67-.74,1.62-1,1.46a7.45,7.45,0,0,0-1.46.52,11.09,11.09,0,0,0-2.1,1.56l-23.29-13Z" style="opacity:0.15"></path><path d="M274.24,252.78v5.53l.08-.06a2.75,2.75,0,0,1,1.25-.38,1.24,1.24,0,0,1,.81.19v-6.52Z" style="fill:#37474f"></path><path d="M272.81,260.21a1.66,1.66,0,0,1,.37-.94,2.71,2.71,0,0,1,.35-.41l.13-.12.15-.13.14-.1.29-.2v-5.5l-1.42.82v6.58Z" style="fill:#e0e0e0"></path><path d="M278.42,257.26c0,.67-.74,1.62-1,1.46h0l-1-.66v-4.2l1-1.76.55-.2.46.27Z" style="opacity:0.4"></path><path d="M244.48,270v6.31a1.73,1.73,0,0,0,.86-.2l3.19-1.84,24.28-14V253.6Z" style="fill:#ebebeb"></path><path d="M271,257.83l-6.8,3.92a17.33,17.33,0,0,1,3.4-2.27A15.38,15.38,0,0,1,271,257.83Z" style="opacity:0.15"></path><path d="M202,246.27V251a1.91,1.91,0,0,0,.86,1.5l37.59,21.7,3.18,1.84a1.75,1.75,0,0,0,.87.2v-5.59Z" style="fill:#f5f5f5"></path><path d="M231.33,227.31l43.5,25.13V253c0,.32.46.44,1,.12s1-.73,1-1.29l.06-.55-44.33-25.59-.18-.11a.56.56,0,0,0-.08.27v.27C232.33,226.47,231.89,227,231.33,227.31Z" style="fill:#407BFF"></path><path d="M231.33,227.31l43.5,25.13V253c0,.32.46.44,1,.12s1-.73,1-1.29l.06-.55-44.33-25.59-.18-.11a.56.56,0,0,0-.08.27v.27C232.33,226.47,231.89,227,231.33,227.31Z" style="opacity:0.1"></path><path d="M245.77,269.22l28.42-16.41c.36-.19.69-.34.83-.27l-.19-.1-43.5-25.13-.51-.29a1.65,1.65,0,0,0-1.37.2l-28.2,16.29a.79.79,0,0,0,0,1.49l41.93,24.22A2.88,2.88,0,0,0,245.77,269.22Z" style="fill:#407BFF"></path><path d="M255.19,245.77l.28.16-.85.5,5.82,3.36.85-.49.29.16-3.25,1.88-.29-.17.91-.52-5.82-3.36-1.1.63a1.56,1.56,0,0,0-.46.39c-.14.24,0,.54.28.9l.69.76-.31.17L250,248.78Z" style="fill:#455a64"></path><path d="M244.79,251.77l.29.17-.76.44,2.84.72,2.13-1.23L248,250.25l-.6.34-.13.06a.45.45,0,0,1-.41-.08l2-1.13.29.17-.69.39,3.78,4.87-.79.46-8.63-2.07-.32.18-.12.06a.46.46,0,0,1-.42-.08Zm6.22,2.3-1.53-1.94-1.87,1.08Z" style="fill:#455a64"></path><path d="M236.28,256.68a1.17,1.17,0,0,1,.37-.13,3.48,3.48,0,0,1,1.2.17l4.15,1.07-2.41-3,.21-.12a1.28,1.28,0,0,1,.37-.14,3.91,3.91,0,0,1,1.2.18l7.33,1.87.54-.3.28.16-2.88,1.67-.29-.17.85-.49-6.33-1.72,1.8,2.25,2.91.74-2.47,1.43-.29-.17.86-.48-6.22-1.69,3.06,3.5.85-.49.29.17-1.76,1-.29-.17.53-.3-4.07-4.71Z" style="fill:#455a64"></path><path d="M246.71,266.26a4.49,4.49,0,0,0-4.46,0,.28.28,0,0,1-.28,0L206.36,245.7a.28.28,0,0,1,0-.48,1.28,1.28,0,0,0,.65-1.13,1.27,1.27,0,0,0-.65-1.12.31.31,0,0,1-.14-.25.29.29,0,0,1,.14-.24l21.32-12.3a.28.28,0,0,1,.28,0,4.49,4.49,0,0,0,4.46,0,.28.28,0,0,1,.28,0l35.64,20.57a.27.27,0,0,1,.14.24.31.31,0,0,1-.14.25,1.27,1.27,0,0,0-.65,1.12,1.28,1.28,0,0,0,.65,1.13.29.29,0,0,1,.14.24.31.31,0,0,1-.14.25L247,266.26a.27.27,0,0,1-.14,0A.23.23,0,0,1,246.71,266.26Zm20.42-13.9a1.83,1.83,0,0,1,.57-1.34l-35.14-20.28a5,5,0,0,1-4.74,0l-20.81,12a1.86,1.86,0,0,1,.56,1.34,1.83,1.83,0,0,1-.56,1.34l35.1,20.27a5,5,0,0,1,4.73,0l20.85-12A1.83,1.83,0,0,1,267.13,252.36Z" style="fill:#fff"></path><path d="M232.41,225.6l.18.11,44.33,25.59a.36.36,0,0,1,.09-.12l.15-.08.32-.19.39-.23a.42.42,0,0,1,.51,0l.05,0a1.83,1.83,0,0,1,.25.43l.09.29.06.34a1.52,1.52,0,0,1,0,.21.92.92,0,0,0,0,.16c0,.13,0,.26,0,.39v-1.25a2.66,2.66,0,0,0-1.29-2l-41.94-24.21a2.57,2.57,0,0,0-2.3-.17l-.53.31h0l-.23.13h0A.38.38,0,0,0,232.41,225.6Z" style="fill:#407BFF"></path><path d="M245.77,277l1.76-1,26.31-15.19a1.67,1.67,0,0,1,.36-.95,3.93,3.93,0,0,1,1.15-1,2.6,2.6,0,0,1,1.24-.39,1.32,1.32,0,0,1,.82.27,4.64,4.64,0,0,0,.48-2.17h1c0,1.37-.45,2.75-1,3.07l-.5.29c-.28.17-.51.18-.51,0v-.26c0-.3-.45-.29-1,0s-1,.82-1,1.12v.27c0,.15-.38.5-.86.77l-25.44,14.7-2.76,1.59h0a2.73,2.73,0,0,1-1.29.3v-1.15A2.62,2.62,0,0,0,245.77,277Z" style="fill:#407BFF"></path><path d="M245.77,277l1.76-1,26.31-15.19a1.67,1.67,0,0,1,.36-.95,3.93,3.93,0,0,1,1.15-1,2.6,2.6,0,0,1,1.24-.39,1.32,1.32,0,0,1,.82.27,4.64,4.64,0,0,0,.48-2.17h1c0,1.37-.45,2.75-1,3.07l-.5.29c-.28.17-.51.18-.51,0v-.26c0-.3-.45-.29-1,0s-1,.82-1,1.12v.27c0,.15-.38.5-.86.77l-25.44,14.7-2.76,1.59h0a2.73,2.73,0,0,1-1.29.3v-1.15A2.62,2.62,0,0,0,245.77,277Z" style="opacity:0.30000000000000004"></path><path d="M245.76,269.22h0l1.76-1,20.21-11.66,6.45-3.73c.46-.27.83-.36.86-.23v.31c0,.33.46.33,1,0a1.34,1.34,0,0,0,.8-1v-.32a.47.47,0,0,1,.15-.38l.15-.08.32-.19.39-.23a.42.42,0,0,1,.51,0l.05,0,.09.12a.16.16,0,0,1,0,.07.9.9,0,0,1,.12.24l.09.29.06.34a1.52,1.52,0,0,1,0,.21.92.92,0,0,0,0,.16c0,.13,0,.26,0,.39v4h-1v-4c0-.1,0-.21,0-.31l0-.25v0a2.85,2.85,0,0,1-1.51,1.87,2.51,2.51,0,0,1-1.21.38,1.35,1.35,0,0,1-.89-.33l-.09,0-.18.1-25.44,14.7-2.76,1.59h0a2.67,2.67,0,0,1-1.27.3v-1.15A2.66,2.66,0,0,0,245.76,269.22Z" style="fill:#407BFF"></path><path d="M245.76,269.22h0l1.76-1,20.21-11.66,6.45-3.73c.46-.27.83-.36.86-.23v.31c0,.33.46.33,1,0a1.34,1.34,0,0,0,.8-1v-.32a.47.47,0,0,1,.15-.38l.15-.08.32-.19.39-.23a.42.42,0,0,1,.51,0l.05,0,.09.12a.16.16,0,0,1,0,.07.9.9,0,0,1,.12.24l.09.29.06.34a1.52,1.52,0,0,1,0,.21.92.92,0,0,0,0,.16c0,.13,0,.26,0,.39v4h-1v-4c0-.1,0-.21,0-.31l0-.25v0a2.85,2.85,0,0,1-1.51,1.87,2.51,2.51,0,0,1-1.21.38,1.35,1.35,0,0,1-.89-.33l-.09,0-.18.1-25.44,14.7-2.76,1.59h0a2.67,2.67,0,0,1-1.27.3v-1.15A2.66,2.66,0,0,0,245.76,269.22Z" style="opacity:0.30000000000000004"></path><path d="M200.72,244.24v1.17a.88.88,0,0,0,.51.74h0l39.18,22.62,2.75,1.59h0a2.67,2.67,0,0,0,1.29.31v-1.15a2.63,2.63,0,0,1-1.3-.31l-1.75-1h0L201.25,245A.88.88,0,0,1,200.72,244.24Z" style="fill:#407BFF"></path><path d="M200.72,244.24v1.17a.88.88,0,0,0,.51.74h0l39.18,22.62,2.75,1.59h0a2.67,2.67,0,0,0,1.29.31v-1.15a2.63,2.63,0,0,1-1.3-.31l-1.75-1h0L201.25,245A.88.88,0,0,1,200.72,244.24Z" style="opacity:0.2"></path><path d="M200.72,252v1.17a.88.88,0,0,0,.51.74h0l39.18,22.62,2.75,1.59h0a2.67,2.67,0,0,0,1.29.3v-1.15a2.63,2.63,0,0,1-1.3-.31l-1.75-1h0l-40.18-23.2A.88.88,0,0,1,200.72,252Z" style="fill:#407BFF"></path><path d="M200.72,252v1.17a.88.88,0,0,0,.51.74h0l39.18,22.62,2.75,1.59h0a2.67,2.67,0,0,0,1.29.3v-1.15a2.63,2.63,0,0,1-1.3-.31l-1.75-1h0l-40.18-23.2A.88.88,0,0,1,200.72,252Z" style="opacity:0.2"></path><polygon points="269.84 258.48 269.84 274.18 267.58 271.57 265.31 276.8 265.31 261.1 269.84 258.48" style="fill:#407BFF"></polygon><polygon points="269.84 258.48 269.84 274.18 267.58 271.57 265.31 276.8 265.31 261.1 269.84 258.48" style="opacity:0.5"></polygon><path d="M259.65,278.89v4.26a4,4,0,0,0,2,3.42l6,3.44-5.67-.66,1.13,3.28-6-3.44a4,4,0,0,1-2-3.42V281.5Z" style="fill:#407BFF"></path><path d="M259.65,278.89v4.26a4,4,0,0,0,2,3.42l6,3.44-5.67-.66,1.13,3.28-6-3.44a4,4,0,0,1-2-3.42V281.5Z" style="opacity:0.5"></path><path d="M261,278.13l-6.79,3.92a17.38,17.38,0,0,1,3.39-2.27A15.67,15.67,0,0,1,261,278.13Z" style="opacity:0.15"></path></g></g><g id="freepik--Scales--inject-67"><path d="M406.15,158.36a1,1,0,0,1-.5-.13,1.45,1.45,0,0,1-.61-1.33,3.4,3.4,0,0,1,1.46-2.75,1.13,1.13,0,0,1,1.17-.07,1.45,1.45,0,0,1,.61,1.33,3.42,3.42,0,0,1-1.45,2.75A1.39,1.39,0,0,1,406.15,158.36Zm1-3.75a.65.65,0,0,0-.34.11,2.77,2.77,0,0,0-1.13,2.18.89.89,0,0,0,.28.76.57.57,0,0,0,.52-.07,2.77,2.77,0,0,0,1.12-2.18.86.86,0,0,0-.28-.76A.33.33,0,0,0,407.17,154.61Z" style="fill:#455a64"></path><g id="freepik--Base--inject-67"><path d="M394.22,209.28a14.28,14.28,0,0,0-13,0c-1.79,1-2.68,2.38-2.68,3.74v1.4c0,1.35.89,2.7,2.68,3.73a14.28,14.28,0,0,0,13,0c1.78-1,2.67-2.38,2.67-3.73V213C396.89,211.66,396,210.31,394.22,209.28Z" style="fill:#263238"></path><path d="M381.27,209.28c-3.58,2.06-3.58,5.41,0,7.47a14.28,14.28,0,0,0,13,0c3.57-2.06,3.57-5.41,0-7.47A14.28,14.28,0,0,0,381.27,209.28Z" style="fill:#455a64"></path><path d="M393.09,207.54a11.8,11.8,0,0,0-10.7,0,3.74,3.74,0,0,0-2.21,3.09v2.06a3.74,3.74,0,0,0,2.21,3.09,11.8,11.8,0,0,0,10.7,0,3.72,3.72,0,0,0,2.21-3.09v-2.06A3.72,3.72,0,0,0,393.09,207.54Z" style="fill:#37474f"></path><path d="M382.39,207.54c-3,1.71-3,4.47,0,6.18a11.8,11.8,0,0,0,10.7,0c3-1.71,3-4.47,0-6.18A11.8,11.8,0,0,0,382.39,207.54Z" style="fill:#455a64"></path></g><path d="M386.29,167.26v42.87a.91.91,0,0,0,.5.82,2.08,2.08,0,0,0,1.9,0,.92.92,0,0,0,.5-.82V165.59Z" style="fill:#37474f"></path><path d="M359,200.75c-.07,5.07,4.24,7.74,9.48,7.74s9.47-2.67,9.47-7.74Z" style="fill:#407BFF"></path><path d="M359,200.75c-.07,5.07,4.24,7.74,9.48,7.74s9.47-2.67,9.47-7.74Z" style="fill:#fff;opacity:0.6000000000000001"></path><path d="M361.75,204.62c-3.7-2.13-3.7-5.6,0-7.73a14.79,14.79,0,0,1,13.4,0c3.7,2.13,3.7,5.6,0,7.73A14.79,14.79,0,0,1,361.75,204.62Z" style="fill:#407BFF"></path><path d="M362.23,204.87a15,15,0,0,0,12.44,0c1.26-1.49.82-3.34-1.32-4.58a10.85,10.85,0,0,0-9.8,0C361.4,201.53,361,203.38,362.23,204.87Z" style="opacity:0.1"></path><path d="M366,206.21h0a.15.15,0,0,1-.15-.17l2.44-26.58a.17.17,0,0,1,.18-.15.17.17,0,0,1,.15.18l-2.44,26.58A.17.17,0,0,1,366,206.21Z" style="fill:#37474f"></path><path d="M377.6,199.5a.15.15,0,0,1-.15-.1l-9.15-19.87a.17.17,0,1,1,.3-.14l9.15,19.87a.17.17,0,0,1-.08.22Z" style="fill:#37474f"></path><path d="M361.75,197.05h-.06a.16.16,0,0,1-.1-.21l6.7-17.43a.17.17,0,0,1,.22-.09.17.17,0,0,1,.09.21l-6.7,17.42A.16.16,0,0,1,361.75,197.05Z" style="fill:#37474f"></path><path d="M397.19,179.17c-.08,5.06,4.24,7.74,9.47,7.74s9.48-2.67,9.48-7.74Z" style="fill:#407BFF"></path><path d="M397.19,179.17c-.08,5.06,4.24,7.74,9.47,7.74s9.48-2.67,9.48-7.74Z" style="fill:#fff;opacity:0.6000000000000001"></path><path d="M400,183c-3.7-2.14-3.7-5.6,0-7.74a14.79,14.79,0,0,1,13.4,0c3.7,2.14,3.7,5.6,0,7.74A14.85,14.85,0,0,1,400,183Z" style="fill:#407BFF"></path><path d="M400.44,183.29a15.08,15.08,0,0,0,12.44,0c1.26-1.49.83-3.34-1.32-4.58a10.78,10.78,0,0,0-9.8,0C399.62,180,399.18,181.8,400.44,183.29Z" style="opacity:0.1"></path><path d="M404.22,184.62h0a.17.17,0,0,1-.15-.18l2.45-26.58a.17.17,0,1,1,.33,0l-2.45,26.58A.16.16,0,0,1,404.22,184.62Z" style="fill:#37474f"></path><path d="M415.81,177.91a.16.16,0,0,1-.15-.09L406.51,158a.16.16,0,0,1,.08-.22.16.16,0,0,1,.22.08L416,177.68a.17.17,0,0,1-.08.22Z" style="fill:#37474f"></path><path d="M400,175.47l-.06,0a.16.16,0,0,1-.09-.21l6.7-17.42a.16.16,0,0,1,.21-.1.17.17,0,0,1,.1.22l-6.7,17.42A.17.17,0,0,1,400,175.47Z" style="fill:#37474f"></path><path d="M367.93,180.25a1,1,0,0,1-.49-.14,1.45,1.45,0,0,1-.61-1.33,3.42,3.42,0,0,1,1.45-2.75,1.15,1.15,0,0,1,1.18-.07,1.47,1.47,0,0,1,.61,1.33,3.43,3.43,0,0,1-1.46,2.76A1.39,1.39,0,0,1,367.93,180.25Zm1-3.76a.72.72,0,0,0-.35.11,2.77,2.77,0,0,0-1.12,2.18c0,.38.1.66.28.76a.5.5,0,0,0,.51-.07,2.77,2.77,0,0,0,1.13-2.18.89.89,0,0,0-.28-.76A.35.35,0,0,0,369,176.49Z" style="fill:#455a64"></path><path d="M412.26,153.34a1.1,1.1,0,0,0-.49-.85.36.36,0,0,0-.34,0h0l-48,27.73.68,1.21,48.05-27.74h0A.34.34,0,0,0,412.26,153.34Z" style="fill:#455a64"></path><path d="M363.72,180.23a1.1,1.1,0,0,1,.49.85c0,.31-.22.44-.49.29a1.08,1.08,0,0,1-.5-.86C363.22,180.2,363.44,180.07,363.72,180.23Z" style="fill:#37474f"></path><path d="M388.74,163.79a.5.5,0,0,0-.29-.41,1.59,1.59,0,0,0-1.41,0,.49.49,0,0,0-.3.41h0v2.55h0a.45.45,0,0,0,.28.49,1.53,1.53,0,0,0,1.41,0,.45.45,0,0,0,.28-.49h0Z" style="fill:#37474f"></path><path d="M388.74,163.91a.53.53,0,0,0,0-.16,1.35,1.35,0,0,0-.68-.38,1.27,1.27,0,0,0-.28,0h0a1.27,1.27,0,0,0-.28,0,1.29,1.29,0,0,0-.67.38.37.37,0,0,0-.05.16v1.58a1.42,1.42,0,0,0,2,0Z" style="opacity:0.1"></path><path d="M390.62,161.46a2.88,2.88,0,1,1-2.88-2.88A2.88,2.88,0,0,1,390.62,161.46Z" style="fill:#407BFF"></path><path d="M386.27,160.8a2.13,2.13,0,1,0,4.26,0h0a2.86,2.86,0,0,0-2.11-2.12h0A2.13,2.13,0,0,0,386.27,160.8Z" style="opacity:0.2"></path><path d="M390.53,160.79h0a2.13,2.13,0,1,1-2.13-2.13h0a3.09,3.09,0,0,0-.68-.09,2.88,2.88,0,1,0,2.88,2.88A2.93,2.93,0,0,0,390.53,160.79Z" style="opacity:0.30000000000000004"></path></g><g id="freepik--Laptop--inject-67"><path id="freepik--shadow--inject-67" d="M353.4,187.66l-36.39-21a2.06,2.06,0,0,0-2.09,0l-63.14,36.46a.46.46,0,0,0,0,.8l36.73,21.21Z" style="opacity:0.1"></path><path d="M350.69,183.23v.82A3.36,3.36,0,0,1,349,187l-58.82,34a3.39,3.39,0,0,1-3.36,0l-32.06-18.45a3.37,3.37,0,0,1-1.68-2.91v-1.13h0a.43.43,0,0,0,.21.37l35.21,20.33Z" style="fill:#37474f"></path><path d="M288.52,219.13v2.23a3.31,3.31,0,0,0,1.67-.44L349,187a3.36,3.36,0,0,0,1.68-2.91v-.82Z" style="fill:#263238"></path><path d="M350.69,183.23,315.82,163.1a2,2,0,0,0-2,0L253.32,198a.44.44,0,0,0,0,.77l35.2,20.33Z" style="fill:#455a64"></path><polygon points="288.19 216.17 269.38 205.32 324.38 173.57 343.29 184.36 288.19 216.17" style="fill:#37474f"></polygon><polygon points="343.29 184.36 342.57 184.77 324.38 174.39 270.11 205.73 269.39 205.32 324.38 173.56 343.29 184.36" style="fill:#263238"></polygon><polygon points="278.95 185.99 279.3 186.19 288.52 191.51 304.91 182.05 305.25 181.85 295.69 176.33 278.95 185.99" style="fill:#263238"></polygon><polygon points="279.3 186.19 288.52 191.51 304.91 182.05 295.69 176.72 279.3 186.19" style="fill:#37474f"></polygon><path d="M289.46,219.62a4,4,0,0,0,3.44-.26l58.55-33.81a4,4,0,0,0,1.94-2.78l6.41-38.23a4.89,4.89,0,0,0,.05-.66,4,4,0,0,0-1.18-2.83l-60.85,35.14a3,3,0,0,0-1.43,2.06Z" style="fill:#37474f"></path><path d="M288.52,219.13l.4.23a3.36,3.36,0,0,0,.54.26l6.93-41.37a3,3,0,0,1,1.43-2.06l60.85-35.14a4.23,4.23,0,0,0-.81-.62l-61,35.21a2.92,2.92,0,0,0-1.43,2.06Z" style="fill:#455a64"></path><path d="M297,177l-.95-.54a2.9,2.9,0,0,0-.55,1.27l-6.94,41.43.4.23a3.36,3.36,0,0,0,.54.26l6.93-41.37A2.86,2.86,0,0,1,297,177Z" style="fill:#263238"></path><path d="M322.44,184.33c.43-2.56,3.07-6,5.9-7.59s4.78-.88,4.35,1.68-3.07,6-5.9,7.59S322,186.89,322.44,184.33Z" style="fill:#407BFF"></path></g><g id="freepik--Folder--inject-67"><polygon points="328.99 214.56 280.68 242.45 319.24 264.71 367.43 236.89 328.99 214.56" style="opacity:0.2"></polygon><path d="M362.84,233.47a.8.8,0,0,0,0-1.52l-37.12-21.57-48.31,27.9,37.24,21.5a2.9,2.9,0,0,0,2.63,0l27.6-15.93,4.61.87a1.31,1.31,0,0,0,.87-.15l11.45-6.6a1.26,1.26,0,0,0,.42-1.78L361,234.53Z" style="fill:#407BFF"></path><path d="M362.84,233.47a.8.8,0,0,0,0-1.52l-37.12-21.57-48.31,27.9,37.24,21.5a2.9,2.9,0,0,0,2.63,0l27.6-15.93,4.61.87a1.31,1.31,0,0,0,.87-.15l11.45-6.6a1.26,1.26,0,0,0,.42-1.78L361,234.53Z" style="opacity:0.15"></path><polygon points="325.72 210.38 279.04 237.33 315.97 258.67 364.16 230.84 325.72 210.38" style="fill:#f0f0f0"></polygon><path d="M277.41,238.28l37.18,17.27a3.28,3.28,0,0,0,2.69-.12l45.56-26.31c.73-.42.7-1.05-.06-1.4l-37.06-17.34Z" style="fill:#407BFF"></path></g></g><g id="freepik--Diplomas--inject-67"><g id="freepik--Diploma--inject-67"><g id="freepik--Window--inject-67"><polygon points="418.94 114.68 417.14 115.71 372.35 89.8 374.14 88.77 418.94 114.68" style="fill:#f5f5f5"></polygon><polygon points="374.14 88.77 417.14 113.64 417.17 76.35 374.17 51.48 374.14 88.77" style="fill:#407BFF"></polygon><g style="opacity:0.8"><polygon points="374.14 88.77 417.14 113.64 417.17 76.35 374.17 51.48 374.14 88.77" style="fill:#fff"></polygon></g><path d="M370.55,90.84l48.38,28,0-43.5-48.38-28Zm1.83-40.4,44.79,25.91,0,39.36L372.35,89.8Z" style="fill:#ebebeb"></path><polygon points="372.35 89.8 374.14 88.77 374.17 51.48 372.38 50.44 372.35 89.8" style="fill:#e0e0e0"></polygon><polygon points="370.59 47.34 372.38 46.3 420.76 74.28 418.97 75.32 370.59 47.34" style="fill:#f5f5f5"></polygon><polygon points="420.76 74.28 418.97 75.32 418.93 118.82 420.73 117.79 420.76 74.28" style="fill:#e0e0e0"></polygon></g><path d="M405.83,97.44a6.68,6.68,0,0,1,3,5.24c0,1.93-1.36,2.71-3,1.74a6.68,6.68,0,0,1-3-5.24C402.8,97.25,404.16,96.47,405.83,97.44Z" style="fill:#407BFF"></path><path d="M383.6,61.57l22.77,13.16a2.56,2.56,0,0,1,1.15,2v.06c0,.74-.52,1-1.15.67L383.6,64.3a2.54,2.54,0,0,1-1.15-2v-.08C382.45,61.5,383,61.21,383.6,61.57Z" style="opacity:0.2"></path><g style="opacity:0.2"><path d="M380,67.77l30,17.34a2.29,2.29,0,0,1,1.15,1.7c0,.57-.52.73-1.15.37L380,69.83a2.27,2.27,0,0,1-1.13-1.69C378.83,67.57,379.35,67.4,380,67.77Z"></path><path d="M380,71.91l30,17.33a2.31,2.31,0,0,1,1.14,1.7c0,.57-.51.74-1.14.37L380,74a2.28,2.28,0,0,1-1.14-1.69C378.83,71.7,379.35,71.54,380,71.91Z"></path><path d="M380,76l30,17.34a2.3,2.3,0,0,1,1.15,1.7c0,.57-.51.74-1.15.37L380,78.1a2.24,2.24,0,0,1-1.14-1.69C378.83,75.84,379.35,75.68,380,76Z"></path></g><path d="M400.44,100.07a3.66,3.66,0,0,1-.75-.67,2.12,2.12,0,0,1-.56-1.75c0-.19-.27-.83-.42-.74a9.88,9.88,0,0,1-1.3.54c-.26.12-.74.5-1.36-.35a1.8,1.8,0,0,1-.34-1.06,1.52,1.52,0,0,0,.4-1.41c0-.22-.35-.84-.45-.7a2.46,2.46,0,0,0-.39,1.27,2.2,2.2,0,0,1-1,.33,4,4,0,0,1-.62.13c-.06,0-.16,0-.25-.06a.63.63,0,0,1-.22-.48.89.89,0,0,1,.1-.5h0l0,0v0c0-.21-.26-.8-.37-.67a1.88,1.88,0,0,1-1.76.9l-.12,0c0-.13,0-.28,0-.41a4.62,4.62,0,0,0-.14-1c-.05-.19-.28-.66-.4-.62-.63.18-1.14.69-2,.45a2.09,2.09,0,0,1-.42-.19c-.14-.24.07-.72.1-.8a4,4,0,0,1,.3-.62,1.26,1.26,0,0,0,.24-.52c0-.2-.39-1.07-.47-.82,0,.09-.15.29-.27.55a4.13,4.13,0,0,1-1.69.9,2.6,2.6,0,0,1-2.34-.45,3,3,0,0,1-1.05-1.08,2.57,2.57,0,0,1-.28-1.16,4.48,4.48,0,0,1,.28-1.76,9,9,0,0,0,2.6,1.17c.72.2,1.5.4,2,.1.27-.17.43-.78-.22-1.8a3.85,3.85,0,0,0-1.4-1.29,3.75,3.75,0,0,0-1.43-.54,1.75,1.75,0,0,0-1.79,1.21c-.05.12-.13.28-.2.48a14.28,14.28,0,0,1-3.3-3.27c-.06-.08-.09,0,0,.12a16.15,16.15,0,0,0,3.23,3.42,4.46,4.46,0,0,0,.72,4.06c1.24,1.79,2.57,1.84,3.2,1.73a2.62,2.62,0,0,0,1.25-.58s.07,0,.11,0a2.12,2.12,0,0,0,.68,1.7,1.25,1.25,0,0,0,1.42.28,4.88,4.88,0,0,0,.86-.31,2.65,2.65,0,0,0,.64,1.77c.48.46.91.08,1.15,0a2,2,0,0,0,.57-.28,1.6,1.6,0,0,0,.11.3c.41.93.91,1,1.18,1a5.19,5.19,0,0,0,1.17-.25,3.92,3.92,0,0,0,.49,1.14c.64,1,1.24,1.2,1.61,1.16A2.79,2.79,0,0,0,398.7,98a3.45,3.45,0,0,0,.44,1.13,4.36,4.36,0,0,0,1.51,1.64C400.84,100.86,400.65,100.21,400.44,100.07Zm-14-13.71c.3.19.92.66.95,1.2,0,.31-.25.36-.41.4a3.49,3.49,0,0,1-1.74-.16,8.27,8.27,0,0,1-2.18-.86C383.58,85.71,384.64,85.2,386.42,86.36Z" style="opacity:0.30000000000000004"></path></g><g id="freepik--diploma--inject-67"><g id="freepik--window--inject-67"><polygon points="344.99 114.83 343.2 115.86 298.4 89.95 300.19 88.91 344.99 114.83" style="fill:#f5f5f5"></polygon><polygon points="300.19 88.91 343.2 113.79 343.23 76.5 300.22 51.62 300.19 88.91" style="fill:#407BFF"></polygon><g style="opacity:0.8"><polygon points="300.19 88.91 343.2 113.79 343.23 76.5 300.22 51.62 300.19 88.91" style="fill:#fff"></polygon></g><path d="M296.61,91,345,119l0-43.5-48.38-28Zm1.82-40.39,44.8,25.91,0,39.36L298.4,90Z" style="fill:#ebebeb"></path><polygon points="298.4 89.95 300.19 88.91 300.22 51.62 298.43 50.59 298.4 89.95" style="fill:#e0e0e0"></polygon><polygon points="296.64 47.48 298.43 46.45 346.81 74.43 345.02 75.46 296.64 47.48" style="fill:#f5f5f5"></polygon><polygon points="346.81 74.43 345.02 75.46 344.99 118.97 346.78 117.93 346.81 74.43" style="fill:#e0e0e0"></polygon></g><path d="M331.88,97.58a6.69,6.69,0,0,1,3,5.24c0,1.93-1.36,2.72-3,1.75a6.71,6.71,0,0,1-3-5.24C328.85,97.4,330.21,96.61,331.88,97.58Z" style="fill:#407BFF"></path><path d="M309.65,61.72l22.77,13.16a2.5,2.5,0,0,1,1.15,2v.07c0,.73-.51,1-1.15.66L309.65,64.44a2.53,2.53,0,0,1-1.15-2v-.08C308.5,61.65,309,61.35,309.65,61.72Z" style="opacity:0.2"></path><g style="opacity:0.2"><path d="M306,67.92l30,17.33a2.3,2.3,0,0,1,1.15,1.7c0,.57-.51.74-1.15.37L306,70a2.22,2.22,0,0,1-1.14-1.69C304.89,67.71,305.41,67.55,306,67.92Z"></path><path d="M306,72.05l30,17.34a2.29,2.29,0,0,1,1.15,1.7c0,.57-.52.74-1.15.37L306,74.11a2.25,2.25,0,0,1-1.13-1.69C304.88,71.85,305.4,71.69,306,72.05Z"></path><path d="M306,76.19l30,17.33a2.31,2.31,0,0,1,1.14,1.7c0,.57-.51.74-1.14.37L306,78.24a2.24,2.24,0,0,1-1.13-1.69C304.88,76,305.4,75.82,306,76.19Z"></path></g><path d="M326.49,100.21a3.55,3.55,0,0,1-.74-.66,2.15,2.15,0,0,1-.56-1.76c0-.19-.28-.83-.43-.73a10.71,10.71,0,0,1-1.3.53c-.25.12-.74.5-1.35-.34a1.76,1.76,0,0,1-.34-1.07,1.52,1.52,0,0,0,.4-1.41c0-.21-.35-.84-.46-.69a2.52,2.52,0,0,0-.39,1.27,2.07,2.07,0,0,1-1,.32,2.44,2.44,0,0,1-.62.13.31.31,0,0,1-.25,0,.65.65,0,0,1-.22-.48.86.86,0,0,1,.11-.5h0s0,0,0,0h0c0-.21-.26-.81-.36-.68a1.89,1.89,0,0,1-1.76.9l-.12,0c0-.13,0-.28-.05-.41a4.71,4.71,0,0,0-.14-1c0-.18-.27-.65-.4-.62-.63.19-1.14.69-2,.46a2.36,2.36,0,0,1-.42-.2c-.14-.23.07-.71.1-.79a3.57,3.57,0,0,1,.3-.62,1.32,1.32,0,0,0,.24-.52c0-.2-.39-1.07-.46-.83s-.15.29-.28.55a4,4,0,0,1-1.68.9A2.58,2.58,0,0,1,310,91.4,3,3,0,0,1,309,90.32a2.57,2.57,0,0,1-.27-1.17A4.39,4.39,0,0,1,309,87.4a8.86,8.86,0,0,0,2.6,1.17c.71.19,1.49.39,2,.09.27-.17.43-.78-.22-1.8a3.8,3.8,0,0,0-1.4-1.28,3.61,3.61,0,0,0-1.42-.54,1.76,1.76,0,0,0-1.79,1.2q-.09.18-.21.48a14.61,14.61,0,0,1-3.3-3.26c-.06-.08-.08,0,0,.11A15.75,15.75,0,0,0,308.39,87a4.45,4.45,0,0,0,.71,4.06c1.24,1.78,2.58,1.84,3.2,1.72a2.78,2.78,0,0,0,1.26-.57s.07,0,.1,0a2.13,2.13,0,0,0,.69,1.7,1.23,1.23,0,0,0,1.42.28,6.11,6.11,0,0,0,.85-.3,2.64,2.64,0,0,0,.64,1.76c.48.46.92.09,1.15,0a2,2,0,0,0,.57-.29,1.82,1.82,0,0,0,.11.3c.42.93.91,1,1.18,1a5.18,5.18,0,0,0,1.17-.24,4.3,4.3,0,0,0,.49,1.13c.64,1,1.25,1.21,1.62,1.16a2.63,2.63,0,0,0,1.2-.54,3.42,3.42,0,0,0,.44,1.12,4.48,4.48,0,0,0,1.51,1.65C326.9,101,326.7,100.35,326.49,100.21Zm-14-13.71c.3.2.92.66.95,1.2,0,.31-.25.36-.4.41a3.64,3.64,0,0,1-1.75-.16,9.18,9.18,0,0,1-2.18-.86C309.64,85.86,310.69,85.35,312.47,86.5Z" style="opacity:0.30000000000000004"></path></g></g><g id="freepik--Character--inject-67"><g id="freepik--Chartacter--inject-67"><g id="freepik--Bottom--inject-67"><polygon points="79.21 391.11 73.46 388.98 75.31 385.08 78.86 388.35 79.21 391.11"></polygon><path d="M85.08,380.72s.25,3.74.31,4.91-4.94,4.86-6.18,5.47l-.35-2.75A21.59,21.59,0,0,0,76,392.82c-1,1.69-2.17,4.87-4.81,7-3.93,3.24-10.06,4.9-16.32,5.16s-9.86-1.26-11.65-2.61-2.36-2.93-1.93-4.53S85.08,380.72,85.08,380.72Z" style="fill:#263238"></path><path d="M68.26,368.07l-.09-2.17c-1.16,0-1.28,3.11-3,5.87a55.73,55.73,0,0,1-8.76,11.32c-6.32,5.83-12,9.49-14.79,12.12-3.78,3.5,2.92,9,13.14,8.38,5.07-.31,14.08-2.91,16.59-5.92s4-7.7,6.07-9.89,6.36-4.41,7.61-7.06c.69-1.45.31-4.84-.12-7.72-.4-2.65-.5-6.7-2-6.37l-.1,1.37c-.6,1.16-2,3.07-6.09,3.79C74.74,372.14,68.64,372.36,68.26,368.07Z" style="fill:#455a64"></path><path d="M73.49,371.91c-1.95-.16-4.06-.79-4.89-2.55l0-.06a5,5,0,0,1-1.3,4.18C65.45,375.63,54,390.78,54,390.78s10.69-12.51,12.74-14.86c3-3.48,4-3.89,6.78-4Z" style="opacity:0.15"></path><path d="M41.67,395.21c2.38-2.22,6.78-5.18,11.9-9.56-1.08,1.74-2.65,3.09-2.81,3.66-.39,1.42,3.82,3.37,6.39,4s5.44-3,9.2-6.36,7.11.52,8.41,5.16a31.13,31.13,0,0,1-3.36,5.52c-2.51,3-11.52,5.61-16.59,5.92C44.59,404.22,37.89,398.71,41.67,395.21Z" style="fill:#37474f"></path><path d="M71,375.92a.62.62,0,1,0,1.24-.14.62.62,0,1,0-1.24.14Z" style="opacity:0.15"></path><path d="M68,379.28a.62.62,0,0,0,1.24-.15.62.62,0,1,0-1.24.15Z" style="opacity:0.15"></path><path d="M65,382.63a.62.62,0,1,0,.55-.7A.63.63,0,0,0,65,382.63Z" style="opacity:0.15"></path><path d="M62,386a.63.63,0,0,0,.69.55.62.62,0,1,0-.14-1.24A.63.63,0,0,0,62,386Z" style="opacity:0.15"></path><path d="M59,389.33a.63.63,0,0,0,.69.55.62.62,0,1,0-.69-.55Z" style="opacity:0.15"></path><path d="M71.6,376.1a.24.24,0,0,0,.16-.07.25.25,0,0,0,0-.36,10.31,10.31,0,0,0-7.09-2.76h0a.25.25,0,0,0-.23.27.25.25,0,0,0,.26.23c3.72-.23,6.68,2.59,6.71,2.62A.23.23,0,0,0,71.6,376.1Z" style="fill:#263238"></path><path d="M68.6,379.44a.24.24,0,0,0,.16-.07.26.26,0,0,0,0-.36,10.31,10.31,0,0,0-7.09-2.76h0a.25.25,0,0,0-.22.27.23.23,0,0,0,.26.23c3.71-.23,6.68,2.59,6.7,2.62A.23.23,0,0,0,68.6,379.44Z" style="fill:#263238"></path><path d="M65.6,382.81a.25.25,0,0,0,.16-.08.25.25,0,0,0,0-.36,10.36,10.36,0,0,0-7.09-2.76h0a.25.25,0,0,0-.23.27.24.24,0,0,0,.26.24c3.71-.24,6.68,2.59,6.71,2.62A.26.26,0,0,0,65.6,382.81Z" style="fill:#263238"></path><path d="M62.6,386.16a.25.25,0,0,0,.16-.08.24.24,0,0,0,0-.35A10.26,10.26,0,0,0,55.67,383h0a.25.25,0,0,0-.23.26.24.24,0,0,0,.26.24c3.71-.24,6.68,2.59,6.71,2.62A.26.26,0,0,0,62.6,386.16Z" style="fill:#263238"></path><path d="M59.6,389.51a.21.21,0,0,0,.16-.08.25.25,0,0,0,0-.35c-.13-.12-3.16-3-7.09-2.76h0a.26.26,0,0,0-.23.27.26.26,0,0,0,.27.23c3.71-.23,6.68,2.59,6.7,2.62A.26.26,0,0,0,59.6,389.51Z" style="fill:#263238"></path><path d="M114.5,408.09c-.15,5,.34,8.39,1.85,11.47s4.77,4.29,8.22,3.73,8-2.47,9.33-6.69,1.41-7.18,1-11.87Z" style="fill:#263238"></path><path d="M131.11,373.18c1.39.23,1.21,7,1.42,13.73.23,7.26,2.12,10.42,2.37,16.37.29,6.81-.33,9.79-3,13.65s-11.42,7.12-15,.93c-2.93-5-2.61-10.32-1.71-17,.92-6.92,1.63-11.78,1.81-17.07.17-5.07.25-10,1.51-10.43,0,.74,0,1.69.07,2.43,0,.56-.08,3.3.7,3.4a10,10,0,0,0,.18-1.9,2.29,2.29,0,0,1,.53-1.59,2.57,2.57,0,0,1,1.6-.56,39.47,39.47,0,0,1,4.2-.27,18.44,18.44,0,0,1,2.1.09,5.52,5.52,0,0,1,1.74.41,1.22,1.22,0,0,1,.69.75,2.21,2.21,0,0,1,0,.77,5.46,5.46,0,0,0,0,1.4c0,.2.15.46.35.43s.25-.22.27-.39c.07-.81,0-1.41.07-2.36,0-.44,0-1,0-1.48S131.11,373.61,131.11,373.18Z" style="fill:#455a64"></path><path d="M129.65,404.5a.5.5,0,0,1-.48.5.51.51,0,0,1-.5-.49.49.49,0,0,1,1,0Z" style="opacity:0.15"></path><path d="M129.59,399.82a.48.48,0,0,1-.48.49.5.5,0,0,1-.5-.48.51.51,0,0,1,.49-.5A.49.49,0,0,1,129.59,399.82Z" style="opacity:0.15"></path><path d="M129.53,395.39a.49.49,0,1,1-1,0,.49.49,0,0,1,.48-.5A.48.48,0,0,1,129.53,395.39Z" style="opacity:0.15"></path><path d="M129.48,391a.48.48,0,0,1-.48.49.49.49,0,0,1-.5-.48.49.49,0,1,1,1,0Z" style="opacity:0.15"></path><path d="M120.29,390.82a.49.49,0,1,1-1,0,.49.49,0,0,1,1,0Z" style="opacity:0.15"></path><path d="M120.35,395.21a.49.49,0,1,1-.5-.48A.48.48,0,0,1,120.35,395.21Z" style="opacity:0.15"></path><path d="M120.4,399.63a.49.49,0,1,1-1,0,.48.48,0,0,1,.48-.49A.48.48,0,0,1,120.4,399.63Z" style="opacity:0.15"></path><path d="M120.46,404.32a.49.49,0,1,1-.49-.48A.48.48,0,0,1,120.46,404.32Z" style="opacity:0.15"></path><path d="M134.9,403.28a38.28,38.28,0,0,0-1.05-7,2.94,2.94,0,0,0-.61.66,7,7,0,0,0-.8,2c-.25.87-.52,1.87-.74,2.63-.57,2-1.25,4.17-3,5.46a5.93,5.93,0,0,1-4,.79,15.71,15.71,0,0,1-3.64-.45c-1.52-.53-1.77-2-2.11-3.35q-.65-2.62-1.36-5.22a5,5,0,0,0-1.13-2.33,2,2,0,0,0-.61-.41c-.2,1.51-.42,3.1-.64,4.81-.9,6.7-1.22,12,1.71,17,3.6,6.19,12.3,2.93,15-.93S135.19,410.09,134.9,403.28Z" style="fill:#37474f"></path><polygon points="124.37 406.87 123.47 374.13 125.27 374.25 124.37 406.87" style="opacity:0.15"></polygon><path d="M129.16,404.76l-.07,0c-3.16-1-6.78-1.08-9-.22a.24.24,0,0,1-.32-.14.25.25,0,0,1,.15-.32c2.37-.91,6-.83,9.34.21a.24.24,0,0,1,.17.31A.26.26,0,0,1,129.16,404.76Z" style="fill:#263238"></path><path d="M129.1,400.07l-.12,0c-2.36-1.38-6.41-1.19-9-.2a.26.26,0,0,1-.32-.14.25.25,0,0,1,.15-.32c2.67-1,6.92-1.23,9.4.23a.26.26,0,0,1,.09.34A.25.25,0,0,1,129.1,400.07Z" style="fill:#263238"></path><path d="M129.05,395.65a.2.2,0,0,1-.13,0c-2.35-1.37-6.41-1.18-9-.19a.25.25,0,0,1-.32-.14.24.24,0,0,1,.14-.32c2.67-1,6.92-1.23,9.4.23a.25.25,0,0,1,.09.34A.27.27,0,0,1,129.05,395.65Z" style="fill:#263238"></path><path d="M129,391.29a.24.24,0,0,1-.12,0c-2.36-1.38-6.41-1.18-9-.2a.26.26,0,0,1-.32-.14.25.25,0,0,1,.15-.32c2.67-1,6.91-1.23,9.4.23a.25.25,0,0,1,.08.34A.22.22,0,0,1,129,391.29Z" style="fill:#263238"></path><path d="M120.1,184.05c3,5.91,6.75,17.31,7.46,24.94,2.92,31.36,4.85,79.63,4.85,79.63.33,3.28.89,9,2.53,23.42,1.94,17,.51,74.54.51,74.54s-13.09,5.53-20.76.58c0,0-11-78.31-13.48-95.25-2.13-14.78-6.79-50.11-6.79-50.11L88.7,289.24s.77,13.31.47,21.93c-.35,10-3.82,65.75-3.82,65.75s-13.43,5.8-23.54-1.82c0,0-1.17-68.43-1.55-80.47-.74-23.64,2.1-73.37,4.37-98.34Z" style="fill:#37474f"></path><path d="M94.42,241.8l-1.9-11.58s-11.38.3-17.43-5c0,0,2.43,7.2,14,8l1.78,9.61-1.48,40.8Z" style="opacity:0.2"></path></g><g id="freepik--Top--inject-67"><path d="M78.76,119.93c-5.08-.16-11.91.64-15.59,5.12-4.38,5.33-5.56,8.77-9.43,24.42-2.56,10.36-6.7,33.35-2.79,37s13.54,2.18,13.54,2.18Z" style="fill:#f28f8f"></path><path d="M63.39,165.86c-5,1.25-8.23,7-8.23,7A13.11,13.11,0,0,1,59.29,166,27.33,27.33,0,0,0,63.39,165.86Z" style="fill:#b16668;opacity:0.8"></path><path d="M81.32,119.62c-9.27-1.24-15.87.85-20.59,7.69-5,7.29-12.4,44-11.41,49.94,0,0,5.36-9.93,15.55-11.58S81.32,119.62,81.32,119.62Z" style="fill:#f0f0f0"></path><path d="M69.91,158.6c-9.66-1.1-16.29,1.32-19.07,4s-1,4.88-2,5.93-1.66,11.4.49,11l0-2.19s5.1-8.84,14.84-11.57Z" style="fill:#e0e0e0"></path><path d="M52.1,168.48c5.89-3.85,10.67-4.17,13-4l1.12-1.39C61.48,162.31,55.14,165.45,52.1,168.48Z" style="opacity:0.1"></path><path d="M49.18,166.56c0,.81.09,1.47-.32,1.92a21.67,21.67,0,0,1,12.89-6.93S56.61,160.79,49.18,166.56Z" style="opacity:0.1"></path><path d="M103.23,118.78c5.83.49,19.1,1.79,23.71,2.64,4,1.59,3,4.37,3.2,9.2.62,16.59-5.53,51.33-5.53,51.33l2.44,23.85c-7.91,8.09-43.54,14.53-63,2,0,0-1.41-40.33,2-64,2.42-16.95,8.43-23.82,14.6-24.16Z" style="fill:#fafafa"></path><path d="M99.8,79.16c.32,8.79-5.89,16.15-13.87,16.44s-14-6-15.56-13.82c-2.07-10.12,4-16.82,12-17.11S99.48,70.37,99.8,79.16Z" style="fill:#e0e0e0"></path><path d="M116.85,79c.4,11.13-9.52,20.54-22.18,21S71.43,91.85,71,80.71s9.52-20.54,22.17-21S116.44,67.9,116.85,79Z" style="fill:#e0e0e0"></path><path d="M73.72,75.18c1.53-6.45,7.42-11.61,22.33-10.46,8.47.66,12.64,6.43,14.13,11.81,1.19,4.31-1.5,23.22-1.5,23.22Z" style="fill:#f28f8f"></path><path d="M109.13,69s4.54.4,6.32,3.72c5.18,2.72,5.44,10,2.62,18.11-2.64,7.55-4.16,9.92-5.47,12a57.49,57.49,0,0,0-3.84,7.53l-.16-11,.07-6.42s-4.45-4.66-5.21-9.54a20.29,20.29,0,0,1,.42-9.76C104.53,71.42,106.3,68.84,109.13,69Z" style="fill:#e0e0e0"></path><path d="M108.43,92c1.44.24,2.27-2.29,3.51-3.65a4.54,4.54,0,0,1,7.5,1.47c2.21,4.4-.4,8.7-3.93,10.53-2.15,1.11-5.48,0-6.42-1.15l-.38,21.55h0c-3.8,5.09-10.55,2.49-18.28,5.06-2.47-5.94-1.84-3-.08-5.83l-.11-6.18s-5.09.88-7.59.55c-4.15-.55-6.83-3.76-8.18-8.22a65,65,0,0,1-1.66-27.15c1.24-6.89,3-8.5,8.13-9.63a39.88,39.88,0,0,1,20.57,1.43c2.26.87,2,.36,1.77,3.62C100.94,85,107,91.7,108.43,92Z" style="fill:#f28f8f"></path><path d="M90.24,113.75s9.2-2.06,12.4-3.85a10.72,10.72,0,0,0,4.37-4.51,14.58,14.58,0,0,1-2.43,5.26c-2.3,3.08-14.29,5.56-14.29,5.56Z" style="fill:#b16668"></path><path d="M91.92,88.22a1.86,1.86,0,1,0,3.71-.09,1.87,1.87,0,0,0-1.89-1.88A1.89,1.89,0,0,0,91.92,88.22Z"></path><path d="M92.48,82.1l4,2.1a2.37,2.37,0,0,0-1-3.13A2.21,2.21,0,0,0,92.48,82.1Z"></path><path d="M92.51,100.27l-6.11,2.44a3.24,3.24,0,0,0,4.23,2A3.46,3.46,0,0,0,92.51,100.27Z" style="fill:#b16668"></path><path d="M75,84.48l3.56-2.86a2.19,2.19,0,0,0-3.15-.42A2.39,2.39,0,0,0,75,84.48Z"></path><path d="M76.5,88a1.86,1.86,0,1,0,1.82-2A1.9,1.9,0,0,0,76.5,88Z"></path><path d="M86.44,85.31,86,98.55l-7-1.54C80.61,92.73,83.34,87.73,86.44,85.31Z" style="fill:#b16668"></path><path d="M73.72,75.18C76.83,70.78,92.42,70.85,98,74c0,0-6.08-6.3-17.82-5.3,0,0,13.64-3.77,23.24,4.06,0,0-4.63-10.43-22.24-7.21C81.17,65.52,72.08,69.15,73.72,75.18Z" style="fill:#e0e0e0"></path><path d="M86.7,128.65a7.08,7.08,0,0,1-.73-3.86l2.65-2,.09,3.37Z" style="fill:#407BFF"></path><path d="M86.7,128.65a7.08,7.08,0,0,1-.73-3.86l2.65-2,.09,3.37Z" style="opacity:0.25"></path><polygon points="91.87 126.53 98.76 122.48 104.01 126.54 93.55 131.04 91.87 126.53" style="fill:#407BFF"></polygon><polygon points="91.87 126.53 98.76 122.48 104.01 126.54 93.55 131.04 91.87 126.53" style="opacity:0.25"></polygon><path d="M90.91,134.11c-.68,4.79-1.6,31-1.39,47,0,3.94-5.59,12-6.94,11.83s-3.92-7.62-4.33-12c.41-10.54,6.61-41.84,9.32-47.46Z" style="fill:#407BFF"></path><path d="M87.37,134l.2-.46,3.34.55-.18,1.4A5.73,5.73,0,0,1,87.37,134Z" style="opacity:0.15"></path><path d="M91.87,126.52a14.53,14.53,0,0,0-3.16-.34,7.57,7.57,0,0,0-2,2.47,11.56,11.56,0,0,0,.87,4.91,4.05,4.05,0,0,0,3.34.55A7.09,7.09,0,0,0,93.55,131,6.45,6.45,0,0,0,91.87,126.52Z" style="fill:#407BFF"></path><path d="M112,119.59l-26.1,37a59.58,59.58,0,0,1,1.38-37.14l-7.91,0S66,121.82,64.46,141.94c-1.46,18.95.64,39.87.64,39.87L63,210.68l14.34,9.13,4.85-4.5L89,220.64s23.38,1,38.56-14.06L125,182l-2-61.12Z" style="fill:#455a64"></path><path d="M85.87,156.58a33.73,33.73,0,0,0-4.2,4.9c-1.52,2.18-3.15,3.82-2.44,13.2.84,11,2.93,40.63,2.93,40.63s-3.28-26.44-3.88-32.4c-.88-8.62-2.23-14.91-.25-19.19C78.74,162.2,85.87,156.58,85.87,156.58Z" style="fill:#37474f"></path><path d="M122.17,172.34l-2.59-21.65c-2.7-17.31,2.85-27.93,5.2-29.62,6.8,1.1,10.9,1.29,15,16.08,1.5,5.48,1.69,12.14,2.61,22.49.73,8.17.86,16.58.84,26.16,0,6.91-3,8.27-11.56,8.81-7.13.45-29.6-1.91-42.18-4.14-5.08-.9-12.56-2.78-16.5-3.79-2.88-.74-13.85-3-13.43-7.27a3.92,3.92,0,0,1,2-2.85,10.1,10.1,0,0,1,3.47-1,56.73,56.73,0,0,1,16-.27c4,.5,7.8,1.16,11.81,1.43,3.86.25,12-4.87,15.89-4.76C116,172.12,122.17,172.34,122.17,172.34Z" style="fill:#f28f8f"></path><path d="M133.07,181s-.61-6.11-10.9-8.65c0,0-6.19-.22-13.44-.41-3.86-.11-12,5-15.89,4.76-4-.27-7.82-.93-11.81-1.43a56.73,56.73,0,0,0-16,.27,10.1,10.1,0,0,0-3.47,1,3.9,3.9,0,0,0-2,2.85c-.42,4.31,10.55,6.53,13.43,7.27,2.08.53,5.15,1.31,8.33,2,11.47-4.14,36.46-15.09,40.91-14.31C127.22,175.29,131.54,177.84,133.07,181Z" style="fill:#b16668;opacity:0.8"></path><path d="M142.16,145.15c-1.34-12.55-2.27-14.86-4.87-18.91S129,120.58,123,120.83c-6.58,9.73-4.61,26.92-4.61,26.92l3.73,24.59c6.61,2.2,14.1,6.8,21.13,15.55a23.6,23.6,0,0,0,.5-6.36S143.51,157.7,142.16,145.15Z" style="fill:#f0f0f0"></path><path d="M117.57,172.94c-9.44,1.84-41.19,15.23-55.91,16-4.58-1.12-5.2-3.39-6.86-9.46s5-13.12,9.36-13.78c43.61-.58,57.78,5.21,57.78,5.21l.23,1.45S120.3,172.5,117.57,172.94Z" style="fill:#f28f8f"></path><polygon points="121.94 170.89 122.17 172.34 120.24 172.56 120.37 170.38 121.94 170.89" style="fill:#b16668;opacity:0.8"></polygon><path d="M122.17,172.34a55.06,55.06,0,0,1,12.63,7.48c5.43,4.55,7.68,8.51,8,9.41l-.59,1.55s.91.78,1.67-.77.32-3.34.73-4.11,1.55-3.12.84-4.7-.25-3.25-.27-4.42.08-5.16-8.68-9.41-14.63-3.65-15.59-3.14c-.51.86-.22,1.14-.17,2.29s-.11,2.17.41,3S121.19,171.14,122.17,172.34Z" style="fill:#e0e0e0"></path><path d="M140.29,181.14s-1.06-3.61-8.22-7.87c-5-3-9.22-3.87-11-3.93a1.29,1.29,0,0,0,.09.16,2.47,2.47,0,0,1,.33,1.23C124.4,170.55,135.94,175.19,140.29,181.14Z" style="opacity:0.1"></path><path d="M145.13,178h0c-8.54-7.94-15.51-8.6-15.51-8.6a28.88,28.88,0,0,1,15.57,11h0A7.8,7.8,0,0,1,145.13,178Z" style="opacity:0.1"></path><path d="M108.89,110.65l0,1.76c-.25,1.33-2.6,4.08-9.16,7.13s-9.27,6.22-9.27,6.22a17.26,17.26,0,0,1,5.25.9c3,1,8,4.79,9.48,4.73s3.47-3.64,7.16-7.61c3.1-3.34,3.57-3.78,3.57-3.78C113.42,117.38,111.11,110.35,108.89,110.65Z" style="fill:#e6e6e6"></path><path d="M90.38,125.65c-4.16-.23-6.77,3.29-7.36,2.42s2.37-10.8,7.22-12.66Z" style="fill:#e6e6e6"></path></g></g></g></svg>