<?xml version="1.0" encoding="utf-8"?>
<!-- Generator: Adobe Illustrator 16.0.0, SVG Export Plug-In . SVG Version: 6.00 Build 0)  -->
<!DOCTYPE svg PUBLIC "-//W3C//DTD SVG 1.1//EN" "http://www.w3.org/Graphics/SVG/1.1/DTD/svg11.dtd">
<svg version="1.1" id="Layer_1" xmlns="http://www.w3.org/2000/svg" xmlns:xlink="http://www.w3.org/1999/xlink" x="0px" y="0px"
	 width="960px" height="305px" viewBox="0 0 960 305" enable-background="new 0 0 960 305" xml:space="preserve">
<g>
	<path fill="#CF381E" d="M630.465,304.88c18.435-0.239,35.911-7.421,48.598-20.35c12.929-12.927,20.11-30.402,20.11-48.598V69.547
		c0-18.433-7.182-35.911-19.869-49.077C666.376,7.541,648.899,0.12,630.465,0.12H463.122c-18.434,0.24-35.911,7.421-48.599,20.35
		c-12.928,13.167-20.11,30.645-20.11,49.077v166.625c0.239,37.826,30.883,68.469,68.709,68.708"/>
	<path fill="#FFFFFF" d="M583.063,161.957c-6.465,21.546,4.068,43.092,26.333,34.475c-6.464,15.561-17.238,38.782-17.238,62.962
		c0,0,0,16.28,11.97,20.35c0,0,16.76,4.07,13.171-10.773c-2.634-9.337-3.351-18.912-2.155-28.488
		c4.068-19.872,10.295-39.263,18.435-57.936c0,0,25.616-53.388,40.458-78.285c0,0,6.223-12.688-6.465-12.688
		c-3.83,0-7.422,1.915-9.814,5.026l-36.148,64.399c-5.51,10.056-10.774,13.169-14.846,13.169c-9.095,0-7.182-14.604-5.744-19.873
		c4.068-17.955,10.533-35.189,19.152-51.711c6.464-14.124-6.465-15.32-6.465-15.32c-8.141-2.155-14.363,11.253-14.363,11.253
		l-14.365,29.206c-9.337,16.28-19.631,31.841-30.643,46.924c0,0-1.918,2.393-3.352,1.437c-1.438-1.198-0.721-3.591-0.721-3.591
		c2.396-19.872,6.465-39.503,11.971-58.895c0.24-1.198,0.479-2.154,0.479-3.351c0.242-2.634-0.479-5.267-2.154-7.184
		c-1.676-2.154-4.068-3.351-6.703-3.351c-6.464-0.717-9.577,2.395-15.32,9.336c-12.688,15.563-27.533,39.023-34.715,49.558
		c-0.717,1.196-2.154,0.957-2.154-0.719c0-4.789,16.759-56.5,16.759-56.5s1.913-7.181-3.83-9.575c0,0-8.856-5.506-16.042,5.266
		l-34.473,46.925c-2.633,3.591-4.069,2.395-4.069,2.395v-3.113l5.506-30.643c4.31-23.461-3.83-24.659-9.097-25.616
		c-3.831,0-7.9,1.196-11.253,3.352c-10.772,5.266-18.912,26.574-18.912,26.574s-2.394,7.66,2.872,10.771
		c1.677,0.957,3.592,1.676,5.507,1.437c7.661-0.479,9.098-14.604,14.604-14.604c0.958,0,0.958,1.198,0.958,1.438l-17.716,74.455
		c-1.197,4.308,0.718,8.856,4.31,11.251c2.394,1.437,5.027,1.676,7.66,1.196c2.395-0.717,4.549-2.393,5.985-4.547l6.463-10.055
		c9.338-16.52,26.575-40.221,28.251-40.221c0.717,0,0.959,0,0.959,0.717l-6.466,43.813c-0.719,3.83,1.437,7.899,5.028,9.575
		c3.351,1.196,6.943,0.957,10.053-0.719c3.592-2.872,6.705-6.464,8.86-10.534c3.589-5.745,20.827-26.095,31.359-44.768
		c0.721-1.198,1.438,0,1.2,0.719c-2.154,9.815-3.834,35.909-4.072,42.373c-0.479,12.689,9.336,14.125,9.578,14.125
		c6.465,0.479,12.688-2.395,16.279-7.66"/>
	<path fill="#174880" d="M67.868,190.924H48.715v-42.853c0.24-4.788-0.719-9.577-2.872-13.646c-2.155-3.113-5.985-5.028-9.816-4.549
		c-3.352,0-6.464,0.719-9.097,2.395c-2.874,1.915-5.267,4.547-6.942,7.421v51.231H0.835V113.12h10.772l7.183,10.532
		c1.915-1.676,3.83-3.113,5.745-4.548c1.915-1.198,3.83-2.154,5.985-3.113c2.154-0.958,4.31-1.676,6.464-2.154
		c2.154-0.479,4.549-0.717,6.943-0.717c2.633,0,5.266,0.237,7.66,0.956c1.915,0.719,3.83,1.436,5.745,2.632
		c1.438,1.198,2.873,2.635,4.07,4.072c1.437,1.913,2.395,3.589,3.353,5.506c1.436-1.438,3.112-3.113,5.027-4.549
		c1.915-1.437,4.069-2.874,6.463-4.07c2.155-1.436,4.55-2.634,7.183-3.591c2.873-0.719,5.745-1.198,8.857-1.198
		c3.83,0,7.422,0.959,10.773,2.634c3.112,1.916,5.746,4.31,7.422,7.182c1.915,3.593,3.351,7.184,4.069,11.253
		c0.958,4.548,1.437,9.099,1.437,13.886v43.092H96.596v-42.853c0.479-4.788-0.479-9.577-2.872-13.646
		c-2.155-3.113-5.747-5.028-9.577-4.549c-3.112,0-6.225,0.719-9.098,2.395c-2.872,1.915-5.506,4.31-7.181,7.421"/>
	<path fill="#174880" d="M178.472,155.492h-16.997c-3.592-0.239-6.943,0.72-10.056,2.635c-1.915,1.915-3.112,4.549-3.112,7.421
		c0,2.634,0.958,5.028,2.873,6.943c2.154,1.676,5.027,2.632,7.9,2.393c2.154,0,4.31-0.238,6.464-0.957
		c1.915-0.479,3.83-1.198,5.506-2.154c1.676-1.196,3.112-2.395,4.31-3.591c1.437-1.438,2.394-2.874,3.352-4.31 M178.472,182.307
		c-2.634,2.632-5.984,4.787-9.337,6.225c-4.548,1.676-9.337,2.632-14.125,2.393c-3.351,0.239-6.942-0.478-10.055-1.676
		c-2.873-1.196-5.506-2.871-7.9-5.026c-2.155-2.395-3.83-5.028-5.027-7.9c-1.197-3.113-1.676-6.464-1.676-9.815
		c0-14.364,11.252-23.702,29.208-23.702h19.151v-4.31c0-2.872-1.676-5.265-4.069-6.463c-3.831-1.677-8.14-2.634-12.449-2.395
		c-4.788,0-9.576,0.718-14.125,1.676c-3.591,0.959-7.183,2.155-10.773,3.593l-2.154-16.042c1.197-0.717,2.873-1.196,5.027-1.913
		c1.915-0.719,4.31-1.198,6.465-1.917c2.153-0.479,5.027-0.957,7.899-1.437c2.873-0.477,5.985-0.477,9.098-0.477
		c8.858-0.722,17.955,2.154,24.658,7.897c5.985,6.227,8.858,14.604,8.379,22.984v46.922h-13.646L178.472,182.307z"/>
	<polyline fill="#174880" points="286.442,111.922 255.559,150.706 290.752,190.685 266.812,190.685 234.253,151.185 
		234.253,190.685 215.34,190.685 215.34,84.15 234.253,84.15 234.253,151.185 263.221,111.922 286.442,111.922 	"/>
	<path fill="#174880" d="M328.816,130.354c-2.394,0-4.787,0.241-6.942,0.958c-1.915,0.479-3.83,1.438-5.267,2.634
		c-1.676,0.959-2.873,2.393-3.831,4.07c-0.957,1.676-1.675,3.351-2.154,5.267h33.756c0-1.676-0.239-3.352-0.958-5.027
		c-0.479-1.438-1.676-2.873-2.873-4.069c-1.436-1.198-3.112-2.155-4.787-2.874C333.365,130.596,330.972,130.116,328.816,130.354
		 M332.407,174.167c2.873,0,5.985-0.24,8.858-0.959c2.634-0.479,5.267-1.196,7.661-2.154c2.155-0.718,4.309-1.676,6.225-2.872
		c0.958-0.479,1.915-1.198,2.873-1.915l3.591,16.996c-4.07,2.155-8.38,4.07-12.928,5.506c-5.268,1.438-10.773,2.155-16.28,2.155
		c-5.984,0-11.97-0.957-17.716-2.872c-4.548-1.675-9.097-4.31-12.688-7.9c-3.592-3.353-6.225-7.66-7.9-12.209
		c-2.154-4.789-3.112-10.056-3.352-15.562c0-5.028,0.718-10.057,2.395-14.844c1.675-4.787,4.069-8.858,7.421-12.688
		c3.112-3.589,7.182-6.465,11.731-8.378c10.293-4.072,22.023-4.072,32.318,0c4.31,1.676,7.9,4.547,11.013,7.898
		c2.873,3.353,5.027,7.183,6.464,11.253c1.196,4.31,1.916,8.856,1.916,13.408c0,1.196,0,2.632,0,4.067
		c-0.24,1.438-0.479,2.874-0.72,4.07h-52.908c0.24,2.634,0.958,5.028,2.155,7.184c0.958,2.154,2.634,4.069,4.549,5.506
		c1.915,1.675,4.07,2.871,6.703,3.351c2.634,0.959,5.506,1.438,8.618,1.438V174.167z"/>
	<path fill="#174880" d="M717.845,124.131l25.378-30.644h5.748v19.391h21.785v16.759h-21.785v32.08c0,1.676,0.237,3.591,0.717,5.506
		c0.479,1.198,1.196,2.395,2.154,3.591c0.959,0.719,2.155,1.438,3.352,1.678c1.196,0.478,2.396,0.717,3.83,0.717
		c2.154,0,4.31-0.239,6.227-0.956c1.913-0.24,3.589-0.959,5.265-1.676v16.996c-1.914,0.959-4.068,1.676-6.465,2.155
		c-6.702,1.436-13.646,1.196-20.11-0.719c-3.109-0.957-5.743-2.632-8.14-4.787c-1.913-2.155-3.589-4.789-4.547-7.66
		c-0.959-3.113-1.676-6.704-1.438-10.056v-36.39H717.37"/>
	<path fill="#174880" d="M803.315,129.158c2.872-4.789,6.46-8.857,11.012-11.971c3.83-2.872,8.619-4.31,13.646-4.067
		c1.438-0.242,2.872-0.242,4.31,0l2.634,0.477c0,0-0.479,4.31-3.354,17.716c-1.435-0.237-2.872-0.479-4.306-0.237
		c-3.355-0.242-6.465,0.477-9.578,1.675c-2.871,1.196-5.268,3.111-7.181,5.506c-1.918,2.393-3.593,5.267-4.552,8.378
		c-0.954,3.83-1.434,7.66-1.434,11.493v32.797H785.36V113.12h11.97"/>
	<path fill="#174880" d="M920.862,130.116c-2.155-0.239-4.31,0.238-6.227,0.959c-1.913,0.717-3.589,1.675-5.269,2.871
		c-1.434,0.959-2.63,2.393-3.83,3.831c-0.955,1.438-1.913,2.871-2.393,4.547v22.027c0.717,1.436,1.676,2.632,2.872,3.83
		c1.2,1.196,2.396,2.154,3.83,3.111c1.676,0.959,3.351,1.676,5.03,2.155c4.785,1.197,9.815,0.958,14.362-0.72
		c2.155-1.196,4.31-2.632,5.748-4.547c1.675-1.915,2.871-4.31,3.589-6.704c0.717-2.872,1.196-5.985,1.438-9.097
		c0-2.873-0.479-5.984-1.438-9.098c-0.718-2.635-1.914-5.027-3.589-7.182c-1.68-1.915-3.593-3.593-5.985-4.55
		c-2.396-1.197-4.789-1.675-7.423-1.675 M926.126,113.12c5.269-0.242,10.295,0.956,14.846,3.111
		c4.068,2.152,7.42,5.028,10.291,8.858c2.634,3.83,4.789,8.14,5.985,12.688c1.2,4.788,1.917,9.815,1.917,14.604
		c0,5.026-0.717,10.056-2.154,14.842c-1.196,4.55-3.352,8.619-6.224,12.21c-2.875,3.591-6.227,6.465-10.294,8.38
		c-4.31,2.154-9.34,3.111-14.125,3.111c-4.789,0-9.336-0.717-13.646-2.393c-3.593-1.678-6.944-3.832-9.578-6.943v40.459h-19.151
		V113.12h11.253l7.419,9.336c2.872-2.874,6.465-5.269,10.532-7.182c4.072-1.438,8.382-2.396,12.691-2.154H926.126z"/>
	<path fill="#174880" d="M854.547,81.277c-5.506,0-9.815,4.31-9.815,9.815s4.31,10.057,9.815,10.057s9.815-4.551,9.815-10.057
		c0.237-2.634-0.959-5.026-2.876-6.942c-1.675-1.915-4.306-3.111-6.939-3.111 M863.883,190.924h-19.151V113.12h19.151V190.924z"/>
</g>
</svg>
