<?xml version="1.0" encoding="UTF-8" standalone="no"?>
<svg
   xmlns:dc="http://purl.org/dc/elements/1.1/"
   xmlns:cc="http://creativecommons.org/ns#"
   xmlns:rdf="http://www.w3.org/1999/02/22-rdf-syntax-ns#"
   xmlns:svg="http://www.w3.org/2000/svg"
   xmlns="http://www.w3.org/2000/svg"
   viewBox="0 0 3428.1333 2666.6667"
   height="2666.6667"
   width="3428.1333"
   xml:space="preserve"
   id="svg2"
   version="1.1"><metadata
     id="metadata8"><rdf:RDF><cc:Work
         rdf:about=""><dc:format>image/svg+xml</dc:format><dc:type
           rdf:resource="http://purl.org/dc/dcmitype/StillImage" /></cc:Work></rdf:RDF></metadata><defs
     id="defs6" /><g
     transform="matrix(1.3333333,0,0,-1.3333333,0,2666.6667)"
     id="g10"><g
       transform="scale(0.1)"
       id="g12"><g
         transform="scale(1.57736)"
         id="g14"><path
           id="path16"
           style="fill:#ffffff;fill-opacity:1;fill-rule:nonzero;stroke:none"
           d="M 16300,0 H 0 V 12679.4 H 16300 V 0" /></g><g
         transform="scale(1.07145)"
         id="g18"><path
           id="path20"
           style="fill:#f7cc7f;fill-opacity:1;fill-rule:nonzero;stroke:none"
           d="m 14164.3,14588 c 3.3,9.1 80.4,141 179.9,284.2 463.2,667.2 1149.9,1310.3 1955.2,1286.1 l 0.6,4.9 c -364.1,40 -720.9,-57 -1034,-229.8 -516.7,-278.5 -1020.1,-809.3 -1295.5,-1217.2 l 193.8,-128.2" /></g><g
         transform="scale(1.12825)"
         id="g22"><path
           id="path24"
           style="fill:#f7cc7f;fill-opacity:1;fill-rule:nonzero;stroke:none"
           d="m 15309.3,14994.3 51.7,356.4 -264.2,244.6 c -30.1,27.9 -15.2,78.2 25.3,85.1 l 354.9,60.9 151,326.9 c 17.2,37.2 69.6,38.6 88.7,2.3 l 167.6,-318.7 357.6,-42.6 c 40.6,-4.9 58.1,-54.3 29.5,-83.7 l -251.3,-257.9 69.9,-353.2 c 8,-40.2 -33.6,-72.1 -70.3,-54 l -323,159.3 -314.3,-175.7 c -35.8,-20 -79,9.8 -73.1,50.3" /></g><g
         transform="scale(1.08918)"
         id="g26"><path
           id="path28"
           style="fill:#9bc1f9;fill-opacity:1;fill-rule:nonzero;stroke:none"
           d="m 8649.48,16207.8 -48.76,-180.8 146.19,-123 -69.03,-198.8 196.08,-82.9 -68.13,-228.3 171.14,-98.6 -29.65,-230.3 -87.17,11.2 22.15,172.2 -180.58,104.1 65.48,219.4 -199.35,84.3 76.15,219.4 -142.74,120 45.19,167.6 -110.23,59.3 41.6,77.4 171.66,-92.2" /></g><path
         id="path30"
         style="fill:#f7cc7f;fill-opacity:1;fill-rule:nonzero;stroke:none"
         d="m 4925.21,5413.7 c 230.19,-256.8 208.64,-651.5 -48.14,-881.6 -256.77,-230.1 -651.53,-208.5 -881.72,48.3 -230.18,256.7 -208.63,651.4 48.14,881.6 256.77,230.1 651.54,208.5 881.72,-48.3" /><path
         id="path32"
         style="fill:#efefef;fill-opacity:1;fill-rule:nonzero;stroke:none"
         d="m 4277.73,4700.6 c 123.07,-137.3 334.13,-148.8 471.42,-25.8 137.28,123 148.8,334.1 25.74,471.3 l -497.16,-445.5" /><g
         transform="scale(1.27558)"
         id="g34"><path
           id="path36"
           style="fill:#184655;fill-opacity:1;fill-rule:nonzero;stroke:none"
           d="M 16244.4,1473.22 H 4514.74 c -30.68,0 -55.55,-24.86 -55.55,-55.51 v 0 c 0,-30.73 24.87,-55.58 55.55,-55.58 H 16244.4 c 30.7,0 55.6,24.85 55.6,55.58 v 0 c 0,30.65 -24.9,55.51 -55.6,55.51" /></g><path
         id="path38"
         style="fill:#fae0b2;fill-opacity:1;fill-rule:nonzero;stroke:none"
         d="m 4245.71,6977.4 -163.14,92.5 c -45.1,-71.9 -99.97,-136.3 -153.25,-184.9 -44.47,-40.5 -112.76,-39.5 -156.09,2.2 l -5.22,5.1 c -47.74,46 -46.64,123.1 2.97,167.1 50.56,44.8 99.62,100.9 137.71,168.1 55.51,97.8 55.71,186.2 -12.97,225.2 -65.25,37 -137.63,5.4 -252.62,-97.3 -166,-148.7 -322.95,-225.4 -489.52,-130.9 -151.11,85.7 -209.22,259.3 -141.09,463.5 l -163.13,92.5 95.44,168.3 151.1,-85.7 c 38.21,60.9 75.67,107.5 111.46,143.9 43.74,44.5 115.34,45.1 160.27,1.8 v 0 c 46.47,-44.8 46.68,-119.3 0.27,-164.1 -34.79,-33.6 -72.57,-78.1 -106.94,-138.7 -63.29,-111.6 -35.66,-175 12.42,-202.2 56.67,-32.2 126.81,7.5 264.53,122.3 187.99,163.4 329.18,192.3 483.72,104.7 152.83,-86.7 222,-268.9 144.35,-485.8 l 175.16,-99.4 -95.43,-168.2" /><g
         transform="scale(1.25468)"
         id="g40"><path
           id="path42"
           style="fill:#466eb6;fill-opacity:1;fill-rule:nonzero;stroke:none"
           d="m 16171.1,11051.5 -86.1,-214.5 -360.4,100.4 -164.5,-298.2 -282.1,31 -15.7,-142.8 377.2,-41.4 155.9,282.5 375.1,-104.4 129.5,322.9 -128.9,64.5" /></g><g
         transform="scale(1.27498)"
         id="g44"><path
           id="path46"
           style="fill:#96d9c9;fill-opacity:1;fill-rule:nonzero;stroke:none"
           d="m 15300.1,3397.95 74.3,184.4 c -81.8,37.33 -157.2,85.96 -215.7,135.06 -48.8,41.09 -57.4,112.94 -19.6,164.39 l 4.6,6.2 c 41.6,56.63 122.8,66.27 176,20.31 54.2,-46.82 120,-90.51 196,-121.1 110.6,-44.63 203.5,-32.39 234.8,45.26 29.7,73.72 -13.6,145.33 -137.7,251.77 -179.6,153.57 -282.2,307.77 -206.2,496 68.8,170.91 243.1,256.32 467.2,213.34 l 74.3,184.48 190.3,-76.71 -68.8,-170.83 c 69.3,-31.61 123.5,-64.39 166.8,-96.94 52.9,-39.69 63.6,-114.83 24.4,-168.16 v 0 c -40.6,-55.06 -118.8,-65.81 -172.4,-23.29 -40.2,31.84 -92.3,65.33 -160.8,92.94 -126.2,50.82 -188.9,12.86 -210.7,-41.49 -25.9,-64 25.6,-132.16 165.6,-260.79 198.1,-174.59 248.3,-318.91 177.9,-493.66 -69.6,-172.79 -251.4,-270.98 -490.2,-219.85 l -79.9,-198.04 -190.2,76.71" /></g><path
         id="path48"
         style="fill:#86b1f2;fill-opacity:1;fill-rule:nonzero;stroke:none"
         d="m 6306.34,12464.9 c 23.99,-31.7 22.18,-76 -4.35,-105.6 -52.04,-58.1 -137.04,-128.4 -243.73,-180.3 -156.07,-76.1 -335.12,-98.9 -503.92,-40.7 -105.49,36.4 -205.9,110.3 -281.32,211.1 l -92.22,-44.9 c -31.34,-15.3 -69.13,-2.3 -84.4,29.1 l -1.16,2.3 c -15.27,31.4 -2.24,69.2 29.1,84.5 l 75.67,36.8 c -15.04,24.9 -25.46,40.3 -32.38,54.5 -11.52,23.6 -22.98,53.1 -33.23,86.2 l -78.03,-38 c -31.34,-15.3 -69.12,-2.3 -84.39,29.1 v 0 c -15.27,31.3 -2.25,69.1 29.09,84.4 l 94.6,46 c -26.99,121.5 -22.2,243.8 14.17,349.3 61.85,179.3 197.36,315.6 360.51,395.1 95.12,46.3 175.19,64.9 240.75,71.8 45.58,4.8 86.77,-27.3 93.23,-72.7 l 0.2,-1.4 c 6.69,-47 -26.46,-90.1 -73.54,-96.4 -53.54,-7.3 -116.02,-24 -186.96,-58.6 -104.04,-50.6 -191.96,-134.4 -235.55,-255.2 -24.26,-70.3 -30.99,-152.6 -7.1,-231.6 l 532.06,259.2 c 31.34,15.2 69.13,2.2 84.4,-29.1 v 0 c 15.27,-31.4 2.23,-69.1 -29.11,-84.4 l -555.7,-270.7 c 10.31,-27.2 20.62,-54.4 28.68,-70.9 10.37,-21.3 20.74,-42.6 36.92,-69.8 l 556.89,271.3 c 31.99,15.6 70.57,2.3 86.16,-29.7 v 0 c 15.59,-32 2.29,-70.6 -29.71,-86.2 l -533.23,-259.8 c 49.96,-60.5 111.86,-103.5 175.17,-125.3 125.44,-41.3 236.16,-28.3 354.39,29.3 72.07,35.1 130.59,79.5 174.29,121.2 35.96,34.3 93.75,29.7 123.75,-9.9 v 0" /><path
         id="path50"
         style="fill:#50bfa5;fill-opacity:1;fill-rule:nonzero;stroke:none"
         d="m 4586.21,10783.8 -275.33,-28 -93.9,438.1 -407.62,8.8 -123.87,316.3 -160.12,-62.7 165.66,-423.1 386.28,-8.3 97.69,-455.7 414.32,42 -3.11,172.6" /><g
         transform="scale(1.14083)"
         id="g52"><path
           id="path54"
           style="fill:#fae0b2;fill-opacity:1;fill-rule:nonzero;stroke:none"
           d="m 15524.9,12260.6 151.6,-50 c 0,0 240.3,77.9 263.9,126.8 23.7,49 30.4,167.8 64.6,171.1 34.1,3.2 100.1,-7.9 115.9,-89.2 11.4,-59 -75,-229.6 -61.5,-247.8 8.5,-11.4 94.7,-42.6 158.1,-64.4 41.7,-14.3 71.8,-51 78.2,-95.2 v -0.2 c 4.3,-29.9 -12.6,-59 -40.6,-69.8 l -43.6,-16.9 13.9,-45 c 10.3,-33.5 -8,-69.5 -41.1,-80.6 l -33.8,-11.3 10.8,-27.4 c 14,-35.4 -5.6,-75.4 -41.9,-86 l -29.4,-8.5 1.2,-7.9 c 5,-32.8 -15.5,-64.3 -47.3,-72.6 l -29.3,-7.7 -403.6,133.2 c -37.8,12.5 -72.5,32.7 -102.3,59.4 l -134,70.7 c -14.4,7.6 -21,24.8 -15.6,40.5 l 124.3,357.8 c 6,17.3 24.5,26.6 41.5,21" /></g><path
         id="path56"
         style="fill:#f7cc7f;fill-opacity:1;fill-rule:nonzero;stroke:none"
         d="m 7174.09,13438.8 c -3.81,10.8 -96.06,168.6 -215.17,339.9 -553.97,798.1 -1375.42,1567.3 -2338.74,1538.5 l -0.69,5.8 c 435.54,47.8 862.28,-68.2 1236.9,-274.9 618.01,-333.2 1220.18,-968 1549.62,-1456 l -231.92,-153.3" /><path
         id="path58"
         style="fill:#f7cc7f;fill-opacity:1;fill-rule:nonzero;stroke:none"
         d="m 4833.91,14875.5 -65.16,448.8 332.81,308.2 c 37.9,35.1 19.1,98.4 -31.81,107.1 l -447.01,76.8 -190.21,411.7 c -21.67,46.9 -87.71,48.6 -111.75,2.9 l -211.1,-401.5 -450.37,-53.6 c -51.29,-6.1 -73.32,-68.4 -37.26,-105.4 l 316.54,-324.8 -88.12,-444.9 c -10.05,-50.7 42.38,-90.9 88.71,-68 l 406.74,200.6 395.9,-221.3 c 45.09,-25.2 99.51,12.3 92.09,63.4" /><g
         transform="scale(1.29571)"
         id="g60"><path
           id="path62"
           style="fill:#f7cc7f;fill-opacity:1;fill-rule:nonzero;stroke:none"
           d="m 15359.4,5471.12 24,82.12 c 127.5,23.85 237.3,109.82 273.5,232.92 11.6,39.44 19.5,72.78 25.4,117.39 l -170.8,49.16 30.4,103.5 154.2,-44.46 c 6.2,51.71 15,118.63 33.8,182.61 56.9,193.79 228.4,281.62 412.4,228.6 52.5,-15.13 93,-34.65 123.2,-54.8 27.3,-18.21 34.5,-55.03 16.5,-82.43 v 0 c -18.1,-27.47 -54.9,-35.34 -83.2,-18.13 -23.4,14.28 -53.2,28.01 -90.7,38.82 -129.4,37.2 -208.5,-36.2 -242.7,-152.81 -20.7,-70.62 -26.2,-126.03 -31.7,-181.45 l 238.9,-68.76 -30.5,-103.42 -225.5,64.9 c -13.3,-63.82 -28.3,-127.19 -60.6,-182.06 -39,-65.37 -96.1,-112.99 -166.5,-144.4 l -0.9,-3.24 435.8,-125.49 c 32.2,-9.26 50.8,-42.68 41.4,-74.55 l -1.3,-4.33 c -9.4,-31.95 -43,-50.31 -75.3,-40.97 l -629.8,181.28" /></g><path
         id="path64"
         style="fill:#466eb6;fill-opacity:1;fill-rule:nonzero;stroke:none"
         d="m 2929.61,13349 105.1,177.6 -86.66,187.2 c -9.87,21.3 8.99,44.7 31.93,39.6 l 201.3,-45.1 151.28,140.2 c 17.23,16 45.3,5.3 47.5,-18.1 l 19.32,-205.4 180.15,-100.5 c 20.52,-11.5 19,-41.5 -2.56,-50.8 l -189.37,-81.8 -39.94,-202.5 c -4.54,-23 -33.56,-30.8 -49.08,-13.2 l -136.36,154.8 -204.83,-24.6 c -23.33,-2.7 -39.74,22.4 -27.78,42.6" /><g
         transform="scale(1.37404)"
         id="g66"><path
           id="path68"
           style="fill:#f48c7f;fill-opacity:1;fill-rule:nonzero;stroke:none"
           d="m 16257.8,7639.75 -183.5,14.81 -25,-169.73 -181.5,6.61 -43.9,-159.25 -136.5,-17.25 8.7,-69.17 182.6,23.07 41.6,150.94 188.8,-6.87 24.6,166.93 166.3,-13.42 -42.2,73.33" /></g><g
         transform="scale(1.03506)"
         id="g70"><path
           id="path72"
           style="fill:#f48c7f;fill-opacity:1;fill-rule:nonzero;stroke:none"
           d="m 8543.91,15611.1 -14.87,243.9 -227.77,1.1 -25.25,239.7 -217.51,27.9 -48.23,176.3 -89.22,-24.4 64.49,-235.8 206.14,-26.4 26.28,-249.3 224.01,-1.2 13.46,-221 88.47,69.2" /></g><path
         id="path74"
         style="fill:#f7cc7f;fill-opacity:1;fill-rule:nonzero;stroke:none"
         d="m 3378.67,8706.3 190.56,-72.7 149.29,144.8 207.84,-96.6 111.43,203.3 239.87,-99 125.69,174.6 246.35,-57.5 -21.74,-93.2 -184.21,43 -132.63,-184.2 -230.58,95.1 -113.29,-206.8 -229.35,106.7 -145.79,-141.4 -176.63,67.4 -76.31,-112.9 -79.33,53.6 118.83,175.8" /><g
         transform="scale(1.02673)"
         id="g76"><path
           id="path78"
           style="fill:#50bfa5;fill-opacity:1;fill-rule:nonzero;stroke:none"
           d="m 14487.7,16300 -12,-149.6 -242.9,-7.2 -44.5,-216.6 -180.9,-35.1 17.8,-91.5 241.9,46.9 42.2,205.3 252.6,7.5 18.1,225.1 -92.3,15.2" /></g><g
         transform="scale(1.24113)"
         id="g80"><path
           id="path82"
           style="fill:#fff3d9;fill-opacity:1;fill-rule:nonzero;stroke:none"
           d="m 16060.5,13464.1 c 231.8,-222.3 239.5,-590.4 17.2,-822.2 -222.3,-231.7 -590.3,-239.4 -822.1,-17.1 -231.8,222.3 -239.4,590.4 -17.1,822.1 222.3,231.8 590.3,239.5 822,17.2" /></g><g
         transform="scale(1.22399)"
         id="g84"><path
           id="path86"
           style="fill:#fed333;fill-opacity:1;fill-rule:nonzero;stroke:none"
           d="m 16275.4,13159.7 -250.9,-77.1 -78.7,-250.4 c -6.3,-20.2 -33.1,-24.4 -45.3,-7.1 l -150.9,214.8 -262.4,-2.5 c -21.3,-0.2 -33.5,24 -20.8,41 l 157.7,209.8 -83.5,248.8 c -6.8,20.1 12.5,39.2 32.5,32.4 l 248.3,-85.1 210.9,156.3 c 17,12.6 41.1,0.2 40.8,-21 l -4.2,-262.4 213.8,-152.2 c 17.3,-12.3 13,-39.1 -7.3,-45.3" /></g><g
         transform="scale(1.36044)"
         id="g88"><path
           id="path90"
           style="fill:#f47458;fill-opacity:1;fill-rule:nonzero;stroke:none"
           d="m 16155,9549.12 124.5,7.48 c 13.4,0.8 20.5,18.2 11.9,29.44 l -79.2,103.68 34.1,132 c 3.7,14.3 -9.1,26.74 -21.6,21.05 l -115.8,-52.49 -103.3,74.11 c -11.2,8.03 -26.2,-1.68 -25.3,-16.43 l 7.7,-136.12 -98,-86.2 c -10.6,-9.34 -7.1,-27.79 6,-31.21 l 120.6,-31.64 42.7,-127.37 c 4.6,-13.8 21.7,-15.5 29,-2.87 l 66.7,116.57" /></g><path
         id="path92"
         style="fill:#f7a491;fill-opacity:1;fill-rule:nonzero;stroke:none"
         d="m 9089.32,9863.7 c 0,0 303.36,583.7 350.41,798 47.05,214.2 205.2,1292.5 196.28,1362.8 -16.82,132.6 -190.95,218.5 -159.14,277.5 31.79,59.1 196.77,77.4 252.98,72.3 56.21,-5 169.15,-37.8 217.51,-77.6 48.37,-39.9 -54.37,-1333 -85.04,-1611.4 -30.66,-278.4 -407.54,-1135.8 -407.54,-1135.8 l -365.46,314.2" /><path
         id="path94"
         style="fill:#f47257;fill-opacity:1;fill-rule:nonzero;stroke:none"
         d="m 10001.7,12320.7 c -6.74,-4.3 -32.21,-11.8 -38.2,-17.2 l -46.62,-14.7 c 0,0 119.82,3.1 190.62,-72.9 0,0 -33.6,60.4 -105.8,104.8" /><path
         id="path96"
         style="fill:#f7a491;fill-opacity:1;fill-rule:nonzero;stroke:none"
         d="m 15736.2,12086.4 c 47,35.8 70.9,125.7 81,183.8 l 23.8,76.4 c -18.1,8.4 -374.8,76 -482.9,83.8 -12.1,-33.8 -18.7,-62.5 -16.2,-81.1 12,-89.3 98.6,-669.1 98.6,-669.1 l 308.9,-20.4 c 0,0 -51.6,343.9 -13.2,426.6" /><path
         id="path98"
         style="fill:#f47458;fill-opacity:1;fill-rule:nonzero;stroke:none"
         d="m 15743.6,12329.8 c 0,0 -63.8,-28.9 -134.6,-114.3 0,0 -169.6,120.2 -161.9,155.4 10.3,46.7 185,-48.9 185,-48.9 l 111.5,7.8" /><g
         transform="scale(1.0936)"
         id="g100"><path
           id="path102"
           style="fill:#f7a491;fill-opacity:1;fill-rule:nonzero;stroke:none"
           d="m 15773.8,3521.03 c 0,0 380.2,-273.96 440,-355.8 86.2,-117.68 -644,-337.97 -564.2,-200.07 18.3,31.73 70.8,138.44 73.1,148.96 12.3,56.05 -142.6,207.29 -142.6,207.29 l 193.7,199.62" /></g><g
         transform="scale(1.09204)"
         id="g104"><path
           id="path106"
           style="fill:#f7cc7f;fill-opacity:1;fill-rule:nonzero;stroke:none"
           d="m 15474.1,2738.63 258.5,365.28 c 0,0 161.4,37.45 327,223.8 0,0 148.8,-56.78 240.4,-179.94 0,0 -173,-186.53 -439.5,-396.32 0,0 -158.1,-140.01 -376.5,-213.82 -218.5,-73.81 -9.9,201 -9.9,201" /></g><g
         transform="scale(1.27165)"
         id="g108"><path
           id="path110"
           style="fill:#f8a492;fill-opacity:1;fill-rule:nonzero;stroke:none"
           d="m 16234.3,8842.19 c 0,0 -84.5,-139.42 -93.9,-130.93 -7.3,6.54 43.1,79.98 79.1,168.97 9.2,22.88 18.2,45.5 26.3,66.34 21.3,54.69 -5,83.01 -36.2,29.22 -11,-19 -28.5,-51 -37.9,-75.55 -10.1,-26.52 -27.7,-47.71 -39.5,-68.75 -23.4,-41.76 -40,-72.5 -41.2,-70.6 -1.4,2.46 -11.7,-2.58 -2.7,22 10.9,29.56 47.5,87.41 60.2,132.07 7.3,25.32 25.5,77.37 25.5,77.37 0,0 13.4,83.63 8.9,85.97 -24.3,12.65 -49.1,-42.18 -54.6,-77.8 -14.8,-21.1 -32.4,-76.38 -32.4,-76.38 0,0 -60.1,-104.11 -74.4,-95.93 -6.1,3.47 23.3,71.69 42.1,142.98 17.5,66.2 24.5,135.77 12.4,141 -20.6,8.88 -47.6,-62.69 -47.6,-62.69 0,0 -16.3,-51.1 -22.9,-67.67 -7.9,-19.44 -35.5,-75.89 -35.5,-75.89 0,0 -108.2,-190.96 -121.1,-182.02 -12.9,8.93 -33.7,44.46 -31.2,58.59 2.5,14.13 20.4,37.81 23,51.95 2.5,14.13 -5.9,34.56 -22.6,38.71 -16.6,4.17 -54.3,-59.83 -54.3,-59.83 0,0 -30.3,-52.27 -31.1,-94.01 -2.7,-144.61 20.8,-138.88 20,-157.42 -1,-21.93 -168.5,-263.43 -168.5,-263.43 0,0 -1.1,-1.3 -3.1,-3.71 l 198.7,-144.65 c 66.3,107.8 117.8,192.3 132.9,218.72 0,0 99.7,85.28 160.7,140.91 60.9,55.63 95.1,135.67 110.1,153.99 2.1,2.7 48.2,66.57 84.9,160.27 31.6,80.75 -34.1,18.2 -34.1,18.2" /></g><g
         transform="scale(1.09731)"
         id="g112"><path
           id="path114"
           style="fill:#b75742;fill-opacity:1;fill-rule:nonzero;stroke:none"
           d="m 16300,6316.01 -60,-296.36 -1506.2,-1370.08 1078.2,-1091.13 -291.2,-297.55 c 0,0 -1592.4,1169.32 -1649.7,1322.6 -88.4,235.94 1141.4,1798.59 1141.4,1798.59 l 1287.5,-66.07" /></g><g
         transform="scale(1.20727)"
         id="g116"><path
           id="path118"
           style="fill:#f7a491;fill-opacity:1;fill-rule:nonzero;stroke:none"
           d="m 15823.4,2444.77 c 0,0 344.3,-248.24 398.5,-322.29 78.1,-106.61 -583.3,-306.15 -511.1,-181.24 16.6,28.74 64.2,125.41 66.3,134.85 11.1,50.86 -129.2,187.86 -129.2,187.86 l 175.5,180.82" /></g><g
         transform="scale(1.20569)"
         id="g120"><path
           id="path122"
           style="fill:#f7cc7f;fill-opacity:1;fill-rule:nonzero;stroke:none"
           d="m 15551.9,1733.53 234.1,330.84 c 0,0 155.5,27.95 305.6,196.74 0,0 125.5,-45.45 208.4,-157.01 0,0 -156.8,-168.95 -398.2,-358.96 0,0 -143.1,-126.82 -341,-193.67 -197.8,-66.85 -8.9,182.06 -8.9,182.06" /></g><g
         transform="scale(1.17596)"
         id="g124"><path
           id="path126"
           style="fill:#f47458;fill-opacity:1;fill-rule:nonzero;stroke:none"
           d="m 15161.7,5765.43 21.9,-1816.99 1116.4,-1400.56 -262.8,-292.1 c 0,0 -1382.4,1149.53 -1533.9,1479.39 -93.9,204.52 -436.1,2139.62 -436.1,2139.62 l 1094.5,-109.36" /></g><g
         transform="scale(1.08344)"
         id="g128"><path
           id="path130"
           style="fill:#fae0b2;fill-opacity:1;fill-rule:nonzero;stroke:none"
           d="m 15225.9,6413.21 c 124.1,280.03 109.8,2287.54 592.6,2757.8 169.9,-28.7 291.1,-44.85 319.4,-52.24 25.2,-206.84 53,-965.72 70,-1661.2 11.3,-463.34 -0.4,-949.29 56.7,-1205.42 35.4,-158.75 -1152,-94.79 -1038.7,161.06" /></g><path
         id="path132"
         style="fill:#f7a491;fill-opacity:1;fill-rule:nonzero;stroke:none"
         d="m 14280.9,8688.5 c -305.8,-17.6 -434.5,-66.1 -528.6,-48.2 -94,17.9 -344.8,107.5 -340.3,201.5 335.9,67.2 922.5,-36.9 922.5,-36.9 -40.3,-196 -53.6,-116.4 -53.6,-116.4" /><g
         transform="scale(1.03774)"
         id="g134"><path
           id="path136"
           style="fill:#466eb6;fill-opacity:1;fill-rule:nonzero;stroke:none"
           d="m 16300,9508.05 c 0,0 -130.8,-642.46 -283.1,-752.89 -152.4,-110.43 -924.7,-498.77 -972.2,-495.98 -233.7,13.49 -1350.9,59.07 -1350.9,59.07 l 34.5,358.28 1259.1,102.34 c 0,0 911.7,597.83 1034.6,691.98 86.3,54.25 278,37.2 278,37.2" /></g><g
         transform="scale(1.05143)"
         id="g138"><path
           id="path140"
           style="fill:#466eb6;fill-opacity:1;fill-rule:nonzero;stroke:none"
           d="m 15639.4,6470.15 c -111.8,0 -153.1,15.4 -227.5,37.85 0,0 -48.9,830.2 189.2,2061.29 89.8,464.13 92.3,745.84 275.8,817.26 165.5,64.39 367.9,72.95 423.1,63.63 -487.4,-1379.07 -489,-2440.58 -558.1,-2748.44 -34.6,-154.37 -64.8,-232.55 -102.5,-231.59" /></g><g
         transform="scale(1.07806)"
         id="g142"><path
           id="path144"
           style="fill:#f7a491;fill-opacity:1;fill-rule:nonzero;stroke:none"
           d="m 15947.6,9419.95 -49.8,-203.17 c 0,0 -11.4,-176.98 70.8,-192.84 99,-19.21 246.2,129.03 246.2,129.03 l 85.2,573.07 -352.4,-306.09" /></g><g
         transform="scale(1.07806)"
         id="g146"><path
           id="path148"
           style="fill:#f7a491;fill-opacity:1;fill-rule:nonzero;stroke:none"
           d="m 15947.6,9419.95 -49.8,-203.17 c 0,0 -11.4,-176.98 70.8,-192.84 99,-19.21 246.2,129.03 246.2,129.03 l 85.2,573.07 -352.4,-306.09" /></g><g
         transform="scale(1.078)"
         id="g150"><path
           id="path152"
           style="fill:#f47458;fill-opacity:1;fill-rule:nonzero;stroke:none"
           d="m 16300,9723.9 -351.6,-303.47 -37.2,-151.78 c 134.3,32.3 326,180.18 388.8,455.25" /></g><g
         transform="scale(1.08201)"
         id="g154"><path
           id="path156"
           style="fill:#f7a491;fill-opacity:1;fill-rule:nonzero;stroke:none"
           d="m 15888.2,10213.3 c -84.7,0.2 -160.9,-58.6 -190.7,-143.1 -24.8,-70.1 -56.4,-173.94 -76.4,-293.14 -37.1,-219.58 88,-420.57 196.7,-436.62 108.8,-16.05 368,56.04 425.4,367.07 24.5,133.34 56.8,308.19 -52.8,400.09 -85.3,71.5 -204.8,105.3 -302.2,105.7" /></g><g
         transform="scale(1.10356)"
         id="g158"><path
           id="path160"
           style="fill:#13375b;fill-opacity:1;fill-rule:nonzero;stroke:none"
           d="m 15891.1,9285.48 c 0,0 376.1,335.12 392.5,596.93 16.4,261.79 -225.4,402.09 -432.1,409.39 -93.4,3.3 -156.6,-0.9 -253,-13.1 -207.2,-26.1 -341.5,-117.9 -294.2,-287.63 63.4,-227.85 493.3,-35.62 581.2,-106.35 72.6,-58.35 -45,-198.73 25.5,-252.29 66.2,-50.33 32.4,-33.28 10.5,-129 -21.9,-95.71 -30.4,-217.95 -30.4,-217.95" /></g><g
         transform="scale(1.08633)"
         id="g162"><path
           id="path164"
           style="fill:#f7a491;fill-opacity:1;fill-rule:nonzero;stroke:none"
           d="m 16290.5,9741.2 c -9.5,-63.73 -48.4,-110.77 -87,-105.09 -38.5,5.7 -62.2,61.98 -52.7,125.71 9.5,63.73 48.4,110.77 87,105.08 38.5,-5.7 62.2,-61.97 52.7,-125.7" /></g><path
         id="path166"
         style="fill:#f7a491;fill-opacity:1;fill-rule:nonzero;stroke:none"
         d="m 15807.2,12446.4 c -37.2,65.1 -92.8,-1.8 -56.8,-86.5 1.8,-4.2 0.1,-10.6 0.2,-10 -9.3,-22.1 -95.6,-91 -95.6,-91 0,0 69.2,-193.5 108,-142.6 38.9,50.9 68.4,215.7 68.4,215.7 l -24.2,114.4" /><g
         transform="scale(1.23814)"
         id="g168"><path
           id="path170"
           style="fill:#466eb6;fill-opacity:1;fill-rule:nonzero;stroke:none"
           d="m 16300,8454.21 -228.2,225.92 c 0,0 -433.8,-622.41 -653.8,-730.39 -213.8,-104.92 -925.7,-66.71 -950.8,-61.06 -85.3,19.47 -347.8,91.27 -347.8,91.27 0,0 -220,-1888.64 66.6,-2545.27 93.6,-214.19 675.1,-72.21 675.1,-72.21 0,0 -179.4,786.42 -189,889.32 -9.2,98.45 -59.1,878.41 -51.1,886.41 21,20.92 815,194 1032.6,359.33 229.8,174.61 646.4,956.68 646.4,956.68" /></g><path
         id="path172"
         style="fill:#ff3b3b;fill-opacity:1;fill-rule:nonzero;stroke:none"
         d="m 6459.81,8345.5 c 484.7,-505.1 910.37,-57.5 889.3,-65 16.61,7 122.93,6.5 192.23,9.2 288.7,11.3 551.61,218.2 666.37,492.5 432.07,56.5 714.57,455.8 588.08,801.4 190.95,237.7 132.08,617.3 -48.56,860.3 -42.07,398.4 -562.48,465.8 -920.73,326.3 -181.61,-70.8 -336.22,-223.7 -415.82,-409.1 -345.29,8.3 -640.1,-245.7 -717.01,-599.3 C 6156.63,9612 5965.19,8861 6459.81,8345.5" /><path
         id="path174"
         style="fill:#f7a491;fill-opacity:1;fill-rule:nonzero;stroke:none"
         d="m 9573.65,3450.9 c -50.49,-272.8 -136.5,-512.8 -148.25,-541.1 -5.65,-13.5 -59.77,-63.1 -65.97,-77 29.04,-332.6 241.02,-530.2 440.01,-671.1 -43.17,167.8 -139.27,360.2 -126.86,397.5 19.75,59.4 96.67,330.4 260.5,671.3 -165.62,18.7 -224.59,119.3 -359.43,220.4" /><path
         id="path176"
         style="fill:#355389;fill-opacity:1;fill-rule:nonzero;stroke:none"
         d="M 8967.69,7408.5 7817.71,6623.3 c 0,0 560.05,-363.7 752.1,-546.7 192.04,-183 1219.54,-1013.1 1236.25,-1055 12.41,-31.1 -95.35,-424.7 -342.44,-1685 109.26,-111.7 349.9,-221.2 492.4,-257.3 298.78,672.4 636.28,2071.3 598.38,2225.2 -58.8,238.8 -1586.71,2104 -1586.71,2104" /><path
         id="path178"
         style="fill:#f7a491;fill-opacity:1;fill-rule:nonzero;stroke:none"
         d="m 6055.86,5828.2 c 33.79,-32.9 258.25,-470.1 343.62,-704.1 125,78.7 200.6,172.5 340.26,225.5 -110.18,159.4 -325.06,543.1 -342.72,634.4 -41.9,216.7 -91.08,248.6 -91.08,248.6 0,0 -726.28,-245.7 -774.66,-314.6 -48.38,-68.8 388.81,42.6 524.58,-89.8" /><path
         id="path180"
         style="fill:#3c8f7c;fill-opacity:1;fill-rule:nonzero;stroke:none"
         d="m 6405.49,5935.9 c 56.35,-0.1 -4.87,254.5 -17.79,313.2 -14.53,66 -52.76,85.8 -62.27,88.1 -25.76,6.4 -832.92,-266.7 -969.29,-364.8 -9.21,-6.6 -25.78,-27.6 -28.33,-32.3 -74.7,-139.4 590.72,-165.9 686.48,-105 85.17,54.2 137.74,101.5 391.2,100.8" /><path
         id="path182"
         style="fill:#466eb6;fill-opacity:1;fill-rule:nonzero;stroke:none"
         d="m 9176.63,7162.9 c 0,0 -974.24,383.6 -986.9,342.8 -100.87,-324.9 -414.75,-220.1 -601.07,-792.3 -78.03,-239.7 -139.46,-872.3 -192.08,-1341.5 -36.16,-322.4 -86.69,-580.8 -86.69,-580.8 0,0 -225.53,333.6 -650.07,811.9 -32.9,37 -375.67,-288.9 -375.67,-288.9 676.13,-1340.7 1169.35,-1530.3 1277.13,-1493.8 488.57,165.1 1136.24,2412.5 1135.17,2412.3 79.41,154.7 480.18,930.3 480.18,930.3" /><path
         id="path184"
         style="fill:#f7a491;fill-opacity:1;fill-rule:nonzero;stroke:none"
         d="m 7673.05,9434.5 c 0,0 -1163.02,1.5 -1412.02,15.8 -225.37,13 -1119.23,-9.7 -1154.17,-5.7 -34.95,4.1 -265.99,395.4 -304.4,353.3 -38.39,-42 128.58,-194 76.93,-233.4 -51.64,-39.5 -606.38,48.9 -599.02,7.9 13.78,-76.8 337.42,-67 337.09,-104.1 -0.33,-37 -338.73,20.8 -361.67,-40.7 -22.95,-61.5 325.52,-25.1 339.42,-52.5 13.91,-27.4 -323.19,-77.7 -288.7,-134.9 18.72,-31.1 298.68,51.9 297.32,9.5 -1.36,-42.3 -205.61,-138.6 -180.56,-172.4 25.05,-33.7 160.29,103.5 278.81,105.2 118.51,1.7 203.37,63.6 392.56,11.7 93.41,-25.6 806.52,-112.8 1409.1,-164.3 617.73,-52.8 1124.1,-69.5 1124.1,-69.5 l 45.21,474.1" /><path
         id="path186"
         style="fill:#50bfa5;fill-opacity:1;fill-rule:nonzero;stroke:none"
         d="m 9397.59,8400.6 c 15.42,186.7 -21.32,542.2 -29.73,604.2 56.49,193.9 176.66,607.8 219.86,689.1 0,0 -202.49,389.1 -409.78,386.4 0,0 -211.69,-477.1 -375.36,-562.5 -2.4,0.6 -57.9,-24.8 -82.32,-24.6 -158.04,1.1 -710.25,17.9 -813.32,19.7 l 57.99,-783.4 c 217.64,-577.1 177.93,-1087.8 139.55,-1265.7 -21.35,-98.9 937.65,-396 1084.97,-301.2 5.85,3.8 176.96,860.5 208.14,1238" /><path
         id="path188"
         style="fill:#50bfa5;fill-opacity:1;fill-rule:nonzero;stroke:none"
         d="m 8187.54,9483.3 c -101.87,48.7 -838.97,24.3 -838.97,24.3 0,0 -103.01,-513.3 -19.81,-636.7 0,0 659.09,-98 640.35,-152.1 l 218.43,764.5" /><path
         id="path190"
         style="fill:#f7a491;fill-opacity:1;fill-rule:nonzero;stroke:none"
         d="m 8316,9842.4 c 0,0 76.6,-269.6 90.51,-386.1 13.89,-116.5 191.43,-479.5 433.09,-427.6 241.66,51.9 -10.47,390.8 -57.79,497.6 -47.33,106.7 -175.28,538.1 -175.28,538.1 L 8316,9842.4" /><path
         id="path192"
         style="fill:#f47257;fill-opacity:1;fill-rule:nonzero;stroke:none"
         d="m 8660.22,9887.5 c -30.39,98.3 -53.69,176.9 -53.69,176.9 L 8316,9842.4 c 0,0 14.08,-49.6 31.27,-115.4 153.59,-20.8 258.61,52.6 312.95,160.5" /><path
         id="path194"
         style="fill:#f7a491;fill-opacity:1;fill-rule:nonzero;stroke:none"
         d="m 8105.36,10649.8 c 0,0 -126.67,-72.7 -171.12,-227 -44.44,-154.2 14.48,-549.7 345.76,-640.4 331.28,-90.8 469.6,225 398.08,469.3 -71.52,244.3 -223.85,552.8 -572.72,398.1" /><path
         id="path196"
         style="fill:#f7a491;fill-opacity:1;fill-rule:nonzero;stroke:none"
         d="m 8717.94,10347.4 c -5.49,-66 -41.11,-116.9 -79.54,-113.7 -38.44,3.2 -65.13,59.3 -59.63,125.3 5.5,65.9 41.11,116.8 79.54,113.6 38.44,-3.2 65.14,-59.2 59.63,-125.2" /><path
         id="path198"
         style="fill:#3c8f7c;fill-opacity:1;fill-rule:nonzero;stroke:none"
         d="m 9422.86,2901.7 c -20.83,52.4 -231.23,-114.5 -280.87,-148.3 -55.84,-38.1 -59.96,-80.9 -58.6,-90.6 3.59,-25.6 538.98,-685 695.54,-776.1 14.79,-8.6 45.89,-8.9 55.06,-5.3 86.97,33.5 -54.59,573 -168.76,679.5 -73.79,68.9 -148.64,105.3 -242.37,340.8" /><path
         id="path200"
         style="fill:#ff3b3b;fill-opacity:1;fill-rule:nonzero;stroke:none"
         d="m 8143.75,10670.4 c 0,0 -53.37,-442.9 -195.11,-524.8 -141.74,-81.8 -79.05,-277 -79.05,-277 0,0 -136.27,453.4 -25.4,601.3 110.85,147.8 299.56,200.5 299.56,200.5" /><path
         id="path202"
         style="fill:#f7a491;fill-opacity:1;fill-rule:nonzero;stroke:none"
         d="m 8034.21,10083.4 c 39.59,-57 40.44,-124.9 1.89,-151.7 -38.54,-26.8 -101.88,-2.2 -141.47,54.8 -39.6,57 -40.44,124.9 -1.9,151.7 38.54,26.8 101.88,2.2 141.48,-54.8" /><path
         id="path204"
         style="fill:#82c7e6;fill-opacity:1;fill-rule:nonzero;stroke:none"
         d="m 13143.4,13239.7 c 238.4,304.8 781.7,749.8 899.1,844.3 104.8,-106.9 262.8,-422.6 283.6,-565.2 -150.1,-30.9 -801.5,-233 -1182.7,-279.1 z m 893.8,1024 c -180.7,-35.6 -903,-1003.3 -903,-1003.3 l -25.4,-67 c 0,0 1306.7,145.3 1354,201.1 127.8,150.8 -277,898.4 -425.6,869.2" /><path
         id="path206"
         style="fill:#82c7e6;fill-opacity:1;fill-rule:nonzero;stroke:none"
         d="m 11650.6,13552.5 c -79,78.8 117.6,406.9 207.2,476.7 22.9,12.9 933.9,-566.8 1061,-764.8 -508.5,55 -1194.7,222.8 -1268.2,288.1 z m 636.2,546 c -355.5,231.9 -453.1,230.2 -556.7,171.4 -103.6,-58.8 -485.5,-606.7 -314.8,-777.7 170.7,-170.9 1524.8,-292.8 1524.8,-292.8 l 30.6,82.9 c 0,0 -328.5,584.4 -683.9,816.2" /><path
         id="path208"
         style="fill:#82c7e6;fill-opacity:1;fill-rule:nonzero;stroke:none"
         d="m 12951,12942.6 h 76.2 c 75.5,0 136.7,61.2 136.7,136.7 v 224.2 c 0,75.5 -61.2,136.7 -136.7,136.7 h -76.2 c -75.5,0 -136.8,-61.2 -136.8,-136.7 v -224.2 c 0,-75.5 61.3,-136.7 136.8,-136.7" /><path
         id="path210"
         style="fill:#b32323;fill-opacity:1;fill-rule:nonzero;stroke:none"
         d="m 15839.6,13189.2 -6194.73,18.6 c -164.84,0.5 -291.29,-146.2 -266.56,-309.3 l 95.86,-632.1 310.49,0.6 187.13,-3181.1 c 10.01,-170.2 150.91,-303.2 321.31,-303.2 h 4944.4 l 205.7,3496.1 292.5,0.5 103.9,909.9" /><path
         id="path212"
         style="fill:#f7a491;fill-opacity:1;fill-rule:nonzero;stroke:none"
         d="m 9682.42,12191.9 1.35,76.4 c -59.3,23.2 -129.23,15.7 -163.86,25.1 l -83.06,61.2 c -17.46,7.6 -42.02,-11.5 -41.85,-30.5 0.16,-18.4 23.54,-55 35.32,-64.4 0,0 148.54,-122.3 200.77,-159.5 25.87,-18.4 107.23,-68.1 107.23,-68.1 l 47.43,88.7 -103.33,71.1" /><path
         id="path214"
         style="fill:#ff3b3b;fill-opacity:1;fill-rule:nonzero;stroke:none"
         d="m 15343.3,8782.7 h -3795.2 l -203.2,4340.7 H 15854 l -189.1,-4038.9 c -7.9,-168.8 -149.5,-301.8 -321.6,-301.8" /><path
         id="path216"
         style="fill:#ff3b3b;fill-opacity:1;fill-rule:nonzero;stroke:none"
         d="m 16040.2,12277.2 -4895,-13 -111.8,941.9 4795.3,-18.4 c 157.5,-0.6 280.7,-135.9 266.7,-292.7 l -55.2,-617.8" /><path
         id="path218"
         style="fill:#b32323;fill-opacity:1;fill-rule:nonzero;stroke:none"
         d="m 11145.2,12264.2 4668.8,13 -4520.8,-246.8 z" /><path
         id="path220"
         style="fill:#82c7e6;fill-opacity:1;fill-rule:nonzero;stroke:none"
         d="M 13111.9,12268.5 H 12982 v 930.2 h 129.9 v -930.2" /><path
         id="path222"
         style="fill:#82c7e6;fill-opacity:1;fill-rule:nonzero;stroke:none"
         d="m 13521.1,8776.2 h -162.3 v 3496.7 h 162.3 V 8776.2" /><path
         id="path224"
         style="fill:#def0f8;fill-opacity:1;fill-rule:nonzero;stroke:none"
         d="m 9601.57,15023 c 432.33,-167.8 788.43,-280.7 1143.53,-375.1 117.1,-31.1 311.1,-119.7 418.9,-40.8 56,41 79.5,102.7 46.6,168.4 -60.4,120.3 -247,128.9 -365,160.3 -359.7,95.8 -762.1,221.3 -1161.49,371.7 -74.89,28.2 -162.47,-28.4 -183.54,-100.9 -23.98,-82.6 26.22,-154.6 101,-183.6 v 0" /><g
         transform="scale(1.03395)"
         id="g226"><path
           id="path228"
           style="fill:#def0f8;fill-opacity:1;fill-rule:nonzero;stroke:none"
           d="m 11963,15172.2 c -123.3,944.8 -115.3,947.3 -167.6,1036.4 -53.7,91.4 -200.7,78.9 -229.7,-26.9 -28.6,-104.5 -22.1,-87.8 111.5,-1081.5 10.6,-79 107.8,-124.8 178.9,-106.9 84.8,21.3 117.3,99.6 106.9,178.9 v 0" /></g><g
         transform="scale(1.01222)"
         id="g230"><path
           id="path232"
           style="fill:#def0f8;fill-opacity:1;fill-rule:nonzero;stroke:none"
           d="m 13771.7,15374.1 c 95.6,128.9 176.2,266.4 242.1,412.7 61.3,135.9 173.6,335.9 68.4,470.5 -22.7,28.9 -75.9,42.7 -110,30.9 -142.8,-49.2 -170,-249.3 -227,-374.5 -62.3,-136.4 -139.1,-266.3 -223.6,-390.1 -44.4,-65 -14.4,-161.1 50.4,-199.8 73,-43.7 152.7,-13.1 199.7,50.3 v 0" /></g><path
         id="path234"
         style="fill:#def0f8;fill-opacity:1;fill-rule:nonzero;stroke:none"
         d="m 16114.5,14819.4 c 43.7,60 7,137.8 -44.3,176.2 -105.8,78.9 -292.4,6.1 -407.7,-25.7 -134.4,-37.1 -264.1,-87.2 -390.7,-145.3 -73,-33.5 -93.2,-137.1 -56,-202.7 43.4,-76.9 128.3,-87.1 202.7,-56.1 486.1,202.4 588.1,105.6 696,253.6" /></g></g></svg>