<?xml version="1.0" encoding="utf-8"?>
<!-- Generator: Adobe Illustrator 27.5.0, SVG Export Plug-In . SVG Version: 6.00 Build 0)  -->
<svg version="1.1" xmlns="http://www.w3.org/2000/svg" xmlns:xlink="http://www.w3.org/1999/xlink" x="0px" y="0px"
	 viewBox="0 0 500 500" style="enable-background:new 0 0 500 500;" xml:space="preserve">
<g id="Background_2">
	<g>
		<g>
			<g>
				<g>
					<rect y="382.398" style="fill:#D1E3FF;" width="500" height="0.25"/>
					<rect x="85.907" y="392.989" style="fill:#D1E3FF;" width="33.742" height="0.25"/>
					<rect x="58.553" y="393.114" style="fill:#D1E3FF;" width="20.021" height="0.25"/>
					<rect x="208.325" y="387.75" style="fill:#D1E3FF;" width="94.786" height="0.25"/>
					<rect x="137.556" y="400.081" style="fill:#D1E3FF;" width="30.222" height="0.25"/>
					<rect x="335" y="391.194" style="fill:#D1E3FF;" width="78.667" height="0.25"/>
					<path style="fill:#D1E3FF;" d="M237.014,337.8H43.915c-3.147,0-5.708-2.561-5.708-5.708V60.66c0-3.147,2.561-5.708,5.708-5.708
						h193.099c3.146,0,5.707,2.561,5.707,5.708v271.432C242.721,335.239,240.16,337.8,237.014,337.8z M43.915,55.203
						c-3.01,0-5.458,2.448-5.458,5.458v271.432c0,3.01,2.448,5.458,5.458,5.458h193.099c3.009,0,5.457-2.448,5.457-5.458V60.66
						c0-3.009-2.448-5.458-5.457-5.458H43.915z"/>
					<path style="fill:#D1E3FF;" d="M453.31,337.8H260.212c-3.146,0-5.707-2.561-5.707-5.708V60.66c0-3.147,2.561-5.708,5.707-5.708
						H453.31c3.148,0,5.708,2.561,5.708,5.708v271.432C459.019,335.239,456.458,337.8,453.31,337.8z M260.212,55.203
						c-3.009,0-5.457,2.448-5.457,5.458v271.432c0,3.01,2.448,5.458,5.457,5.458H453.31c3.01,0,5.458-2.448,5.458-5.458V60.66
						c0-3.009-2.448-5.458-5.458-5.458H260.212z"/>
				</g>
			</g>
		</g>
		<g>
			<g>
				<rect x="395.743" y="265.779" style="fill:#D1E3FF;" width="25.48" height="116.619"/>
				<polygon style="fill:#EEF9FF;" points="416.383,382.398 421.223,382.398 421.223,368.633 411.309,368.633 				"/>
				<rect x="300.515" y="265.779" style="fill:#D1E3FF;" width="25.48" height="116.619"/>
				<rect x="321.771" y="265.779" style="fill:#EEF9FF;" width="99.452" height="108.172"/>
				
					<rect x="377.416" y="316.69" transform="matrix(6.123234e-17 -1 1 6.123234e-17 56.4311 734.1587)" style="fill:#D1E3FF;" width="35.757" height="44.347"/>
				
					<rect x="329.821" y="316.69" transform="matrix(6.123234e-17 -1 1 6.123234e-17 8.8354 686.563)" style="fill:#D1E3FF;" width="35.757" height="44.347"/>
				<path style="fill:#EEF9FF;" d="M352.086,324.836h-8.774c-3.811,0-7.454-1.567-10.075-4.333l0,0h28.924l0,0
					C359.54,323.269,355.897,324.836,352.086,324.836z"/>
				<path style="fill:#EEF9FF;" d="M400.13,324.836h-8.774c-3.811,0-7.454-1.567-10.075-4.333l0,0h28.924l0,0
					C407.584,323.269,403.941,324.836,400.13,324.836z"/>
				
					<rect x="377.416" y="269.634" transform="matrix(6.123234e-17 -1 1 6.123234e-17 103.487 687.1028)" style="fill:#D1E3FF;" width="35.757" height="44.347"/>
				
					<rect x="329.821" y="269.634" transform="matrix(6.123234e-17 -1 1 6.123234e-17 55.8913 639.5071)" style="fill:#D1E3FF;" width="35.757" height="44.347"/>
				<path style="fill:#EEF9FF;" d="M352.086,277.78h-8.774c-3.811,0-7.454-1.567-10.075-4.333l0,0h28.924l0,0
					C359.54,276.213,355.897,277.78,352.086,277.78z"/>
				<path style="fill:#EEF9FF;" d="M400.13,277.78h-8.774c-3.811,0-7.454-1.567-10.075-4.333l0,0h28.924l0,0
					C407.584,276.213,403.941,277.78,400.13,277.78z"/>
				<polygon style="fill:#EEF9FF;" points="326.611,382.398 321.771,382.398 321.771,368.633 331.685,368.633 				"/>
			</g>
			<g>
				<g>
					<g>
						<path style="fill:#CADEFC;" d="M346.368,247.512c0,4.455,3.101,7.561-1.355,7.561s-14.779-3.106-14.779-7.561
							c0-4.455,3.612-8.067,8.067-8.067S346.368,243.056,346.368,247.512z"/>
						<path style="fill:#CADEFC;" d="M360.177,251.356c0,4.455,3.101,7.561-1.355,7.561s-14.779-3.106-14.779-7.561
							c0-4.455,3.612-8.067,8.067-8.067C356.565,243.289,360.177,246.901,360.177,251.356z"/>
						<path style="fill:#CADEFC;" d="M373.406,248.987c0,4.455,3.101,7.561-1.354,7.561c-4.455,0-14.78-3.106-14.78-7.561
							c0-4.455,3.612-8.067,8.067-8.067S373.406,244.532,373.406,248.987z"/>
						<path style="fill:#E3EEFF;" d="M325.289,250.04c0,0,0.66,15.739,25.947,15.739c25.287,0,25.947-15.739,25.947-15.739H325.289z
							"/>
					</g>
				</g>
			</g>
			<g>
				<g>
					<rect x="294.048" y="73.99" style="fill:#D1E3FF;" width="128.229" height="141.897"/>
					<path style="fill:#D1E3FF;" d="M436.019,69.611H285.747c-0.703,0-1.273,0.57-1.273,1.273l0,0c0,0.703,0.57,1.273,1.273,1.273
						h150.272c0.703,0,1.273-0.57,1.273-1.273l0,0C437.292,70.181,436.722,69.611,436.019,69.611z"/>
					<rect x="296.59" y="73.99" style="fill:#E3EEFF;" width="131.128" height="141.897"/>
					<rect x="294.048" y="215.887" style="fill:#D1E3FF;" width="128.229" height="10.111"/>
					<rect x="305.655" y="215.887" style="fill:#E3EEFF;" width="131.128" height="10.111"/>
					
						<rect x="298.823" y="86.992" transform="matrix(-1.836970e-16 1 -1 -1.836970e-16 507.0928 -217.2153)" style="fill:#F5FCFF;" width="126.662" height="115.893"/>
					<polygon style="fill:#FFFFFF;" points="330.516,208.27 375.225,81.608 396.33,81.608 351.621,208.27 					"/>
					<polygon style="fill:#FFFFFF;" points="356.155,208.27 400.864,81.608 409.092,81.608 364.383,208.27 					"/>
					
						<rect x="356.286" y="144.455" transform="matrix(-1.836970e-16 1 -1 -1.836970e-16 564.5557 -274.6782)" style="fill:#D1E3FF;" width="126.662" height="0.967"/>
				</g>
				<g>
					<rect x="291.186" y="67.333" style="fill:#EBF3FF;" width="13.11" height="122.222"/>
					<rect x="299.189" y="67.333" style="fill:#D1E3FF;" width="10.214" height="122.222"/>
					<rect x="304.296" y="67.333" style="fill:#EBF3FF;" width="13.11" height="122.222"/>
					<rect x="312.299" y="67.333" style="fill:#D1E3FF;" width="10.214" height="122.222"/>
					<rect x="317.406" y="67.333" style="fill:#EBF3FF;" width="13.11" height="122.222"/>
				</g>
				<g>
					<rect x="407.667" y="67.333" style="fill:#EBF3FF;" width="7.555" height="122.222"/>
					<rect x="412.279" y="67.333" style="fill:#D1E3FF;" width="5.886" height="122.222"/>
					<rect x="415.221" y="67.333" style="fill:#EBF3FF;" width="7.555" height="122.222"/>
					<rect x="419.833" y="67.333" style="fill:#D1E3FF;" width="5.886" height="122.222"/>
					<rect x="422.776" y="67.333" style="fill:#EBF3FF;" width="7.555" height="122.222"/>
				</g>
			</g>
			<g>
				<rect x="96.708" y="105.638" style="fill:#E3EEFF;" width="13.661" height="37.273"/>
				<g>
					<g>
						<polygon style="fill:#F3F8FF;" points="78.038,151.444 73.704,163.28 78.038,163.28 104.601,151.444 						"/>
						<polygon style="fill:#D1E3FF;" points="73.704,151.444 73.704,163.28 100.267,151.444 						"/>
					</g>
					<g>
						<polygon style="fill:#F3F8FF;" points="182.204,151.444 177.871,163.28 182.204,163.28 208.767,151.444 						"/>
						<polygon style="fill:#D1E3FF;" points="177.871,151.444 177.871,163.28 204.434,151.444 						"/>
					</g>
					<g>
						
							<rect x="54.204" y="142.985" transform="matrix(-1 -1.224647e-16 1.224647e-16 -1 137.2977 294.9851)" style="fill:#D1E3FF;" width="28.889" height="9.015"/>
						<rect x="83.093" y="142.985" style="fill:#F3F8FF;" width="143.63" height="9.015"/>
					</g>
				</g>
				<g>
					<polygon style="fill:#D1E3FF;" points="133.122,142.911 99.874,142.911 95.763,97.744 129.011,97.744 					"/>
					<polygon style="fill:#EEF9FF;" points="134.844,142.911 101.596,142.911 97.485,97.744 130.733,97.744 					"/>
					<polygon style="fill:#FFFFFF;" points="106.141,137.911 102.94,102.744 126.188,102.744 129.389,137.911 					"/>
				</g>
				<path style="fill:#E3EEFF;" d="M148.257,128.242c0,0,0.615,14.668,24.181,14.668c23.566,0,24.181-14.668,24.181-14.668H148.257z
					"/>
			</g>
			<g>
				<g>
					<path style="fill:#D1E3FF;" d="M123.764,379.155h-36.43c-1.692,0-3.128-1.038-3.659-2.645
						c-0.531-1.606,0.003-3.296,1.362-4.305l0.596,0.803c-1.221,0.907-1.321,2.241-1.008,3.189c0.313,0.946,1.189,1.958,2.71,1.958
						h36.43c4.639,0,8.412-3.773,8.412-8.412V261.88c0-5.055,4.112-9.167,9.167-9.167h10.895v1h-10.895
						c-4.503,0-8.167,3.664-8.167,8.167v107.863C133.176,374.933,128.954,379.155,123.764,379.155z"/>
					<rect x="179.844" y="254.77" style="fill:#D1E3FF;" width="65.614" height="127.627"/>
					<rect x="242.505" y="254.77" style="fill:#EBF3FF;" width="5.411" height="127.627"/>
					
						<rect x="119.135" y="254.77" transform="matrix(-1 -1.224647e-16 1.224647e-16 -1 368.7268 519.113)" style="fill:#EBF3FF;" width="130.457" height="9.573"/>
					<rect x="52.739" y="254.77" style="fill:#D1E3FF;" width="65.614" height="127.627"/>
					<rect x="115.4" y="254.77" style="fill:#EBF3FF;" width="5.411" height="127.627"/>
				</g>
				<g>
					<polygon style="fill:#D1E3FF;" points="98.033,216.668 159.173,216.668 168.034,252.772 106.894,252.772 					"/>
					<polygon style="fill:#D1E3FF;" points="106.894,252.772 107.141,254.768 168.284,254.768 168.037,252.772 					"/>
					<polygon style="fill:#EEF9FF;" points="99.915,216.668 161.055,216.668 169.916,252.772 108.776,252.772 					"/>
					<polygon style="fill:#FFFFFF;" points="110.069,251.123 102.018,218.318 159.761,218.318 167.813,251.123 					"/>
					<polygon style="fill:#EEF9FF;" points="124.707,252.772 124.954,254.768 192.281,254.768 192.034,252.772 					"/>
				</g>
				<g>
					<path style="fill:#EEF9FF;" d="M77.071,245.672c0,0-8.997-15.51,3.485-27.857c0,0,3.258,2.123,3.208,4.978
						c-0.05,2.855-3.489,3.577-2.75,5.959c0.739,2.382,3.986,4.719,1.855,6.689c-2.131,1.97,0.343,3.723,0.199,6.135
						C82.924,243.99,77.071,245.672,77.071,245.672z"/>
					<path style="fill:#EEF9FF;" d="M77.753,247.089c0,0,3.648-17.556-12.091-25.336c0,0-2.422,3.042-1.475,5.736
						c0.948,2.693,4.439,2.294,4.489,4.788c0.05,2.494-2.294,5.736,0.349,6.933c2.643,1.197,0.848,3.641,1.746,5.885
						C71.669,247.339,77.753,247.089,77.753,247.089z"/>
					<path style="fill:#D1E3FF;" d="M63.968,243.199c0,0,0.299,11.571,11.771,11.571s11.771-11.571,11.771-11.571H63.968z"/>
				</g>
				<g>
					<path style="fill:#EBF3FF;" d="M225.74,382.398h-2.285l-6.523-32.155l-1.146-5.633l-7.117-35.042h-27.29l-14.787,72.83h-2.284
						l15.067-74.174c0.107-0.52,0.561-0.891,1.097-0.891h29.112c0.528,0,0.99,0.371,1.089,0.891l6.251,30.778l1.146,5.625
						L225.74,382.398z"/>
					<path style="fill:#EBF3FF;" d="M269.549,382.398h-2.284l-14.795-72.83h-27.281l-7.117,35.058l-1.138,5.616l-6.532,32.155
						h-2.284l7.67-37.788l1.138-5.608l6.251-30.778c0.107-0.52,0.569-0.891,1.097-0.891h29.112c0.536,0,0.99,0.371,1.097,0.891
						L269.549,382.398z"/>
					<path style="fill:#E3EEFF;" d="M202.286,308.449h50.14c9.572,0,17.387-7.657,17.581-17.227l1.869-76.202
						c0.146-7.175-5.63-13.07-12.806-13.07h-31.431c-6.513,0-11.988,4.887-12.726,11.358L202.286,308.449z"/>
					<path style="fill:#E3EEFF;" d="M180.564,298.842h49.067v9.607h-53.431c-1.383,0-2.504-1.121-2.504-2.504v-0.236
						C173.697,301.916,176.771,298.842,180.564,298.842z"/>
				</g>
			</g>
		</g>
	</g>
</g>
<g id="Background_1" style="display:none;">
	<path style="display:inline;opacity:0.4;fill:#D4E8FF;" d="M97.554,173.976c37.499-25.737,92.694,3.844,125.894-25.319
		c20.452-17.965,21.884-45.461,34.839-66.883c11.432-18.903,33.426-27.538,54.598-28.472c43.785-1.933,99.793,26.75,98.726,76.547
		c-1.01,47.122-61.038,56.481-62.92,105.58c-1.698,44.291,40.769,81.43-10.819,114.175c-39.053,24.789-91.633,12.961-112.079-29.726
		c-10.881-22.717-14.657-39.251-40.87-49.955c-22.569-9.216-45.03-1.815-68.073-6.306C71.12,254.705,58.117,201.044,97.554,173.976z
		"/>
</g>
<g id="Objects">
	<g>
		<ellipse style="fill:#F0F6FF;" cx="250" cy="416.238" rx="193.889" ry="11.323"/>
		<g>
			<g>
				<path style="fill:#FF8B7B;" d="M276.441,170.819l0.653,0.555c0.238,0.204,0.51,0.405,0.762,0.609
					c0.521,0.407,1.048,0.816,1.6,1.203c1.084,0.794,2.238,1.512,3.387,2.233c2.313,1.426,4.745,2.679,7.264,3.716
					c2.514,1.046,5.088,1.968,7.736,2.638c0.659,0.178,1.331,0.297,1.997,0.45l1.002,0.219c0.21,0.04,0.039,0.018-0.056,0.046
					c-0.116,0.037-0.301,0.1-0.379,0.178c-0.092,0.088-0.087,0.084-0.048,0.062c0.09-0.105,0.302-0.473,0.458-0.943
					c0.332-0.955,0.538-2.244,0.655-3.549c0.118-1.318,0.158-2.695,0.149-4.088c-0.017-2.79-0.22-5.64-0.443-8.5
					c-0.236-2.861-0.573-5.731-0.943-8.603c-0.343-2.871-0.778-5.76-1.205-8.602l3.757-0.862c1.655,5.72,2.965,11.463,3.968,17.355
					c0.515,2.943,0.891,5.923,1.097,8.981c0.101,1.531,0.155,3.082,0.11,4.687c-0.058,1.611-0.168,3.252-0.66,5.11
					c-0.262,0.928-0.601,1.937-1.354,3.032c-0.41,0.551-0.882,1.116-1.589,1.608c-0.682,0.481-1.545,0.869-2.39,1.002
					c-0.815,0.166-1.727,0.095-2.237,0.011l-1.155-0.186c-0.768-0.133-1.545-0.234-2.308-0.395c-3.062-0.617-6.078-1.474-9.004-2.58
					c-2.92-1.121-5.743-2.486-8.451-4.064c-1.342-0.813-2.662-1.661-3.941-2.593c-0.645-0.455-1.274-0.943-1.904-1.439
					c-0.313-0.26-0.621-0.505-0.933-0.783c-0.324-0.281-0.592-0.517-0.991-0.898L276.441,170.819z"/>
				<path style="fill:#9FC6FF;" d="M265.572,166.266c10.972-1.49,19.839,7.381,19.839,7.381l-10.064,15.523
					c0,0-10.782-6.904-12.672-11.601C260.706,172.678,259.942,167.03,265.572,166.266z"/>
				<path style="fill:#FF8B7B;" d="M299.168,149.789l-3.643-7.319l9.566-0.081c0,0,0.193,5.109-2.23,8.043L299.168,149.789z"/>
				<polygon style="fill:#FF8B7B;" points="297.222,134.601 304.336,135.866 305.091,142.389 295.525,142.47 				"/>
				<polygon style="fill:#FF8B7B;" points="226.666,407.868 235.633,408.733 241.833,387.685 232.867,386.82 				"/>
				<polygon style="fill:#FF8B7B;" points="169.699,376.751 176.341,382.987 190.68,367.229 184.038,360.992 				"/>
				<path style="fill:#14365B;" d="M179.408,379.996l-4.991-8.993c-0.182-0.327-0.556-0.467-0.901-0.335l-7.684,2.924
					c-0.797,0.303-1.143,1.326-0.711,2.073c1.794,3.105,2.817,4.514,5.012,8.469c1.35,2.433,3.98,8.013,5.845,11.373
					c1.824,3.286,5.286,1.695,4.811,0.129c-2.133-7.022-1.731-10.93-1.129-14.029C179.767,381.048,179.673,380.475,179.408,379.996z
					"/>
				<path style="fill:#14365B;" d="M236.684,406h-10.86c-0.395,0-0.752,0.274-0.858,0.66l-2.361,8.593
					c-0.245,0.891,0.411,1.711,1.325,1.719c3.827,0.034,5.641,0.018,10.417,0.018c2.938,0,10.54,0,14.597,0
					c3.969,0,4.799-4.012,3.157-4.375c-7.363-1.629-11.607-3.876-13.879-6.02C237.812,406.208,237.262,406,236.684,406z"/>
				<polygon style="fill:#EA7063;" points="241.83,387.69 238.635,398.54 229.41,398.54 232.859,386.826 				"/>
				<polygon style="fill:#EA7063;" points="184.033,360.995 190.677,367.234 183.283,375.354 176.639,369.115 				"/>
				<path style="fill:#0F264C;" d="M276.407,160.063c-0.069-7.268-6.645-9.813-6.645-9.813s8.228-15.583,3.981-25.917
					c-4.247-10.333-18.17-12.167-22.598-7.333c-7.762-0.334-10.238,10.833-10.238,10.833s-6.495,1.083-8.25,5.814
					c-1.755,4.731,3.583,10.063,3.583,10.063s-7.417,1.039-10.146,6.706c-2.729,5.667-1.057,13.294,7.146,19.833
					c11.917,9.5,33.833-2.417,33.833-2.417S276.486,168.417,276.407,160.063z"/>
				<path style="fill:#9FC6FF;" d="M274.96,167.292c0,0,3.975,1.749-9.358,54.513c-14.699-1.271-29.89-2.585-37.043-3.204
					c1.926-15.022,2.747-24.317-1.783-55.88c0,0,7.907-1.017,15.909-0.712c6.259,0.239,11.384,0.481,16.82,1.455
					C266.674,164.749,274.96,167.292,274.96,167.292z"/>
				<path style="fill:#FFFFFF;" d="M265.41,164.71c-1.92-0.46-3.95-0.9-5.9-1.25c-5.44-0.97-10.56-1.21-16.82-1.45
					c-1.93-0.07-3.86-0.07-5.67-0.03l1.24,2.36c0.22,0.42,5.5,10.27,15.53,15.86l2.76,1.54l2.57-1.83
					C265.6,175.3,266.56,169.28,265.41,164.71z"/>
				<path style="fill:#FF8B7B;" d="M245.991,143.214c0.593,5.504,0.794,15.512-3.305,18.796c0,0,4.687,8.892,13.541,13.824
					c7.847-5.583,3.28-12.369,3.28-12.369c-5.91-1.963-5.367-6.428-3.952-10.542L245.991,143.214z"/>
				<path style="fill:#EA7063;" d="M249.889,147.175l5.66,5.743c-0.338,0.973-0.622,1.966-0.777,2.941
					c-2.277-0.533-5.573-2.899-5.609-5.334C249.146,149.31,249.644,147.719,249.889,147.175z"/>
				<path style="fill:#FF8B7B;" d="M245.757,130.708c-1.083,9.021-1.734,12.816,1.935,18.219c5.518,8.126,16.835,7.484,20.592-1.032
					c3.381-7.665,4.584-21.13-3.499-26.276C256.821,116.548,246.84,121.687,245.757,130.708z"/>
				<path style="fill:#0F264C;" d="M252.741,119.62c6.952,1.797,0.083,22.944-11.042,16.808c0,0,0.5-8.928,3.583-12.719
					C248.366,119.917,252.741,119.62,252.741,119.62z"/>
				<path style="fill:#0F264C;" d="M251.991,120.792c3,4.875,25.252,14.125,17.772,3.625S251.991,120.792,251.991,120.792z"/>
				<path style="fill:#FF8B7B;" d="M242.9,138.504c-0.155,1.877,0.572,3.651,1.591,4.815c1.534,1.752,3.57,0.687,4.207-1.426
					c0.573-1.901,0.465-5.104-1.585-6.08C245.092,134.852,243.077,136.357,242.9,138.504z"/>
				<path style="fill:#0F264C;" d="M265.602,221.805c0,0,12.533,55.442,4.167,94.528c-5.603,26.178-25.812,79.061-25.812,79.061
					l-15.8-0.406c0,0,15.297-55.497,18.46-77.322c5.41-37.333-8.141-98.207-8.141-98.207L265.602,221.805z"/>
				<path style="fill:#0A1B35;" d="M251.15,233l-7.9,12.46c2.01,12.92,4.01,29.08,4.52,44.63C258.88,270.2,253.62,243.53,251.15,233
					z"/>
				<polygon style="fill:#9FC6FF;" points="245.258,396.213 225.74,395.715 226.869,389.718 248.18,390.728 				"/>
				<path style="fill:#0F264C;" d="M257.503,221.215c0,0-7.352,58.797-23.29,90.896c-12.873,25.927-47.223,62.835-47.223,62.835
					l-8.783-9.048c0,0,23.202-40.112,32.77-57.335c23.459-42.231,4.287-74.457,17.583-89.963L257.503,221.215z"/>
				<polygon style="fill:#9FC6FF;" points="187.879,376.157 176.545,365.109 180.305,359.993 192.657,372.763 				"/>
				<path style="fill:#0053CC;" d="M228.193,216.38l-1.957,3.171c-0.152,0.246,0.13,0.535,0.558,0.572l38.847,3.36
					c0.334,0.029,0.625-0.111,0.664-0.319l0.621-3.287c0.043-0.228-0.23-0.447-0.595-0.479l-37.511-3.244
					C228.544,216.13,228.29,216.221,228.193,216.38z"/>
				<path style="fill:#0F264C;" d="M232.868,221.01l-1.005-0.087c-0.2-0.017-0.344-0.134-0.319-0.258l0.844-4.267
					c0.025-0.125,0.209-0.213,0.409-0.195l1.005,0.087c0.2,0.017,0.344,0.134,0.319,0.259l-0.844,4.267
					C233.252,220.939,233.068,221.027,232.868,221.01z"/>
				<path style="fill:#0F264C;" d="M262.787,223.597l-1.005-0.087c-0.2-0.017-0.344-0.134-0.319-0.258l0.844-4.267
					c0.025-0.125,0.209-0.213,0.409-0.196l1.005,0.087c0.2,0.017,0.344,0.134,0.319,0.258l-0.844,4.267
					C263.171,223.527,262.987,223.615,262.787,223.597z"/>
				<path style="fill:#0F264C;" d="M247.827,222.303l-1.005-0.087c-0.2-0.017-0.344-0.134-0.319-0.258l0.844-4.267
					c0.025-0.125,0.209-0.213,0.409-0.196l1.005,0.087c0.2,0.017,0.344,0.134,0.319,0.258l-0.844,4.267
					C248.211,222.233,248.027,222.321,247.827,222.303z"/>
				<path style="fill:#0F264C;" d="M258.832,135.675c-0.133,0.726,0.145,1.386,0.619,1.472s0.967-0.432,1.1-1.158
					c0.133-0.726-0.145-1.386-0.619-1.472C259.458,134.43,258.965,134.949,258.832,135.675z"/>
				<path style="fill:#0F264C;" d="M267.043,137.176c-0.133,0.726,0.144,1.385,0.619,1.472c0.475,0.087,0.967-0.432,1.1-1.158
					c0.133-0.726-0.145-1.386-0.619-1.472C267.668,135.931,267.176,136.45,267.043,137.176z"/>
				<path style="fill:#0F264C;" d="M267.926,136.02l1.837-0.184C269.762,135.836,268.618,137.035,267.926,136.02z"/>
				<path style="fill:#FF5652;" d="M264.645,138.027c0,0,0.661,3.352,1.742,5.109c-1.122,0.72-2.678,0.013-2.678,0.013
					L264.645,138.027z"/>
				<path style="fill:#0F264C;" d="M260.668,145.509c-0.011,0-0.022-0.001-0.032-0.003c-3.399-0.621-4.529-3.233-4.575-3.344
					c-0.039-0.092,0.005-0.197,0.097-0.236c0.089-0.04,0.196,0.004,0.235,0.096c0.011,0.025,1.107,2.544,4.308,3.129
					c0.098,0.018,0.163,0.112,0.146,0.209C260.829,145.448,260.754,145.509,260.668,145.509z"/>
				<path style="fill:#0F264C;" d="M256.878,130.016c-0.108,0-0.216-0.049-0.286-0.142c-0.121-0.158-0.091-0.384,0.067-0.505
					c1.875-1.433,3.731-0.797,3.813-0.769c0.187,0.066,0.284,0.271,0.219,0.459c-0.066,0.187-0.272,0.283-0.459,0.221
					c-0.063-0.021-1.58-0.526-3.135,0.662C257.031,129.992,256.954,130.016,256.878,130.016z"/>
				<path style="fill:#0F264C;" d="M271.677,134.419c-0.104,0-0.208-0.045-0.279-0.132c-1.249-1.524-2.878-1.366-2.896-1.365
					c-0.197,0.019-0.375-0.122-0.398-0.319c-0.021-0.198,0.121-0.376,0.319-0.398c0.082-0.007,2.037-0.2,3.533,1.625
					c0.126,0.154,0.104,0.381-0.051,0.507C271.838,134.393,271.758,134.419,271.677,134.419z"/>
				<path style="fill:#FF8B7B;" d="M229.589,175.974c-1.529,3.117-3.182,5.864-4.954,8.676c-1.8,2.762-3.703,5.459-5.759,8.058
					c-2.042,2.61-4.285,5.075-6.642,7.448c-1.225,1.151-2.415,2.327-3.724,3.402l-0.962,0.822l-0.24,0.205l-0.317,0.247
					c-0.219,0.165-0.43,0.337-0.665,0.483c-0.908,0.617-1.906,1.122-2.932,1.473c-2.063,0.713-4.167,0.826-6.089,0.668
					c-1.926-0.178-3.721-0.613-5.405-1.182c-3.364-1.155-6.38-2.728-9.189-4.53c-5.615-3.621-10.567-7.802-15.138-12.541
					l2.654-2.795c2.39,1.919,4.918,3.835,7.492,5.565c2.557,1.768,5.185,3.414,7.877,4.836c2.694,1.399,5.429,2.676,8.16,3.407
					c2.709,0.757,5.417,0.887,7.286,0.1c1.007-0.403,1.516-0.844,2.766-2.044c1.115-0.997,2.142-2.114,3.196-3.191
					c2.05-2.233,3.952-4.617,5.814-7.044c1.851-2.438,3.566-4.996,5.201-7.601c0.83-1.295,1.625-2.612,2.401-3.937
					c0.749-1.315,1.533-2.706,2.183-3.949L229.589,175.974z"/>
				<path style="fill:#FF8B7B;" d="M172.678,187.628l-3.561-7.359l-5.917,7.518c0,0,3.923,3.278,7.727,3.156L172.678,187.628z"/>
				<polygon style="fill:#FF8B7B;" points="165.229,178.124 161.877,184.525 163.201,187.786 169.117,180.268 				"/>
				<path style="fill:#9FC6FF;" d="M226.777,162.721c-4.54,0.803-10.904,13.828-10.904,13.828l12.463,11.272
					c0,0,8.089-10.849,7.604-16.766C235.526,166.031,232.561,161.698,226.777,162.721z"/>
				<path style="fill:#407BFF;" d="M181.159,384.83c-0.118,0-0.235-0.02-0.352-0.059c-1.086-0.365-1.798-2.376-2.127-3.542
					c-0.02-0.069,0.004-0.144,0.06-0.189c0.057-0.046,0.134-0.054,0.197-0.02c0.331,0.174,3.232,1.725,3.327,2.87
					c0.015,0.175-0.027,0.428-0.309,0.641C181.69,384.73,181.424,384.83,181.159,384.83z M179.15,381.549
					c0.504,1.608,1.155,2.673,1.771,2.881c0.266,0.091,0.532,0.029,0.815-0.186c0.163-0.124,0.173-0.244,0.167-0.324
					C181.846,383.218,180.145,382.113,179.15,381.549z"/>
				<path style="fill:#407BFF;" d="M181.607,382.002c-1.03,0-2.293-0.328-2.848-0.667c-0.055-0.034-0.088-0.094-0.086-0.158
					c0.001-0.064,0.037-0.123,0.093-0.153c0.098-0.054,2.394-1.317,3.632-0.878c0.323,0.114,0.551,0.33,0.677,0.642
					c0.197,0.484-0.018,0.765-0.164,0.889C182.635,381.909,182.154,382.002,181.607,382.002z M179.249,381.18
					c0.984,0.419,2.892,0.677,3.427,0.222c0.09-0.076,0.178-0.199,0.064-0.479c-0.087-0.214-0.239-0.357-0.463-0.436
					C181.435,380.188,179.903,380.857,179.249,381.18z"/>
				<path style="fill:#407BFF;" d="M241.503,407.757c-1.043,0-2.179-0.202-2.966-0.377c-0.075-0.017-0.132-0.079-0.14-0.156
					c-0.008-0.076,0.033-0.15,0.103-0.183c0.446-0.21,4.384-2.032,5.379-1.358c0.126,0.086,0.274,0.252,0.257,0.558
					c-0.024,0.424-0.205,0.766-0.537,1.017C243.107,407.629,242.334,407.757,241.503,407.757z M239.157,407.139
					c1.17,0.22,3.333,0.503,4.225-0.169c0.247-0.188,0.376-0.433,0.394-0.75c0.009-0.146-0.048-0.204-0.099-0.238
					C243.119,405.601,240.792,406.419,239.157,407.139z"/>
				<path style="fill:#407BFF;" d="M238.577,407.385c-0.042,0-0.083-0.015-0.117-0.043c-0.051-0.044-0.074-0.112-0.059-0.178
					c0.038-0.166,0.936-4.056,3.07-3.803c0.535,0.064,0.682,0.329,0.71,0.541c0.134,0.989-2.351,2.983-3.537,3.469
					C238.623,407.38,238.6,407.385,238.577,407.385z M241.278,403.71c-1.364,0-2.162,2.261-2.426,3.166
					c1.284-0.672,3.059-2.293,2.973-2.926c-0.006-0.046-0.025-0.186-0.396-0.231C241.377,403.713,241.327,403.71,241.278,403.71z"/>
				<path style="fill:#0F264C;" d="M259.716,134.519l1.837-0.184C261.552,134.335,260.408,135.534,259.716,134.519z"/>
			</g>
			<g>
				<path style="opacity:0.6;fill:#0053CC;" d="M184.49,77.526l-29.308,189.441l164.92,25.515L349.41,103.04L184.49,77.526z
					 M252.25,185.301c-21.128-3.269-35.61-23.052-32.341-44.18c3.27-21.136,23.052-35.61,44.18-32.341
					c21.135,3.27,35.611,23.044,32.341,44.18C293.161,174.088,273.385,188.571,252.25,185.301z"/>
				<path style="opacity:0.3;fill:#0053CC;" d="M315.116,285.286l-0.247-0.038l-165.167-25.553l0.038-0.247L179.086,69.76
					l0.247,0.038L344.5,95.35l-0.038,0.247L315.116,285.286z M150.272,259.277l164.426,25.438L343.93,95.768L179.504,70.33
					L150.272,259.277z"/>
				<path style="fill:#FFFFFF;" d="M258.193,187.26c-2.037,0-4.099-0.155-6.173-0.476l0,0
					c-21.914-3.391-36.984-23.978-33.594-45.892c1.643-10.617,7.321-19.959,15.989-26.303c8.667-6.344,19.287-8.934,29.902-7.291
					c21.914,3.391,36.984,23.977,33.595,45.892C294.842,173.029,277.676,187.26,258.193,187.26z M252.479,183.819
					c20.276,3.138,39.33-10.809,42.468-31.088c3.137-20.279-10.81-39.33-31.089-42.468c-9.823-1.52-19.651,0.877-27.671,6.747
					c-8.022,5.871-13.276,14.516-14.796,24.341C218.254,161.63,232.2,180.681,252.479,183.819L252.479,183.819z"/>
				<g>
					
						<rect x="183.198" y="194.18" transform="matrix(0.9882 0.1529 -0.1529 0.9882 32.6894 -28.4875)" style="fill:#9FC6FF;" width="36.76" height="8.261"/>
					
						<rect x="224.376" y="199.631" transform="matrix(0.9882 0.1529 -0.1529 0.9882 33.9369 -33.8102)" style="fill:#9FC6FF;" width="24.87" height="8.261"/>
					
						<rect x="180.073" y="218.072" transform="matrix(0.9882 0.1529 -0.1529 0.9882 36.8711 -35.0812)" style="fill:#FFFFFF;" width="132.935" height="8.261"/>
					
						<rect x="177.781" y="230.32" transform="matrix(0.9882 0.1529 -0.1529 0.9882 38.3239 -29.4777)" style="fill:#FFFFFF;" width="66.102" height="8.261"/>
					
						<rect x="254.412" y="240.482" transform="matrix(0.9882 0.1529 -0.1529 0.9882 40.6497 -39.4013)" style="fill:#FFFFFF;" width="44.218" height="8.261"/>
					
						<rect x="174.86" y="250.747" transform="matrix(0.9882 0.1529 -0.1529 0.9882 41.6488 -31.8615)" style="fill:#FFFFFF;" width="106.268" height="8.261"/>
				</g>
			</g>
			<g>
				<g>
					<path style="fill:#9FC6FF;" d="M351.173,292.481h-1c0-2.489-0.307-4.966-0.91-7.36l0.969-0.244
						C350.856,287.351,351.173,289.909,351.173,292.481z M347.253,279.56c-2.188-4.58-5.533-8.57-9.675-11.538l0.582-0.813
						c4.278,3.065,7.734,7.188,9.995,11.919L347.253,279.56z"/>
					<path style="fill:#9FC6FF;" d="M320.102,264.911c-15.227,0-27.571,12.344-27.571,27.571c0,15.227,12.344,27.571,27.571,27.571
						c15.227,0,27.571-12.344,27.571-27.571C347.673,277.255,335.329,264.911,320.102,264.911z M320.102,316.477
						c-13.252,0-23.995-10.743-23.995-23.995c0-13.252,10.743-23.995,23.995-23.995c13.252,0,23.995,10.743,23.995,23.995
						C344.096,305.734,333.354,316.477,320.102,316.477z"/>
					<circle style="opacity:0.8;fill:#0053CC;" cx="320.102" cy="292.482" r="23.995"/>
				</g>
				<polygon style="fill:#FFFFFF;" points="316.369,307.663 302.291,293.585 305.826,290.05 316.369,300.593 334.377,282.585 
					337.912,286.12 				"/>
			</g>
		</g>
	</g>
</g>
<g id="Designed_by_Freepik">
	<g>
		<g>
			<g id="XMLID_197_">
				<g id="XMLID_216_">
					<path id="XMLID_224_" style="fill:#A5B7C6;" d="M261.442,464.892c-0.49,0.502-0.91,1.054-1.255,1.646l-0.527-0.273
						c-0.076-0.337-0.396-0.569-0.746-0.528c-0.375,0.044-0.643,0.384-0.599,0.759c0.044,0.375,0.384,0.643,0.758,0.599
						c0.074-0.009,0.144-0.029,0.208-0.059l0.511,0.265c-0.284,0.627-0.49,1.289-0.611,1.975l0.845,0.149
						c0.26-1.479,0.962-2.839,2.029-3.932L261.442,464.892z"/>
					<path id="XMLID_223_" style="fill:#A5B7C6;" d="M267.656,462.285c-0.194,0-0.386,0.007-0.577,0.019l-0.083-0.709
						c0.212-0.169,0.335-0.44,0.301-0.73c-0.052-0.445-0.456-0.763-0.901-0.711c-0.445,0.052-0.763,0.455-0.711,0.901
						c0.034,0.288,0.214,0.522,0.458,0.638l0.083,0.707c-0.808,0.132-1.589,0.376-2.332,0.732l0.37,0.774
						c1.058-0.506,2.199-0.762,3.392-0.762c0.562,0,1.124,0.06,1.67,0.178l0.182-0.839
						C268.903,462.352,268.279,462.285,267.656,462.285z"/>
					<path id="XMLID_222_" style="fill:#A5B7C6;" d="M275.133,465.17c0.375-0.046,0.641-0.387,0.595-0.761
						c-0.046-0.375-0.387-0.641-0.761-0.595c-0.35,0.043-0.606,0.344-0.6,0.689l-0.471,0.411c-0.473-0.487-1.007-0.92-1.594-1.29
						l-0.458,0.726c1.284,0.809,2.288,1.955,2.903,3.313l0.782-0.354c-0.284-0.627-0.643-1.214-1.067-1.75l0.455-0.397
						C274.986,465.175,275.059,465.179,275.133,465.17z"/>
					<path id="XMLID_221_" style="fill:#A5B7C6;" d="M267.036,473.845c-0.437,0.026-0.878,0.039-1.31,0.039
						c-0.997,0-1.962-0.069-2.807-0.203c-0.442-0.07-0.958-0.176-1.438-0.331c1.185,2.107,3.476,3.539,6.102,3.539
						c3.233,0,5.959-2.17,6.737-5.1c-0.772,0.509-1.705,0.935-2.784,1.271C270.201,473.478,268.643,473.749,267.036,473.845z"/>
					<path id="XMLID_217_" style="fill:#A5B7C6;" d="M267.656,464.002c-3.796,0-6.884,3.019-6.884,6.73
						c0,0.482,0.052,0.962,0.155,1.428c0.763,0.547,3.064,1.008,6.055,0.828c3.261-0.196,5.998-1.084,7.556-2.444
						c-0.006-0.221-0.023-0.442-0.051-0.659C274.056,466.531,271.12,464.002,267.656,464.002z M265.211,471.38
						c-1.155,0-2.095-0.94-2.095-2.095c0-1.155,0.94-2.095,2.095-2.095c1.155,0,2.095,0.94,2.095,2.095
						C267.306,470.44,266.366,471.38,265.211,471.38z M270.576,470.351c-0.849,0-1.54-0.691-1.54-1.54
						c0-0.849,0.691-1.541,1.54-1.541c0.849,0,1.541,0.691,1.541,1.541C272.116,469.66,271.425,470.351,270.576,470.351z"/>
				</g>
				<path id="XMLID_214_" style="fill:#A5B7C6;" d="M285.779,466.116c-0.334-0.131-0.912-0.35-1.565-0.269
					c-0.624,0.078-0.956,0.386-0.956,1.14v0.981h2.523v1.945h-2.523v6.177h-2.188v-6.177h-1.517v-1.945h1.517v-1.006
					c0-1.902,1.014-3.151,2.908-3.151c0.728,0,1.31,0.138,1.8,0.349L285.779,466.116z"/>
				<path id="XMLID_212_" style="fill:#A5B7C6;" d="M291.104,469.89c-0.2-0.034-0.405-0.052-0.596-0.052
					c-1.014,0-1.71,0.62-1.71,1.827v4.425h-2.188v-8.122h2.12v0.888c0.511-0.763,1.291-1.106,2.288-1.106
					c0.469,0,0.96,0.144,1.239,0.381L291.104,469.89z"/>
				<path id="XMLID_209_" style="fill:#A5B7C6;" d="M299.786,472.017c0,0.251-0.017,0.553-0.042,0.738h-5.758
					c0.235,1.173,1.056,1.685,2.087,1.685c0.704,0,1.467-0.285,2.053-0.779l1.282,1.408c-0.922,0.846-2.095,1.232-3.461,1.232
					c-2.489,0-4.216-1.693-4.216-4.249c0-2.556,1.676-4.3,4.107-4.3C298.177,467.75,299.778,469.485,299.786,472.017z
					 M293.995,471.262h3.595c-0.201-1.039-0.83-1.626-1.768-1.626C294.791,469.636,294.187,470.257,293.995,471.262z"/>
				<path id="XMLID_206_" style="fill:#A5B7C6;" d="M308.453,472.017c0,0.251-0.017,0.553-0.042,0.738h-5.758
					c0.235,1.173,1.056,1.685,2.087,1.685c0.704,0,1.467-0.285,2.053-0.779l1.282,1.408c-0.922,0.846-2.095,1.232-3.461,1.232
					c-2.489,0-4.216-1.693-4.216-4.249c0-2.556,1.676-4.3,4.107-4.3C306.843,467.75,308.444,469.485,308.453,472.017z
					 M302.661,471.262h3.596c-0.201-1.039-0.83-1.626-1.768-1.626C303.457,469.636,302.854,470.257,302.661,471.262z"/>
				<path id="XMLID_203_" style="fill:#A5B7C6;" d="M317.903,472.025c0,2.439-1.693,4.275-3.931,4.275
					c-1.09,0-1.861-0.428-2.389-1.056v4.199h-2.179v-11.474h2.137v0.897c0.528-0.662,1.307-1.115,2.422-1.115
					C316.21,467.75,317.903,469.586,317.903,472.025z M311.475,472.025c0,1.282,0.846,2.238,2.087,2.238
					c1.291,0,2.095-0.997,2.095-2.238c0-1.24-0.805-2.238-2.095-2.238C312.321,469.787,311.475,470.742,311.475,472.025z"/>
				<path id="XMLID_200_" style="fill:#A5B7C6;" d="M321.418,465.311c0,0.788-0.612,1.391-1.4,1.391
					c-0.788,0-1.391-0.603-1.391-1.391c0-0.788,0.604-1.408,1.391-1.408C320.806,463.903,321.418,464.524,321.418,465.311z
					 M321.124,476.09h-2.188v-8.122h2.188V476.09z"/>
				<path id="XMLID_198_" style="fill:#A5B7C6;" d="M324.775,470.86l3.059-2.892h2.682l-3.939,3.822l3.964,4.3h-2.69l-3.076-3.285
					v3.285h-2.188v-12.069h2.188V470.86z"/>
			</g>
			<g>
				<path style="fill:#A5B7C6;" d="M175.729,476.016v-1.194c-0.597,0.813-1.576,1.393-2.704,1.393c-2.09,0-3.566-1.592-3.566-4.196
					c0-2.555,1.46-4.213,3.566-4.213c1.078,0,2.057,0.531,2.704,1.41v-4.263h1.244v11.064H175.729z M175.729,473.843v-3.633
					c-0.448-0.697-1.41-1.294-2.405-1.294c-1.609,0-2.571,1.327-2.571,3.102c0,1.775,0.962,3.085,2.571,3.085
					C174.319,475.104,175.281,474.54,175.729,473.843z"/>
				<path style="fill:#A5B7C6;" d="M178.582,472.002c0-2.322,1.659-4.197,3.948-4.197c2.422,0,3.848,1.891,3.848,4.296v0.316h-6.486
					c0.1,1.509,1.161,2.77,2.886,2.77c0.912,0,1.841-0.365,2.471-1.012l0.597,0.813c-0.796,0.796-1.874,1.227-3.185,1.227
					C180.29,476.215,178.582,474.507,178.582,472.002z M182.513,468.834c-1.709,0-2.555,1.443-2.621,2.67h5.258
					C185.134,470.31,184.337,468.834,182.513,468.834z"/>
				<path style="fill:#A5B7C6;" d="M187.273,474.955l0.647-0.895c0.531,0.614,1.543,1.145,2.637,1.145
					c1.228,0,1.891-0.581,1.891-1.377c0-1.94-4.96-0.746-4.96-3.716c0-1.244,1.078-2.306,2.985-2.306
					c1.36,0,2.323,0.514,2.969,1.161l-0.581,0.863c-0.481-0.581-1.36-1.012-2.389-1.012c-1.095,0-1.775,0.547-1.775,1.261
					c0,1.758,4.96,0.597,4.96,3.716c0,1.344-1.078,2.422-3.151,2.422C189.197,476.215,188.086,475.817,187.273,474.955z"/>
				<path style="fill:#A5B7C6;" d="M195.053,466.031c0-0.464,0.382-0.846,0.829-0.846c0.465,0,0.846,0.381,0.846,0.846
					c0,0.465-0.381,0.829-0.846,0.829C195.434,466.86,195.053,466.495,195.053,466.031z M195.268,476.016v-8.012h1.244v8.012
					H195.268z"/>
				<path style="fill:#A5B7C6;" d="M198.569,478.073l0.63-0.929c0.663,0.796,1.46,1.095,2.604,1.095
					c1.327,0,2.571-0.647,2.571-2.405v-1.145c-0.581,0.813-1.559,1.427-2.687,1.427c-2.09,0-3.566-1.559-3.566-4.147
					c0-2.571,1.46-4.163,3.566-4.163c1.078,0,2.04,0.531,2.687,1.41v-1.211h1.244v7.78c0,2.654-1.858,3.483-3.815,3.483
					C200.443,479.267,199.514,479.002,198.569,478.073z M204.374,473.711v-3.5c-0.432-0.697-1.393-1.294-2.389-1.294
					c-1.609,0-2.571,1.277-2.571,3.052c0,1.758,0.962,3.052,2.571,3.052C202.981,475.021,203.943,474.408,204.374,473.711z"/>
				<path style="fill:#A5B7C6;" d="M213.099,476.016v-5.242c0-1.41-0.713-1.858-1.791-1.858c-0.979,0-1.908,0.597-2.372,1.244v5.855
					h-1.244v-8.012h1.244v1.161c0.564-0.663,1.658-1.36,2.853-1.36c1.675,0,2.555,0.846,2.555,2.588v5.623H213.099z"/>
				<path style="fill:#A5B7C6;" d="M215.952,472.002c0-2.322,1.659-4.197,3.948-4.197c2.422,0,3.848,1.891,3.848,4.296v0.316h-6.486
					c0.099,1.509,1.161,2.77,2.886,2.77c0.912,0,1.841-0.365,2.472-1.012l0.597,0.813c-0.796,0.796-1.874,1.227-3.185,1.227
					C217.66,476.215,215.952,474.507,215.952,472.002z M219.883,468.834c-1.708,0-2.555,1.443-2.621,2.67h5.258
					C222.503,470.31,221.707,468.834,219.883,468.834z"/>
				<path style="fill:#A5B7C6;" d="M231.146,476.016v-1.194c-0.597,0.813-1.576,1.393-2.704,1.393c-2.09,0-3.566-1.592-3.566-4.196
					c0-2.555,1.46-4.213,3.566-4.213c1.078,0,2.057,0.531,2.704,1.41v-4.263h1.244v11.064H231.146z M231.146,473.843v-3.633
					c-0.448-0.697-1.41-1.294-2.405-1.294c-1.609,0-2.571,1.327-2.571,3.102c0,1.775,0.962,3.085,2.571,3.085
					C229.736,475.104,230.697,474.54,231.146,473.843z"/>
				<path style="fill:#A5B7C6;" d="M238.327,476.016v-11.064h1.244v4.263c0.647-0.879,1.609-1.41,2.704-1.41
					c2.09,0,3.566,1.659,3.566,4.213c0,2.604-1.476,4.196-3.566,4.196c-1.128,0-2.107-0.581-2.704-1.393v1.194H238.327z
					 M241.96,475.104c1.626,0,2.588-1.31,2.588-3.085c0-1.775-0.962-3.102-2.588-3.102c-0.979,0-1.957,0.597-2.388,1.294v3.633
					C240.003,474.54,240.981,475.104,241.96,475.104z"/>
				<path style="fill:#A5B7C6;" d="M247.201,478.023c0.182,0.083,0.481,0.133,0.68,0.133c0.547,0,0.912-0.182,1.194-0.846
					l0.531-1.211l-3.351-8.095h1.344l2.671,6.569l2.654-6.569h1.36l-4.014,9.637c-0.481,1.161-1.294,1.609-2.356,1.625
					c-0.265,0-0.68-0.05-0.912-0.116L247.201,478.023z"/>
			</g>
		</g>
	</g>
</g>
</svg>
