<?xml version="1.0" ?><!DOCTYPE svg  PUBLIC '-//W3C//DTD SVG 1.1//EN'  'http://www.w3.org/Graphics/SVG/1.1/DTD/svg11.dtd'><svg height="42px" style="fill-rule:evenodd;clip-rule:evenodd;stroke-linejoin:round;stroke-miterlimit:2;" version="1.1" width="42px" xml:space="preserve" xmlns="http://www.w3.org/2000/svg" xmlns:serif="http://www.serif.com/" xmlns:xlink="http://www.w3.org/1999/xlink"><path d="M16,22.2c-0,-0.477 -0.336,-0.887 -0.804,-0.981l-5.28,-1.056c-0.336,-0.067 -0.683,0.043 -0.919,0.291c-0.237,0.248 -0.33,0.6 -0.247,0.932l3.466,13.893c0.111,0.446 0.512,0.758 0.971,0.758l4,0c0.349,0 0.672,-0.182 0.854,-0.48c0.181,-0.298 0.194,-0.669 0.034,-0.979c-1.225,-2.369 -2.266,-4.818 -2.077,-7.508c0.001,-0.023 0.002,-0.047 0.002,-0.07l-0,-4.8Zm-2,0.82l-0,3.947c-0.167,2.5 0.552,4.83 1.583,7.07c-0,0 -1.615,0 -1.615,0c-0,0 -2.895,-11.603 -2.895,-11.603l2.927,0.586Z"/><path d="M10,13c0,-0.552 -0.448,-1 -1,-1l-5,0c-0.552,0 -1,0.448 -1,1l0,7c0,0.552 0.448,1 1,1l5,0c0.552,0 1,-0.448 1,-1l0,-7Zm-2,1l0,5c-0,-0 -3,0 -3,0c0,-0 0,-5 0,-5l3,0Z"/><path d="M30,19l1,0c0.552,0 1,-0.448 1,-1l-0,-4c0,-0.552 -0.448,-1 -1,-1l-1,-0l0,-6c0,-0.308 -0.142,-0.599 -0.385,-0.788c-0.242,-0.19 -0.559,-0.257 -0.858,-0.182l-20,5c-0.445,0.111 -0.757,0.511 -0.757,0.97l-0,9c-0,0.477 0.336,0.887 0.804,0.981l20,4c0.294,0.058 0.598,-0.018 0.83,-0.208c0.232,-0.19 0.366,-0.473 0.366,-0.773l-0,-6Zm-14,-7.719l12,-3l0,15.499l-12,-2.4l0,-10.099Zm-2,0.5l0,9.199l-4,-0.8c-0,0 -0,-7.399 -0,-7.399l4,-1Z"/><path d="M32.316,9.949l6,-2c0.524,-0.175 0.807,-0.742 0.633,-1.265c-0.175,-0.524 -0.742,-0.807 -1.265,-0.633l-6,2c-0.524,0.175 -0.807,0.742 -0.633,1.265c0.175,0.524 0.742,0.807 1.265,0.633Z"/><path d="M34,17l4,0c0.552,-0 1,-0.448 1,-1c-0,-0.552 -0.448,-1 -1,-1l-4,0c-0.552,-0 -1,0.448 -1,1c-0,0.552 0.448,1 1,1Z"/><path d="M31.553,24.894l6,3c0.493,0.247 1.095,0.047 1.341,-0.447c0.247,-0.493 0.047,-1.095 -0.447,-1.341l-6,-3c-0.493,-0.247 -1.095,-0.047 -1.341,0.447c-0.247,0.493 -0.047,1.095 0.447,1.341Z"/></svg>